<svg xmlns="http://www.w3.org/2000/svg" xmlns:xlink="http://www.w3.org/1999/xlink" width="53.908" height="53.908" viewBox="0 0 53.908 53.908"><defs><clipPath id="a"><rect width="13.152" height="18.722" fill="none"/></clipPath></defs><g transform="translate(-57.083 -185.715)"><circle cx="26.954" cy="26.954" r="26.954" transform="translate(57.083 185.715)" fill="#ffcd38"/><g transform="translate(64.884 200.104)"><rect width="37.899" height="26.699" transform="translate(0 0)" fill="#1b59ed"/><rect width="13.152" height="18.722" transform="translate(3.133 3.954)" fill="#38dbcf"/><g transform="translate(3.133 3.954)"><g clip-path="url(#a)"><g transform="translate(0.108 4.35)"><path d="M88.167,227.879A3.477,3.477,0,1,1,84.69,224.4,3.477,3.477,0,0,1,88.167,227.879Z" transform="translate(-78.222 -224.401)" fill="#fff"/><path d="M76.07,244.467a6.468,6.468,0,0,1,12.936,0Z" transform="translate(-76.07 -230.095)" fill="#fff"/></g></g></g><rect width="9.966" height="3.03" transform="translate(18.524 3.954)" fill="#38dbcf"/><g transform="translate(18.524 11.127)" opacity="0.6"><rect width="17" height="1.515" fill="#38dbcf"/><rect width="17" height="1.515" transform="translate(0 2.929)" fill="#38dbcf"/><rect width="12.017" height="1.515" transform="translate(4.983 9.544)" fill="#38dbcf"/><rect width="10.669" height="1.515" transform="translate(0 6.054)" fill="#38dbcf"/></g></g><g transform="translate(91.558 211.231)"><g transform="translate(0.958 0)"><path d="M122.122,239.161h-1.045a3.069,3.069,0,0,1-3.065-3.064V232.32a3.069,3.069,0,0,1,3.065-3.065h1.045a3.068,3.068,0,0,1,3.064,3.065V236.1A3.068,3.068,0,0,1,122.122,239.161Zm-1.045-8.329a1.489,1.489,0,0,0-1.488,1.488V236.1a1.49,1.49,0,0,0,1.488,1.487h1.045a1.489,1.489,0,0,0,1.487-1.487V232.32a1.488,1.488,0,0,0-1.487-1.488Z" transform="translate(-118.012 -229.255)" fill="#ffe25a"/></g><rect width="9.09" height="7.93" transform="translate(0 5.329)" fill="#ffc15a"/></g></g></svg>