<svg xmlns="http://www.w3.org/2000/svg" width="722" height="686.777" viewBox="0 0 722 686.777">
  <g id="Grupo_83647" data-name="Grupo 83647" transform="translate(-439 -1634.347)">
    <g id="Grupo_81011" data-name="Grupo 81011" transform="translate(390.463 1584.708)">
      <g id="Grupo_80996" data-name="Grupo 80996" transform="translate(48.537 49.639)">
        <g id="Grupo_80994" data-name="Grupo 80994">
          <path id="Trazado_114669" data-name="Trazado 114669" d="M48.537,309.346a351.988,351.988,0,0,0,98.881,238.876L248.985,446.657a208.856,208.856,0,0,1-56.822-137.31Z" transform="translate(-48.537 50.102)" fill="#abdcff"/>
          <path id="Trazado_114670" data-name="Trazado 114670" d="M48.538,366.39H192.17a208.876,208.876,0,0,1,56.9-137.227L147.5,127.6A352,352,0,0,0,48.538,366.39Z" transform="translate(-48.537 -19.699)" fill="#abdcff"/>
          <path id="Trazado_114671" data-name="Trazado 114671" d="M228.128,250.089a208.857,208.857,0,0,1,137.222-56.82V49.639A351.99,351.99,0,0,0,126.561,148.52Z" transform="translate(-18.572 -49.639)" fill="#ffcd38"/>
          <path id="Trazado_114672" data-name="Trazado 114672" d="M308.307,193.269A208.85,208.85,0,0,1,445.53,250.091L547.1,148.52A351.987,351.987,0,0,0,308.307,49.639Z" transform="translate(51.229 -49.639)" fill="#abdcff"/>
          <path id="Trazado_114673" data-name="Trazado 114673" d="M414.034,446.657,515.6,548.222a351.984,351.984,0,0,0,98.882-238.876H470.856A208.857,208.857,0,0,1,414.034,446.657Z" transform="translate(91.833 50.102)" fill="#abdcff"/>
          <path id="Trazado_114674" data-name="Trazado 114674" d="M413.972,229.163a208.9,208.9,0,0,1,56.9,137.229H614.5A352,352,0,0,0,515.537,127.6Z" transform="translate(91.809 -19.699)" fill="#abdcff"/>
          <path id="Trazado_114675" data-name="Trazado 114675" d="M152.309,309.346a208.857,208.857,0,0,0,56.822,137.31l20.938-20.939a179.337,179.337,0,0,1-48.147-116.371Z" transform="translate(-8.683 50.102)" fill="#1b59ed"/>
          <path id="Trazado_114676" data-name="Trazado 114676" d="M152.314,338.207h29.613a179.352,179.352,0,0,1,48.225-116.291L209.215,200.98A208.876,208.876,0,0,0,152.314,338.207Z" transform="translate(-8.681 8.484)" fill="#1b59ed"/>
          <path id="Trazado_114677" data-name="Trazado 114677" d="M220.883,231.167a179.35,179.35,0,0,1,116.284-48.141V153.414a208.857,208.857,0,0,0-137.222,56.82Z" transform="translate(9.612 -9.784)" fill="#efb507"/>
          <path id="Trazado_114678" data-name="Trazado 114678" d="M308.306,183.026a179.328,179.328,0,0,1,116.287,48.147l20.938-20.937a208.85,208.85,0,0,0-137.223-56.822Z" transform="translate(51.228 -9.784)" fill="#1b59ed"/>
          <path id="Trazado_114679" data-name="Trazado 114679" d="M398.905,425.717l20.939,20.939a208.857,208.857,0,0,0,56.822-137.31H447.052A179.323,179.323,0,0,1,398.905,425.717Z" transform="translate(86.023 50.102)" fill="#1b59ed"/>
          <path id="Trazado_114680" data-name="Trazado 114680" d="M398.845,221.917a179.357,179.357,0,0,1,48.226,116.291h29.613a208.9,208.9,0,0,0-56.9-137.229Z" transform="translate(86 8.484)" fill="#1b59ed"/>
        </g>
        <g id="Grupo_80995" data-name="Grupo 80995" transform="translate(165.214 166.037)">
          <path id="Trazado_114681" data-name="Trazado 114681" d="M409.565,268.2l38.737,4.737L433.036,237.02Z" transform="translate(-75.097 -143.712)" fill="#1b59ed"/>
          <path id="Trazado_114682" data-name="Trazado 114682" d="M347.893,208.246,378.637,184.2l-36.191-14.6Z" transform="translate(-100.875 -169.604)" fill="#1b59ed"/>
          <path id="Trazado_114683" data-name="Trazado 114683" d="M266.5,209.092l4.737-38.74-35.918,15.268Z" transform="translate(-142.016 -169.316)" fill="#efb507"/>
          <path id="Trazado_114684" data-name="Trazado 114684" d="M167.907,275.5l38.64-5.45-24.04-30.742Z" transform="translate(-167.907 -142.832)" fill="#1b59ed"/>
          <path id="Trazado_114685" data-name="Trazado 114685" d="M183.921,382.55l23.468-31.18-38.735-4.736Z" transform="translate(-167.62 -101.615)" fill="#1b59ed"/>
          <path id="Trazado_114686" data-name="Trazado 114686" d="M434.424,380.333l14.6-36.191L410.383,349.6Z" transform="translate(-74.783 -102.571)" fill="#1b59ed"/>
        </g>
      </g>
      <g id="Grupo_81010" data-name="Grupo 81010" transform="translate(259.019 361.278)">
        <g id="Grupo_81008" data-name="Grupo 81008">
          <path id="Trazado_114687" data-name="Trazado 114687" d="M357.087,320.482l-32.78.228h-42.8l.1-15.871a33.616,33.616,0,0,0-.541-6.241c-5.715-31.372-51.643-31.555-57.689-.245a33.652,33.652,0,0,0-.608,6.382v19.083h.018l.079,14.227c.083,15.038-9.622,27.9-22.217,30.69a20.178,20.178,0,0,0,3.031.144c2.314.061,4.152.007,4.152.007l122.256.158c15.056-.105,27.186-13.983,27.093-31Z" transform="translate(-200.614 -274.739)" fill="#121936"/>
          <g id="Grupo_81007" data-name="Grupo 81007" transform="translate(51.544)">
            <g id="Grupo_80998" data-name="Grupo 80998">
              <path id="Trazado_114688" data-name="Trazado 114688" d="M442.193,320.32a45.344,45.344,0,0,0-29.548-42.5,33.354,33.354,0,0,0-13.676-3.014l-101.632.116.008-.014h-55.4c-.74,0-1.473.033-2.2.08l-1.886,0v.061c.14.017.278.042.419.061a33.471,33.471,0,0,1,28.964,31.177h-.018V622.171a27.921,27.921,0,0,0,28.069,27.77H442.136V522.492h.057Z" transform="translate(-237.855 -274.803)" fill="#e8e8e8"/>
              <g id="Grupo_80997" data-name="Grupo 80997" transform="translate(58.611 151.486)">
                <path id="Trazado_114689" data-name="Trazado 114689" d="M400.5,398.53H281.255a1.053,1.053,0,1,1,0-2.105H400.5a1.053,1.053,0,1,1,0,2.105Z" transform="translate(-280.202 -379.58)" fill="#121936"/>
                <path id="Trazado_114690" data-name="Trazado 114690" d="M355.383,386.359H305.15a1.053,1.053,0,1,1,0-2.105h50.233a1.053,1.053,0,1,1,0,2.105Z" transform="translate(-271.025 -384.254)" fill="#121936"/>
                <path id="Trazado_114691" data-name="Trazado 114691" d="M400.5,416.4H281.255a1.053,1.053,0,1,1,0-2.105H400.5a1.053,1.053,0,1,1,0,2.105Z" transform="translate(-280.202 -372.719)" fill="#121936"/>
                <path id="Trazado_114692" data-name="Trazado 114692" d="M400.5,434.261H281.255a1.053,1.053,0,0,1,0-2.107H400.5a1.053,1.053,0,1,1,0,2.107Z" transform="translate(-280.202 -365.858)" fill="#121936"/>
                <path id="Trazado_114693" data-name="Trazado 114693" d="M400.5,450.98H281.255a1.053,1.053,0,0,1,0-2.107H400.5a1.053,1.053,0,1,1,0,2.107Z" transform="translate(-280.202 -359.436)" fill="#121936"/>
              </g>
            </g>
            <g id="Grupo_81006" data-name="Grupo 81006" transform="translate(44.687 35.022)">
              <g id="Grupo_81005" data-name="Grupo 81005">
                <path id="Trazado_114694" data-name="Trazado 114694" d="M333.766,302.946h0a4.082,4.082,0,0,0-7.968,1.262h0a4.082,4.082,0,0,1-7.394,2.4h0a4.081,4.081,0,0,0-7.187,3.662h0a4.082,4.082,0,0,1-6.289,4.57h0a4.081,4.081,0,0,0-5.705,5.7h0a4.082,4.082,0,0,1-4.569,6.289h0a4.082,4.082,0,0,0-3.662,7.189h0a4.081,4.081,0,0,1-2.4,7.392h0a4.081,4.081,0,0,0-1.261,7.968h0a4.081,4.081,0,0,1,0,7.773h0a4.082,4.082,0,0,0,1.261,7.969h0a4.081,4.081,0,0,1,2.4,7.392h0a4.081,4.081,0,0,0,3.662,7.187h0a4.082,4.082,0,0,1,4.569,6.289h0a4.082,4.082,0,0,0,5.705,5.705h0a4.082,4.082,0,0,1,6.289,4.569h0a4.081,4.081,0,0,0,7.187,3.662h0a4.083,4.083,0,0,1,7.394,2.4h0a4.082,4.082,0,0,0,7.968,1.262h0a4.081,4.081,0,0,1,7.773,0h0a4.082,4.082,0,0,0,7.968-1.262h0a4.083,4.083,0,0,1,7.394-2.4h0a4.081,4.081,0,0,0,7.187-3.662h0a4.082,4.082,0,0,1,6.289-4.569h0a4.082,4.082,0,0,0,5.7-5.705h0a4.082,4.082,0,0,1,4.569-6.289h0a4.081,4.081,0,0,0,3.662-7.187h0a4.081,4.081,0,0,1,2.4-7.392h0a4.082,4.082,0,0,0,1.261-7.969h0a4.081,4.081,0,0,1,0-7.773h0a4.081,4.081,0,0,0-1.261-7.968h0a4.081,4.081,0,0,1-2.4-7.392h0a4.082,4.082,0,0,0-3.662-7.189h0a4.082,4.082,0,0,1-4.569-6.289h0a4.081,4.081,0,0,0-5.7-5.7h0a4.083,4.083,0,0,1-6.289-4.57h0a4.081,4.081,0,0,0-7.187-3.662h0a4.082,4.082,0,0,1-7.394-2.4h0a4.082,4.082,0,0,0-7.968-1.262h0A4.081,4.081,0,0,1,333.766,302.946Z" transform="translate(-264.632 -300.107)" fill="#ffcd38"/>
                <g id="Grupo_81004" data-name="Grupo 81004" transform="translate(46.285 18.984)">
                  <path id="Trazado_114695" data-name="Trazado 114695" d="M349.087,374.349H311.551a7.978,7.978,0,0,1-7.968-7.968V336.707a7.978,7.978,0,0,1,7.968-7.968h37.536a7.978,7.978,0,0,1,7.968,7.968v29.674A7.978,7.978,0,0,1,349.087,374.349ZM311.551,331.9a4.816,4.816,0,0,0-4.81,4.81v29.674a4.816,4.816,0,0,0,4.81,4.81h37.536a4.816,4.816,0,0,0,4.81-4.81V336.707a4.816,4.816,0,0,0-4.81-4.81Z" transform="translate(-303.583 -308.095)" fill="#121936"/>
                  <path id="Trazado_114696" data-name="Trazado 114696" d="M346.124,337.626a1.579,1.579,0,0,1-1.579-1.579v-8.623c0-5.759-5.311-10.443-11.839-10.443H323.87c-6.529,0-11.839,4.684-11.839,10.443v8.623a1.579,1.579,0,1,1-3.158,0v-8.623c0-7.5,6.728-13.6,15-13.6h8.836c8.27,0,15,6.1,15,13.6v8.623A1.58,1.58,0,0,1,346.124,337.626Z" transform="translate(-301.552 -313.823)" fill="#121936"/>
                  <g id="Grupo_81003" data-name="Grupo 81003" transform="translate(17.789 30.004)">
                    <g id="Grupo_81002" data-name="Grupo 81002">
                      <path id="Trazado_114697" data-name="Trazado 114697" d="M334.91,344.29a9.257,9.257,0,0,0-18.467-.339,8.61,8.61,0,0,0,3.521,7.247,1.864,1.864,0,0,1,.775,1.485v2.41a1.92,1.92,0,0,0,1.967,1.871h5.936a1.92,1.92,0,0,0,1.965-1.871v-2.408a1.861,1.861,0,0,1,.772-1.485A8.624,8.624,0,0,0,334.91,344.29Z" transform="translate(-316.436 -335.501)" fill="#121936"/>
                      <g id="Grupo_80999" data-name="Grupo 80999" transform="translate(7.018 22.557)">
                        <path id="Trazado_114698" data-name="Trazado 114698" d="M325.61,353.946a1.956,1.956,0,1,1-1.957-1.956A1.956,1.956,0,0,1,325.61,353.946Z" transform="translate(-321.434 -351.726)" fill="#121936"/>
                        <path id="Trazado_114699" data-name="Trazado 114699" d="M323.726,356.239a2.22,2.22,0,1,1,2.22-2.22A2.222,2.222,0,0,1,323.726,356.239Zm0-3.913a1.693,1.693,0,1,0,1.693,1.693A1.694,1.694,0,0,0,323.726,352.326Z" transform="translate(-321.507 -351.799)" fill="#ffd066"/>
                      </g>
                      <g id="Grupo_81000" data-name="Grupo 81000" transform="translate(5.351 21.71)">
                        <rect id="Rectángulo_34076" data-name="Rectángulo 34076" width="7.248" height="1.629" rx="0.553" transform="translate(0.263 0.263)" fill="#121936"/>
                        <path id="Trazado_114700" data-name="Trazado 114700" d="M327.1,353.342h-5.824a.976.976,0,0,1-.974-.974v-.206a.976.976,0,0,1,.974-.974H327.1a.976.976,0,0,1,.976.974v.206A.976.976,0,0,1,327.1,353.342Zm-5.824-1.628a.449.449,0,0,0-.448.447v.206a.449.449,0,0,0,.448.448H327.1a.448.448,0,0,0,.448-.448v-.206a.448.448,0,0,0-.448-.447Z" transform="translate(-320.302 -351.187)" fill="#ffd066"/>
                      </g>
                      <g id="Grupo_81001" data-name="Grupo 81001" transform="translate(5.793 23.339)">
                        <rect id="Rectángulo_34077" data-name="Rectángulo 34077" width="6.36" height="1.424" rx="0.484" transform="translate(0.263 0.263)" fill="#121936"/>
                        <path id="Trazado_114701" data-name="Trazado 114701" d="M326.623,354.314h-5.115a.886.886,0,0,1-.886-.884v-.18a.887.887,0,0,1,.886-.886h5.115a.887.887,0,0,1,.886.886v.18A.886.886,0,0,1,326.623,354.314Zm-5.115-1.424a.361.361,0,0,0-.36.36v.18a.36.36,0,0,0,.36.358h5.115a.359.359,0,0,0,.358-.358v-.18a.36.36,0,0,0-.358-.36Z" transform="translate(-320.622 -352.364)" fill="#ffd066"/>
                      </g>
                      <path id="Trazado_114702" data-name="Trazado 114702" d="M318.657,345.317a.394.394,0,0,1-.381-.291,6.217,6.217,0,0,1,2.217-6.607.395.395,0,0,1,.451.648,5.332,5.332,0,0,0-1.907,5.752.394.394,0,0,1-.277.484A.382.382,0,0,1,318.657,345.317Z" transform="translate(-315.822 -334.408)" fill="#ffd066"/>
                    </g>
                  </g>
                </g>
                <path id="Trazado_114703" data-name="Trazado 114703" d="M289.668,314.428a1.05,1.05,0,0,1-.655-.228l-9.936-7.913a1.053,1.053,0,1,1,1.312-1.647l9.935,7.911a1.053,1.053,0,0,1-.656,1.877Z" transform="translate(-266.862 -298.454)" fill="#121936"/>
                <path id="Trazado_114704" data-name="Trazado 114704" d="M271.193,340.252a1.053,1.053,0,0,1-.239-2.077l12.365-2.9a1.053,1.053,0,0,1,.482,2.05l-12.365,2.9A1.042,1.042,0,0,1,271.193,340.252Z" transform="translate(-270.142 -286.612)" fill="#121936"/>
                <path id="Trazado_114705" data-name="Trazado 114705" d="M284.784,325.928a1.053,1.053,0,0,1-.282-.039l-12.241-3.383a1.053,1.053,0,1,1,.562-2.029l12.241,3.383a1.053,1.053,0,0,1-.28,2.068Z" transform="translate(-269.625 -292.298)" fill="#121936"/>
                <path id="Trazado_114706" data-name="Trazado 114706" d="M365.27,339.054a1.052,1.052,0,0,1-.084-2.1l12.659-1.026a1.053,1.053,0,1,1,.17,2.1l-12.659,1.026C365.327,339.054,365.3,339.054,365.27,339.054Z" transform="translate(-234.012 -286.352)" fill="#121936"/>
                <path id="Trazado_114707" data-name="Trazado 114707" d="M364.118,325.928a1.053,1.053,0,0,1-.281-2.068l12.242-3.383a1.053,1.053,0,0,1,.562,2.029L364.4,325.889A1.042,1.042,0,0,1,364.118,325.928Z" transform="translate(-234.454 -292.298)" fill="#121936"/>
                <path id="Trazado_114708" data-name="Trazado 114708" d="M374.217,355.561a1.053,1.053,0,0,1-.484-.119l-11.269-5.856a1.053,1.053,0,1,1,.97-1.868l11.269,5.856a1.053,1.053,0,0,1-.486,1.988Z" transform="translate(-234.903 -281.868)" fill="#121936"/>
              </g>
            </g>
          </g>
        </g>
        <g id="Grupo_81009" data-name="Grupo 81009" transform="translate(80.839 264.434)">
          <path id="Trazado_114709" data-name="Trazado 114709" d="M356.075,494.327V540.85A33.345,33.345,0,0,0,389.418,574.2h6.191a40.067,40.067,0,0,0,40.067-40.067h0a28.2,28.2,0,0,1,28.2-28.2h11.6a23.939,23.939,0,0,1,7.59,1.233v-1.233h.273V488.429a22.569,22.569,0,0,0-22.57-22.568H328.881v.032A28.464,28.464,0,0,1,356.075,494.327Z" transform="translate(-232.191 -465.861)" fill="#afafaf"/>
          <line id="Línea_145" data-name="Línea 145" transform="translate(430.679 110.703)" fill="none" stroke="#faf8f3" stroke-linecap="round" stroke-linejoin="round" stroke-width="0"/>
          <path id="Trazado_114710" data-name="Trazado 114710" d="M594.983,535.343l-.244-17.966a22.569,22.569,0,0,0-22.568-22.57H440.282v1.233a23.994,23.994,0,0,1,16.4,22.754v11.334A35.32,35.32,0,0,0,492,565.448H620.086A31.112,31.112,0,0,1,594.983,535.343Z" transform="translate(-189.407 -454.744)" fill="#e8e8e8"/>
          <path id="Trazado_114711" data-name="Trazado 114711" d="M259.021,526.012a25.193,25.193,0,0,0,.566,5.305,29.238,29.238,0,0,1-.5-5.535Z" transform="translate(-259.021 -442.848)" fill="#121936"/>
          <line id="Línea_146" data-name="Línea 146" transform="translate(302.591 110.703)" fill="none" stroke="#121936" stroke-linecap="round" stroke-linejoin="round" stroke-width="0"/>
          <path id="Trazado_114712" data-name="Trazado 114712" d="M526.136,541.245V529.911a23.989,23.989,0,0,0-23.987-23.987h-11.6a28.2,28.2,0,0,0-28.2,28.2h0A40.067,40.067,0,0,1,422.282,574.2h-6.191a33.345,33.345,0,0,1-33.343-33.345V494.327a28.464,28.464,0,0,0-27.194-28.434c-.422-.019-.846-.032-1.273-.032h0a34.792,34.792,0,0,0-34.792,34.792v38.088A35.453,35.453,0,0,1,284.036,574.2h0A25.176,25.176,0,0,1,259.43,554.33c2.421,12.959,13.521,22.235,27.386,22.235H561.455A35.32,35.32,0,0,1,526.136,541.245Z" transform="translate(-258.864 -465.861)" fill="#121936"/>
        </g>
      </g>
    </g>
    <path id="Trazado_119013" data-name="Trazado 119013" d="M-38.61,0h-3.076V-12.8h3.076Zm8.745-3.4a1.268,1.268,0,0,0-.479-1.055,5.954,5.954,0,0,0-1.683-.782A16.147,16.147,0,0,1-34-6.021q-2.487-1.222-2.487-3.357a3.011,3.011,0,0,1,.62-1.876A4.008,4.008,0,0,1-34.11-12.52a6.823,6.823,0,0,1,2.549-.453,5.969,5.969,0,0,1,2.474.492,3.917,3.917,0,0,1,1.7,1.4A3.661,3.661,0,0,1-26.78-9h-3.076a1.547,1.547,0,0,0-.479-1.213,1.867,1.867,0,0,0-1.3-.431,2.106,2.106,0,0,0-1.305.365,1.119,1.119,0,0,0-.479.927,1.127,1.127,0,0,0,.527.892,6.65,6.65,0,0,0,1.854.826,11.36,11.36,0,0,1,2.18.918,3.663,3.663,0,0,1,2.074,3.3A3.125,3.125,0,0,1-28.046-.782a5.629,5.629,0,0,1-3.472.958,6.888,6.888,0,0,1-2.817-.558,4.247,4.247,0,0,1-1.9-1.529,3.985,3.985,0,0,1-.637-2.237h3.094a1.963,1.963,0,0,0,.532,1.516,2.513,2.513,0,0,0,1.727.488,1.985,1.985,0,0,0,1.208-.33A1.088,1.088,0,0,0-29.865-3.4Zm15.5-2.733a7.546,7.546,0,0,1-.694,3.313A5.132,5.132,0,0,1-17.029-.6a5.494,5.494,0,0,1-2.914.778,5.572,5.572,0,0,1-2.9-.751,5.123,5.123,0,0,1-1.973-2.149,7.329,7.329,0,0,1-.743-3.208v-.721a7.58,7.58,0,0,1,.69-3.318,5.119,5.119,0,0,1,1.978-2.219,5.533,5.533,0,0,1,2.931-.782,5.479,5.479,0,0,1,2.9.773A5.211,5.211,0,0,1-15.078-10a7.362,7.362,0,0,1,.716,3.274ZM-17.5-6.671a5.381,5.381,0,0,0-.637-2.9,2.044,2.044,0,0,0-1.824-.989q-2.32,0-2.452,3.48l-.009.94A5.535,5.535,0,0,0-21.8-3.243a2.041,2.041,0,0,0,1.854,1.011,2.016,2.016,0,0,0,1.8-.993A5.383,5.383,0,0,0-17.5-6.082ZM-1.907,0H-4.878V-9.457L-7.8-8.6v-2.25L-2.18-12.8h.272ZM2.127-6.251,2.909-12.8h7.479v2.3H5.317l-.29,2.542a3.493,3.493,0,0,1,.831-.327A3.79,3.79,0,0,1,6.864-8.42,3.754,3.754,0,0,1,9.8-7.291a4.549,4.549,0,0,1,1.024,3.168,4.541,4.541,0,0,1-.549,2.228A3.776,3.776,0,0,1,8.728-.36,4.87,4.87,0,0,1,6.381.176a5.24,5.24,0,0,1-2.259-.5A4.052,4.052,0,0,1,2.47-1.682a3.308,3.308,0,0,1-.589-1.954H4.852A1.68,1.68,0,0,0,5.3-2.522a1.423,1.423,0,0,0,1.063.412q1.494,0,1.494-2.21,0-2.044-1.828-2.044A1.824,1.824,0,0,0,4.482-5.7ZM20.2-5h1.3v2.285H20.2V0H17.235V-2.716H12.287l-.176-1.811,5.124-8.244V-12.8H20.2ZM14.933-5h2.3V-8.938l-.185.3Zm16.752-.229a6.11,6.11,0,0,1-1.165,4A4.024,4.024,0,0,1,27.237.176a4.046,4.046,0,0,1-3.3-1.415,6.1,6.1,0,0,1-1.169-3.99V-7.567a6.11,6.11,0,0,1,1.165-4,4.034,4.034,0,0,1,3.292-1.406,4.036,4.036,0,0,1,3.3,1.415,6.116,6.116,0,0,1,1.169,4ZM28.723-7.945a4.564,4.564,0,0,0-.36-2.061,1.2,1.2,0,0,0-1.143-.681,1.176,1.176,0,0,0-1.112.633,4.3,4.3,0,0,0-.374,1.916v3.27a4.6,4.6,0,0,0,.36,2.1,1.209,1.209,0,0,0,1.143.664,1.193,1.193,0,0,0,1.116-.646,4.39,4.39,0,0,0,.369-2.026ZM41.854-9.378a2.954,2.954,0,0,1-.461,1.644,3.361,3.361,0,0,1-1.27,1.143,3.7,3.7,0,0,1,1.45,1.226,3.164,3.164,0,0,1,.536,1.841A3.349,3.349,0,0,1,40.926-.817,4.909,4.909,0,0,1,37.67.176a5,5,0,0,1-3.287-1,3.325,3.325,0,0,1-1.2-2.7,3.2,3.2,0,0,1,.527-1.819A3.586,3.586,0,0,1,35.2-6.592a3.38,3.38,0,0,1-1.283-1.143,2.934,2.934,0,0,1-.466-1.644,3.284,3.284,0,0,1,1.134-2.637,4.558,4.558,0,0,1,3.059-.967,4.586,4.586,0,0,1,3.076.967A3.284,3.284,0,0,1,41.854-9.378ZM39.138-3.762a1.69,1.69,0,0,0-.409-1.217,1.423,1.423,0,0,0-1.077-.426,1.438,1.438,0,0,0-1.081.426,1.678,1.678,0,0,0-.413,1.217,1.693,1.693,0,0,0,.417,1.208,1.433,1.433,0,0,0,1.094.444,1.377,1.377,0,0,0,1.063-.439A1.723,1.723,0,0,0,39.138-3.762ZM37.644-10.7a1.1,1.1,0,0,0-.91.391,1.7,1.7,0,0,0-.312,1.085,1.8,1.8,0,0,0,.316,1.107,1.092,1.092,0,0,0,.932.422,1.047,1.047,0,0,0,.91-.422,1.856,1.856,0,0,0,.3-1.107,1.7,1.7,0,0,0-.312-1.081A1.109,1.109,0,0,0,37.644-10.7Z" transform="translate(897 1761.611)" fill="#12263f"/>
    <path id="Trazado_119010" data-name="Trazado 119010" d="M-68.713-2.373h5.37V0H-71.8V-12.8h3.085ZM-57.577.176a4.889,4.889,0,0,1-3.542-1.305,4.507,4.507,0,0,1-1.354-3.4v-.246a5.84,5.84,0,0,1,.541-2.575,3.955,3.955,0,0,1,1.578-1.727,4.763,4.763,0,0,1,2.461-.611,4.117,4.117,0,0,1,3.164,1.244,4.887,4.887,0,0,1,1.16,3.467v1.151h-5.889a2.135,2.135,0,0,0,.694,1.257,2.066,2.066,0,0,0,1.389.457,2.662,2.662,0,0,0,2.2-.984l1.354,1.6A3.784,3.784,0,0,1-55.393-.277,5.3,5.3,0,0,1-57.577.176ZM-57.911-7.4q-1.3,0-1.547,1.723h2.988v-.229a1.467,1.467,0,0,0-.36-1.1A1.434,1.434,0,0,0-57.911-7.4Zm9.22,3.252,1.582-5.361h3.173l-3.876,11.1-.167.4A2.944,2.944,0,0,1-50.9,3.841a4.642,4.642,0,0,1-1.222-.175V1.556h.387a2.026,2.026,0,0,0,.954-.18,1.094,1.094,0,0,0,.488-.647L-50.054.1l-3.3-9.605h3.164ZM-32.168,0h-2.971V-9.457l-2.918.853v-2.25L-32.44-12.8h.272ZM-19.38,0h-8.93V-1.934L-24.2-6.258a4.909,4.909,0,0,0,1.521-2.751,1.913,1.913,0,0,0-.36-1.257,1.287,1.287,0,0,0-1.046-.431,1.3,1.3,0,0,0-1.1.576A2.366,2.366,0,0,0-25.6-8.684h-2.971a4.2,4.2,0,0,1,.589-2.175,4.129,4.129,0,0,1,1.635-1.56,4.856,4.856,0,0,1,2.338-.562,4.777,4.777,0,0,1,3.195.958A3.42,3.42,0,0,1-19.7-9.272,4,4,0,0,1-19.978-7.8a6.456,6.456,0,0,1-.875,1.5,22.029,22.029,0,0,1-1.912,2.1l-1.652,1.907h5.036ZM-8.991-11.215-13.772,0H-16.9l4.79-10.512h-6.1V-12.8h9.22Zm4.236,3.577h1.4A1.453,1.453,0,0,0-1.7-9.264a1.406,1.406,0,0,0-.4-1.033,1.5,1.5,0,0,0-1.116-.4,1.606,1.606,0,0,0-1.024.343,1.046,1.046,0,0,0-.435.853H-7.629a3.032,3.032,0,0,1,.563-1.8,3.715,3.715,0,0,1,1.56-1.235,5.334,5.334,0,0,1,2.193-.444,5.241,5.241,0,0,1,3.357.976A3.243,3.243,0,0,1,1.266-9.325,2.7,2.7,0,0,1,.76-7.765,3.6,3.6,0,0,1-.712-6.574a3.441,3.441,0,0,1,1.6,1.121,2.951,2.951,0,0,1,.58,1.859A3.3,3.3,0,0,1,.149-.853,5.472,5.472,0,0,1-3.313.176,5.675,5.675,0,0,1-5.647-.3,3.656,3.656,0,0,1-7.277-1.63,3.45,3.45,0,0,1-7.831-3.56h2.979a1.334,1.334,0,0,0,.475,1.02,1.676,1.676,0,0,0,1.169.431A1.755,1.755,0,0,0-1.96-2.544a1.454,1.454,0,0,0,.466-1.112,1.7,1.7,0,0,0-.483-1.371,2.021,2.021,0,0,0-1.336-.4H-4.755ZM7.119-4.825a5.809,5.809,0,0,1,.976-3.56,3.211,3.211,0,0,1,2.725-1.3,2.731,2.731,0,0,1,2.145,1V-13.5h2.971V0H13.271l-.149-1.02A2.8,2.8,0,0,1,10.8.176a3.205,3.205,0,0,1-2.689-1.3A5.993,5.993,0,0,1,7.119-4.825Zm2.962.185q0,2.531,1.477,2.531a1.458,1.458,0,0,0,1.406-.826V-6.557A1.419,1.419,0,0,0,11.575-7.4Q10.2-7.4,10.09-5.186ZM22.219.176a4.889,4.889,0,0,1-3.542-1.305,4.507,4.507,0,0,1-1.354-3.4v-.246a5.84,5.84,0,0,1,.541-2.575,3.955,3.955,0,0,1,1.578-1.727A4.763,4.763,0,0,1,21.9-9.686a4.117,4.117,0,0,1,3.164,1.244,4.887,4.887,0,0,1,1.16,3.467v1.151H20.338a2.135,2.135,0,0,0,.694,1.257,2.066,2.066,0,0,0,1.389.457,2.662,2.662,0,0,0,2.2-.984l1.354,1.6A3.784,3.784,0,0,1,24.4-.277,5.3,5.3,0,0,1,22.219.176ZM21.885-7.4q-1.3,0-1.547,1.723h2.988v-.229a1.467,1.467,0,0,0-.36-1.1A1.434,1.434,0,0,0,21.885-7.4ZM40.781,0h-8.93V-1.934l4.113-4.324a4.909,4.909,0,0,0,1.521-2.751,1.913,1.913,0,0,0-.36-1.257,1.287,1.287,0,0,0-1.046-.431,1.3,1.3,0,0,0-1.1.576,2.366,2.366,0,0,0-.422,1.437H31.588a4.2,4.2,0,0,1,.589-2.175,4.129,4.129,0,0,1,1.635-1.56,4.856,4.856,0,0,1,2.338-.562,4.777,4.777,0,0,1,3.195.958,3.42,3.42,0,0,1,1.121,2.751A4,4,0,0,1,40.184-7.8a6.456,6.456,0,0,1-.875,1.5,22.029,22.029,0,0,1-1.912,2.1L35.745-2.285h5.036Zm10.38-5.229A6.11,6.11,0,0,1,50-1.23,4.024,4.024,0,0,1,46.714.176a4.046,4.046,0,0,1-3.3-1.415,6.1,6.1,0,0,1-1.169-3.99V-7.567a6.11,6.11,0,0,1,1.165-4A4.034,4.034,0,0,1,46.7-12.973a4.036,4.036,0,0,1,3.3,1.415,6.116,6.116,0,0,1,1.169,4ZM48.2-7.945a4.564,4.564,0,0,0-.36-2.061,1.2,1.2,0,0,0-1.143-.681,1.176,1.176,0,0,0-1.112.633,4.3,4.3,0,0,0-.374,1.916v3.27a4.6,4.6,0,0,0,.36,2.1,1.209,1.209,0,0,0,1.143.664,1.193,1.193,0,0,0,1.116-.646A4.39,4.39,0,0,0,48.2-4.781ZM61.585-5.229a6.11,6.11,0,0,1-1.165,4A4.024,4.024,0,0,1,57.138.176a4.046,4.046,0,0,1-3.3-1.415,6.1,6.1,0,0,1-1.169-3.99V-7.567a6.11,6.11,0,0,1,1.165-4,4.034,4.034,0,0,1,3.292-1.406,4.036,4.036,0,0,1,3.3,1.415,6.116,6.116,0,0,1,1.169,4ZM58.623-7.945a4.564,4.564,0,0,0-.36-2.061,1.2,1.2,0,0,0-1.143-.681,1.176,1.176,0,0,0-1.112.633,4.3,4.3,0,0,0-.374,1.916v3.27a4.6,4.6,0,0,0,.36,2.1,1.209,1.209,0,0,0,1.143.664,1.193,1.193,0,0,0,1.116-.646,4.39,4.39,0,0,0,.369-2.026Zm10.336,3a3.128,3.128,0,0,1-2.145.861,3.463,3.463,0,0,1-2.76-1.178,4.64,4.64,0,0,1-1.02-3.146,4.722,4.722,0,0,1,.571-2.285,4.287,4.287,0,0,1,1.6-1.67,4.373,4.373,0,0,1,2.281-.615,4.245,4.245,0,0,1,2.29.637,4.29,4.29,0,0,1,1.6,1.8,6.189,6.189,0,0,1,.589,2.685v1.134a7.693,7.693,0,0,1-.831,3.674A5.734,5.734,0,0,1,68.766-.659,7.4,7.4,0,0,1,65.18.176H65V-2.2l.563-.009Q68.616-2.355,68.959-4.948ZM67.614-6.223A1.442,1.442,0,0,0,69-7.058v-1.23a3.2,3.2,0,0,0-.413-1.819,1.3,1.3,0,0,0-1.116-.589,1.225,1.225,0,0,0-1.046.668,2.968,2.968,0,0,0-.422,1.617,2.661,2.661,0,0,0,.431,1.6A1.378,1.378,0,0,0,67.614-6.223Z" transform="translate(683 1762.5)" fill="#12263f"/>
    <path id="Trazado_119012" data-name="Trazado 119012" d="M-33.42-2.373h5.37V0h-8.455V-12.8h3.085ZM-22.285.176a4.889,4.889,0,0,1-3.542-1.305,4.507,4.507,0,0,1-1.354-3.4v-.246a5.84,5.84,0,0,1,.541-2.575,3.955,3.955,0,0,1,1.578-1.727A4.763,4.763,0,0,1-22.6-9.686a4.117,4.117,0,0,1,3.164,1.244,4.887,4.887,0,0,1,1.16,3.467v1.151h-5.889a2.135,2.135,0,0,0,.694,1.257,2.066,2.066,0,0,0,1.389.457,2.662,2.662,0,0,0,2.2-.984l1.354,1.6A3.784,3.784,0,0,1-20.1-.277,5.3,5.3,0,0,1-22.285.176ZM-22.619-7.4q-1.3,0-1.547,1.723h2.988v-.229a1.467,1.467,0,0,0-.36-1.1A1.434,1.434,0,0,0-22.619-7.4Zm9.22,3.252,1.582-5.361h3.173l-3.876,11.1-.167.4A2.944,2.944,0,0,1-15.6,3.841a4.642,4.642,0,0,1-1.222-.175V1.556h.387a2.026,2.026,0,0,0,.954-.18A1.094,1.094,0,0,0-15,.729L-14.761.1l-3.3-9.605H-14.9ZM3.125,0H.154V-9.457L-2.764-8.6v-2.25L2.852-12.8h.272ZM7.159-6.251,7.941-12.8H15.42v2.3H10.349l-.29,2.542a3.493,3.493,0,0,1,.831-.327A3.79,3.79,0,0,1,11.9-8.42a3.754,3.754,0,0,1,2.931,1.129,4.549,4.549,0,0,1,1.024,3.168A4.541,4.541,0,0,1,15.3-1.894,3.776,3.776,0,0,1,13.759-.36a4.87,4.87,0,0,1-2.347.536,5.24,5.24,0,0,1-2.259-.5A4.052,4.052,0,0,1,7.5-1.682a3.308,3.308,0,0,1-.589-1.954H9.883a1.68,1.68,0,0,0,.448,1.114,1.423,1.423,0,0,0,1.063.412q1.494,0,1.494-2.21,0-2.044-1.828-2.044A1.824,1.824,0,0,0,9.514-5.7ZM26.038-9.378a2.954,2.954,0,0,1-.461,1.644,3.361,3.361,0,0,1-1.27,1.143,3.7,3.7,0,0,1,1.45,1.226,3.164,3.164,0,0,1,.536,1.841A3.349,3.349,0,0,1,25.11-.817a4.909,4.909,0,0,1-3.256.993,5,5,0,0,1-3.287-1,3.325,3.325,0,0,1-1.2-2.7,3.2,3.2,0,0,1,.527-1.819,3.586,3.586,0,0,1,1.494-1.248A3.38,3.38,0,0,1,18.1-7.734a2.934,2.934,0,0,1-.466-1.644,3.284,3.284,0,0,1,1.134-2.637,4.558,4.558,0,0,1,3.059-.967,4.586,4.586,0,0,1,3.076.967A3.284,3.284,0,0,1,26.038-9.378ZM23.322-3.762a1.69,1.69,0,0,0-.409-1.217,1.423,1.423,0,0,0-1.077-.426,1.438,1.438,0,0,0-1.081.426,1.678,1.678,0,0,0-.413,1.217,1.693,1.693,0,0,0,.417,1.208,1.433,1.433,0,0,0,1.094.444,1.377,1.377,0,0,0,1.063-.439A1.723,1.723,0,0,0,23.322-3.762ZM21.828-10.7a1.1,1.1,0,0,0-.91.391,1.7,1.7,0,0,0-.312,1.085,1.8,1.8,0,0,0,.316,1.107,1.092,1.092,0,0,0,.932.422,1.047,1.047,0,0,0,.91-.422,1.856,1.856,0,0,0,.3-1.107,1.7,1.7,0,0,0-.312-1.081A1.109,1.109,0,0,0,21.828-10.7ZM34.4,0H31.425V-9.457L28.507-8.6v-2.25L34.124-12.8H34.4Zm-66.99,20.175a5.809,5.809,0,0,1,.976-3.56,3.211,3.211,0,0,1,2.725-1.3,2.731,2.731,0,0,1,2.145,1V11.5h2.971V25h-2.663l-.149-1.02a2.8,2.8,0,0,1-2.32,1.2,3.205,3.205,0,0,1-2.689-1.3A5.993,5.993,0,0,1-32.594,20.175Zm2.962.185q0,2.531,1.477,2.531a1.458,1.458,0,0,0,1.406-.826V18.443a1.419,1.419,0,0,0-1.389-.844q-1.371,0-1.485,2.215Zm12.138,4.816a4.889,4.889,0,0,1-3.542-1.305,4.507,4.507,0,0,1-1.354-3.4v-.246a5.84,5.84,0,0,1,.541-2.575,3.955,3.955,0,0,1,1.578-1.727,4.763,4.763,0,0,1,2.461-.611,4.117,4.117,0,0,1,3.164,1.244,4.887,4.887,0,0,1,1.16,3.467v1.151h-5.889a2.135,2.135,0,0,0,.694,1.257,2.066,2.066,0,0,0,1.389.457,2.662,2.662,0,0,0,2.2-.984l1.354,1.6a3.784,3.784,0,0,1-1.569,1.217A5.3,5.3,0,0,1-17.495,25.176Zm-.334-7.576q-1.3,0-1.547,1.723h2.988v-.229a1.467,1.467,0,0,0-.36-1.1A1.434,1.434,0,0,0-17.829,17.6ZM1.068,25h-8.93V23.066l4.113-4.324a4.909,4.909,0,0,0,1.521-2.751,1.913,1.913,0,0,0-.36-1.257A1.287,1.287,0,0,0-3.634,14.3a1.3,1.3,0,0,0-1.1.576,2.366,2.366,0,0,0-.422,1.437H-8.125a4.2,4.2,0,0,1,.589-2.175A4.129,4.129,0,0,1-5.9,12.581a4.856,4.856,0,0,1,2.338-.562,4.777,4.777,0,0,1,3.195.958A3.42,3.42,0,0,1,.751,15.728,4,4,0,0,1,.47,17.2,6.456,6.456,0,0,1-.4,18.7a22.029,22.029,0,0,1-1.912,2.1l-1.652,1.907H1.068Zm10.38-5.229a6.11,6.11,0,0,1-1.165,4A4.024,4.024,0,0,1,7,25.176a4.046,4.046,0,0,1-3.3-1.415,6.1,6.1,0,0,1-1.169-3.99V17.433a6.11,6.11,0,0,1,1.165-4,4.034,4.034,0,0,1,3.292-1.406,4.036,4.036,0,0,1,3.3,1.415,6.116,6.116,0,0,1,1.169,4ZM8.486,17.055a4.564,4.564,0,0,0-.36-2.061,1.2,1.2,0,0,0-1.143-.681,1.176,1.176,0,0,0-1.112.633A4.3,4.3,0,0,0,5.5,16.861v3.27a4.6,4.6,0,0,0,.36,2.1A1.209,1.209,0,0,0,7,22.891a1.193,1.193,0,0,0,1.116-.646,4.39,4.39,0,0,0,.369-2.026ZM19.551,25H16.581V15.543l-2.918.853v-2.25L19.279,12.2h.272Zm12.788,0H23.41V23.066l4.113-4.324a4.909,4.909,0,0,0,1.521-2.751,1.913,1.913,0,0,0-.36-1.257,1.287,1.287,0,0,0-1.046-.431,1.3,1.3,0,0,0-1.1.576,2.366,2.366,0,0,0-.422,1.437H23.146a4.2,4.2,0,0,1,.589-2.175,4.129,4.129,0,0,1,1.635-1.56,4.856,4.856,0,0,1,2.338-.562,4.777,4.777,0,0,1,3.195.958,3.42,3.42,0,0,1,1.121,2.751,4,4,0,0,1-.281,1.472,6.456,6.456,0,0,1-.875,1.5,22.029,22.029,0,0,1-1.912,2.1L27.3,22.715h5.036Z" transform="translate(546 2123.832)" fill="#12263f"/>
    <g id="Grupo_81491" data-name="Grupo 81491" transform="translate(0 -39)">
      <path id="Trazado_119014" data-name="Trazado 119014" d="M-55.428,0H-58.5V-12.8h3.076Zm8.745-3.4a1.268,1.268,0,0,0-.479-1.055,5.954,5.954,0,0,0-1.683-.782,16.147,16.147,0,0,1-1.969-.782Q-53.3-7.242-53.3-9.378a3.011,3.011,0,0,1,.62-1.876,4.008,4.008,0,0,1,1.753-1.266,6.823,6.823,0,0,1,2.549-.453,5.969,5.969,0,0,1,2.474.492,3.917,3.917,0,0,1,1.7,1.4A3.661,3.661,0,0,1-43.6-9h-3.076a1.547,1.547,0,0,0-.479-1.213,1.867,1.867,0,0,0-1.3-.431,2.106,2.106,0,0,0-1.305.365,1.119,1.119,0,0,0-.479.927,1.127,1.127,0,0,0,.527.892,6.65,6.65,0,0,0,1.854.826,11.36,11.36,0,0,1,2.18.918,3.663,3.663,0,0,1,2.074,3.3A3.125,3.125,0,0,1-44.864-.782a5.629,5.629,0,0,1-3.472.958,6.888,6.888,0,0,1-2.817-.558,4.247,4.247,0,0,1-1.9-1.529,3.985,3.985,0,0,1-.637-2.237h3.094a1.963,1.963,0,0,0,.532,1.516,2.513,2.513,0,0,0,1.727.488,1.985,1.985,0,0,0,1.208-.33A1.088,1.088,0,0,0-46.683-3.4Zm15.5-2.733a7.546,7.546,0,0,1-.694,3.313A5.132,5.132,0,0,1-33.847-.6,5.494,5.494,0,0,1-36.76.176a5.572,5.572,0,0,1-2.9-.751,5.123,5.123,0,0,1-1.973-2.149,7.329,7.329,0,0,1-.743-3.208v-.721a7.58,7.58,0,0,1,.69-3.318,5.119,5.119,0,0,1,1.978-2.219,5.533,5.533,0,0,1,2.931-.782,5.479,5.479,0,0,1,2.9.773A5.211,5.211,0,0,1-31.9-10a7.362,7.362,0,0,1,.716,3.274Zm-3.138-.536a5.381,5.381,0,0,0-.637-2.9,2.044,2.044,0,0,0-1.824-.989q-2.32,0-2.452,3.48l-.009.94a5.535,5.535,0,0,0,.624,2.892A2.041,2.041,0,0,0-36.76-2.232a2.016,2.016,0,0,0,1.8-.993,5.383,5.383,0,0,0,.642-2.856Zm5.607,7.77h-2.1l4.368-13.9h2.109ZM-19.982,0h-3.076V-12.8h3.076ZM-9.9-5.432h-4.852v3.059h5.73V0h-8.815V-12.8H-9v2.382h-5.748v2.7H-9.9Zm12.489,1.1a4.673,4.673,0,0,1-.721,2.36A4.35,4.35,0,0,1,.018-.387,6.3,6.3,0,0,1-2.7.176,5.025,5.025,0,0,1-6.675-1.468a6.786,6.786,0,0,1-1.45-4.641v-.633a7.746,7.746,0,0,1,.655-3.292,4.961,4.961,0,0,1,1.885-2.18,5.26,5.26,0,0,1,2.848-.769,5.516,5.516,0,0,1,3.744,1.226A4.844,4.844,0,0,1,2.615-8.376H-.461a2.292,2.292,0,0,0-.589-1.679,2.422,2.422,0,0,0-1.687-.51A1.843,1.843,0,0,0-4.425-9.7a5.536,5.536,0,0,0-.562,2.751v.905A6.125,6.125,0,0,0-4.474-3.12,1.882,1.882,0,0,0-2.7-2.241a2.369,2.369,0,0,0,1.626-.5,2.126,2.126,0,0,0,.6-1.591ZM17.275,0H8.345V-1.934l4.113-4.324a4.909,4.909,0,0,0,1.521-2.751,1.913,1.913,0,0,0-.36-1.257,1.287,1.287,0,0,0-1.046-.431,1.3,1.3,0,0,0-1.1.576,2.366,2.366,0,0,0-.422,1.437H8.082a4.2,4.2,0,0,1,.589-2.175,4.129,4.129,0,0,1,1.635-1.56,4.856,4.856,0,0,1,2.338-.562,4.777,4.777,0,0,1,3.195.958,3.42,3.42,0,0,1,1.121,2.751A4,4,0,0,1,16.677-7.8,6.456,6.456,0,0,1,15.8-6.3a22.029,22.029,0,0,1-1.912,2.1L12.239-2.285h5.036ZM27.664-11.215,22.882,0H19.753l4.79-10.512h-6.1V-12.8h9.22ZM38.079-5.229a6.11,6.11,0,0,1-1.165,4A4.024,4.024,0,0,1,33.631.176a4.046,4.046,0,0,1-3.3-1.415,6.1,6.1,0,0,1-1.169-3.99V-7.567a6.11,6.11,0,0,1,1.165-4,4.034,4.034,0,0,1,3.292-1.406,4.036,4.036,0,0,1,3.3,1.415,6.116,6.116,0,0,1,1.169,4ZM35.117-7.945a4.564,4.564,0,0,0-.36-2.061,1.2,1.2,0,0,0-1.143-.681,1.176,1.176,0,0,0-1.112.633,4.3,4.3,0,0,0-.374,1.916v3.27a4.6,4.6,0,0,0,.36,2.1,1.209,1.209,0,0,0,1.143.664,1.193,1.193,0,0,0,1.116-.646,4.39,4.39,0,0,0,.369-2.026ZM48.5-5.229a6.11,6.11,0,0,1-1.165,4A4.024,4.024,0,0,1,44.055.176a4.046,4.046,0,0,1-3.3-1.415,6.1,6.1,0,0,1-1.169-3.99V-7.567a6.11,6.11,0,0,1,1.165-4,4.034,4.034,0,0,1,3.292-1.406,4.036,4.036,0,0,1,3.3,1.415,6.116,6.116,0,0,1,1.169,4ZM45.541-7.945a4.564,4.564,0,0,0-.36-2.061,1.2,1.2,0,0,0-1.143-.681,1.176,1.176,0,0,0-1.112.633,4.3,4.3,0,0,0-.374,1.916v3.27a4.6,4.6,0,0,0,.36,2.1,1.209,1.209,0,0,0,1.143.664,1.193,1.193,0,0,0,1.116-.646,4.39,4.39,0,0,0,.369-2.026ZM58.926-5.229a6.11,6.11,0,0,1-1.165,4A4.024,4.024,0,0,1,54.479.176a4.046,4.046,0,0,1-3.3-1.415,6.1,6.1,0,0,1-1.169-3.99V-7.567a6.11,6.11,0,0,1,1.165-4,4.034,4.034,0,0,1,3.292-1.406,4.036,4.036,0,0,1,3.3,1.415,6.116,6.116,0,0,1,1.169,4ZM55.964-7.945a4.564,4.564,0,0,0-.36-2.061,1.2,1.2,0,0,0-1.143-.681,1.176,1.176,0,0,0-1.112.633,4.3,4.3,0,0,0-.374,1.916v3.27a4.6,4.6,0,0,0,.36,2.1,1.209,1.209,0,0,0,1.143.664A1.193,1.193,0,0,0,55.6-2.755a4.39,4.39,0,0,0,.369-2.026Z" transform="translate(1063 1960.084)" fill="#12263f"/>
      <g id="calidad" transform="translate(1043.501 1887.638)">
        <path id="Trazado_115343" data-name="Trazado 115343" d="M223.039,320.344l0,.008-6.913,3.914,8.657,14.134,1.455-5.431,5.431,1.455Zm0,0" transform="translate(-194.19 -288.503)" fill="#2bbdc4"/>
        <path id="Trazado_115344" data-name="Trazado 115344" d="M23.22,320.977l-7.993,14.017,5.431-1.455,1.455,5.431L30.192,324.8Zm0,0" transform="translate(-13.263 -289.073)" fill="#2bbdc4"/>
        <path id="Trazado_115345" data-name="Trazado 115345" d="M25.941,44.75l-2.365.872a2.009,2.009,0,0,1-2.441-.9l-2.167-3.8-.031-.055a2.022,2.022,0,0,0-1.058-.9L13.751,38.45a2.049,2.049,0,0,1-1.3-2.277l.763-4.38a2.068,2.068,0,0,0-.241-1.378l-2.2-3.852a2.064,2.064,0,0,1,.452-2.589l3.366-2.858a2.051,2.051,0,0,0,.691-1.212l.763-4.321a2.029,2.029,0,0,1,1.99-1.69h4.4a2,2,0,0,0,1.3-.479L27.1,10.495a2,2,0,0,1,2.6,0l3.366,2.919a2.007,2.007,0,0,0,1.3.479h4.394a2.029,2.029,0,0,1,1.99,1.69l.763,4.321a2.059,2.059,0,0,0,.692,1.212l3.366,2.858a2.064,2.064,0,0,1,.451,2.589l-2.2,3.852a2.065,2.065,0,0,0-.24,1.378l.763,4.38a2.047,2.047,0,0,1-1.3,2.277l-4.129,1.522a2.023,2.023,0,0,0-1.054.89l0,.008-2.2,3.852a2.01,2.01,0,0,1-2.441.9l-2.274-.838L29.088,44.1a2,2,0,0,0-1.381,0Zm0,0" transform="translate(-9.013 -9.021)" fill="#ffd86e"/>
        <path id="Trazado_115346" data-name="Trazado 115346" d="M144.789,134l-2.836,2.764.67,3.9-3.506-1.843-3.506,1.843.67-3.9L133.446,134l3.919-.57,1.752-3.551,1.752,3.551Zm0,0" transform="translate(-119.732 -116.973)" fill="#2bbdc4"/>
        <path id="Trazado_115347" data-name="Trazado 115347" d="M101.5,91.871a.994.994,0,1,0-.994-.994A.994.994,0,0,0,101.5,91.871Zm0,0" transform="translate(-90.068 -80.948)" fill="#12263f"/>
        <path id="Trazado_115348" data-name="Trazado 115348" d="M37.869,18.035A3.055,3.055,0,0,0,37.2,14.2l-3.366-2.858a1.067,1.067,0,0,1-.356-.627l-.762-4.319a3.017,3.017,0,0,0-2.969-2.512H25.349a1.009,1.009,0,0,1-.648-.236L21.335.723,21.327.716a2.993,2.993,0,0,0-3.883,0l-.009.007L14.076,3.636a1.013,1.013,0,0,1-.655.243h-4.4A3.018,3.018,0,0,0,6.057,6.389l-.764,4.323a1.057,1.057,0,0,1-.355.624L1.572,14.2A3.054,3.054,0,0,0,.9,18.034l2.2,3.853a1.073,1.073,0,0,1,.125.714l-.763,4.38a3.039,3.039,0,0,0,1.934,3.38l4.13,1.522a1,1,0,0,1,.231.121L1.1,45.429a1,1,0,0,0,1.121,1.452l4.471-1.2,1.2,4.47a.994.994,0,0,0,1.823.235l7.9-13.852,1.425-.525a1.009,1.009,0,0,1,.695,0l1.532.565,8.477,13.84a.994.994,0,0,0,1.808-.262l1.2-4.47,4.47,1.2a1,1,0,0,0,1.1-1.479L30.087,31.959a.966.966,0,0,1,.16-.075l4.128-1.522a3.036,3.036,0,0,0,1.935-3.381l-.763-4.38a1.073,1.073,0,0,1,.125-.714ZM9.184,47.3l-.829-3.1a.994.994,0,0,0-1.218-.7l-3.13.839L9.957,33.91l1.3,2.284a3,3,0,0,0,3.461,1.4Zm26.142-2.988L32.3,43.506a.994.994,0,0,0-1.218.7l-.856,3.2-5.976-9.756a2.992,2.992,0,0,0,3.258-1.454l1.369-2.4ZM33.944,20.9a3.065,3.065,0,0,0-.356,2.041l.763,4.381a1.05,1.05,0,0,1-.664,1.173L29.56,30.018a3.02,3.02,0,0,0-1.5,1.214.959.959,0,0,0-.1.169L25.783,35.21a1.016,1.016,0,0,1-1.234.459l-4.131-1.522a3,3,0,0,0-2.068,0l-4.129,1.522a1.016,1.016,0,0,1-1.235-.459l-2.045-3.584a1,1,0,0,0-.3-.5,3.02,3.02,0,0,0-1.435-1.112L5.082,28.5a1.052,1.052,0,0,1-.663-1.174l.763-4.38A3.063,3.063,0,0,0,4.826,20.9l-2.2-3.853a1.065,1.065,0,0,1,.231-1.339l3.367-2.859a3.05,3.05,0,0,0,1.026-1.8l.763-4.322a1.034,1.034,0,0,1,1.011-.867h4.4a3.007,3.007,0,0,0,1.949-.722l3.362-2.915a1.012,1.012,0,0,1,1.306,0L23.407,5.15a3,3,0,0,0,1.942.716h4.394a1.034,1.034,0,0,1,1.011.869l.763,4.321a3.056,3.056,0,0,0,1.027,1.8L35.91,15.71a1.066,1.066,0,0,1,.232,1.34Zm0,0" transform="translate(0)" fill="#12263f"/>
        <path id="Trazado_115349" data-name="Trazado 115349" d="M73.429,59.746a12.848,12.848,0,0,0-4.944.98.994.994,0,0,0,.761,1.836,10.929,10.929,0,1,1-5.362,4.767.994.994,0,1,0-1.734-.972,12.923,12.923,0,1,0,11.279-6.611Zm0,0" transform="translate(-54.044 -53.807)" fill="#12263f"/>
        <path id="Trazado_115350" data-name="Trazado 115350" d="M126.205,128.105l-.582,3.388a.994.994,0,0,0,1.442,1.048l3.043-1.6,3.043,1.6a.994.994,0,0,0,1.442-1.048l-.582-3.388,2.462-2.4a.994.994,0,0,0-.551-1.7l-3.4-.494L131,120.434a.994.994,0,0,0-1.783,0l-1.521,3.082-3.4.494a.994.994,0,0,0-.551,1.7Zm2.294-2.7a.994.994,0,0,0,.749-.544l.861-1.745.861,1.745a.993.993,0,0,0,.748.544l1.926.28-1.394,1.359a1,1,0,0,0-.286.88l.329,1.918-1.723-.905a.994.994,0,0,0-.925,0l-1.723.905.329-1.918a.994.994,0,0,0-.286-.88l-1.394-1.359Zm0,0" transform="translate(-110.724 -107.963)" fill="#12263f"/>
      </g>
    </g>
    <g id="calidad-2" data-name="calidad" transform="translate(877.501 1689.165)">
      <path id="Trazado_115343-2" data-name="Trazado 115343" d="M223.039,320.344l0,.008-6.913,3.914,8.657,14.134,1.455-5.431,5.431,1.455Zm0,0" transform="translate(-194.19 -288.503)" fill="#2bbdc4"/>
      <path id="Trazado_115344-2" data-name="Trazado 115344" d="M23.22,320.977l-7.993,14.017,5.431-1.455,1.455,5.431L30.192,324.8Zm0,0" transform="translate(-13.263 -289.073)" fill="#2bbdc4"/>
      <path id="Trazado_115345-2" data-name="Trazado 115345" d="M25.941,44.75l-2.365.872a2.009,2.009,0,0,1-2.441-.9l-2.167-3.8-.031-.055a2.022,2.022,0,0,0-1.058-.9L13.751,38.45a2.049,2.049,0,0,1-1.3-2.277l.763-4.38a2.068,2.068,0,0,0-.241-1.378l-2.2-3.852a2.064,2.064,0,0,1,.452-2.589l3.366-2.858a2.051,2.051,0,0,0,.691-1.212l.763-4.321a2.029,2.029,0,0,1,1.99-1.69h4.4a2,2,0,0,0,1.3-.479L27.1,10.495a2,2,0,0,1,2.6,0l3.366,2.919a2.007,2.007,0,0,0,1.3.479h4.394a2.029,2.029,0,0,1,1.99,1.69l.763,4.321a2.059,2.059,0,0,0,.692,1.212l3.366,2.858a2.064,2.064,0,0,1,.451,2.589l-2.2,3.852a2.065,2.065,0,0,0-.24,1.378l.763,4.38a2.047,2.047,0,0,1-1.3,2.277l-4.129,1.522a2.023,2.023,0,0,0-1.054.89l0,.008-2.2,3.852a2.01,2.01,0,0,1-2.441.9l-2.274-.838L29.088,44.1a2,2,0,0,0-1.381,0Zm0,0" transform="translate(-9.013 -9.021)" fill="#ffd86e"/>
      <path id="Trazado_115346-2" data-name="Trazado 115346" d="M144.789,134l-2.836,2.764.67,3.9-3.506-1.843-3.506,1.843.67-3.9L133.446,134l3.919-.57,1.752-3.551,1.752,3.551Zm0,0" transform="translate(-119.732 -116.973)" fill="#2bbdc4"/>
      <path id="Trazado_115347-2" data-name="Trazado 115347" d="M101.5,91.871a.994.994,0,1,0-.994-.994A.994.994,0,0,0,101.5,91.871Zm0,0" transform="translate(-90.068 -80.948)" fill="#12263f"/>
      <path id="Trazado_115348-2" data-name="Trazado 115348" d="M37.869,18.035A3.055,3.055,0,0,0,37.2,14.2l-3.366-2.858a1.067,1.067,0,0,1-.356-.627l-.762-4.319a3.017,3.017,0,0,0-2.969-2.512H25.349a1.009,1.009,0,0,1-.648-.236L21.335.723,21.327.716a2.993,2.993,0,0,0-3.883,0l-.009.007L14.076,3.636a1.013,1.013,0,0,1-.655.243h-4.4A3.018,3.018,0,0,0,6.057,6.389l-.764,4.323a1.057,1.057,0,0,1-.355.624L1.572,14.2A3.054,3.054,0,0,0,.9,18.034l2.2,3.853a1.073,1.073,0,0,1,.125.714l-.763,4.38a3.039,3.039,0,0,0,1.934,3.38l4.13,1.522a1,1,0,0,1,.231.121L1.1,45.429a1,1,0,0,0,1.121,1.452l4.471-1.2,1.2,4.47a.994.994,0,0,0,1.823.235l7.9-13.852,1.425-.525a1.009,1.009,0,0,1,.695,0l1.532.565,8.477,13.84a.994.994,0,0,0,1.808-.262l1.2-4.47,4.47,1.2a1,1,0,0,0,1.1-1.479L30.087,31.959a.966.966,0,0,1,.16-.075l4.128-1.522a3.036,3.036,0,0,0,1.935-3.381l-.763-4.38a1.073,1.073,0,0,1,.125-.714ZM9.184,47.3l-.829-3.1a.994.994,0,0,0-1.218-.7l-3.13.839L9.957,33.91l1.3,2.284a3,3,0,0,0,3.461,1.4Zm26.142-2.988L32.3,43.506a.994.994,0,0,0-1.218.7l-.856,3.2-5.976-9.756a2.992,2.992,0,0,0,3.258-1.454l1.369-2.4ZM33.944,20.9a3.065,3.065,0,0,0-.356,2.041l.763,4.381a1.05,1.05,0,0,1-.664,1.173L29.56,30.018a3.02,3.02,0,0,0-1.5,1.214.959.959,0,0,0-.1.169L25.783,35.21a1.016,1.016,0,0,1-1.234.459l-4.131-1.522a3,3,0,0,0-2.068,0l-4.129,1.522a1.016,1.016,0,0,1-1.235-.459l-2.045-3.584a1,1,0,0,0-.3-.5,3.02,3.02,0,0,0-1.435-1.112L5.082,28.5a1.052,1.052,0,0,1-.663-1.174l.763-4.38A3.063,3.063,0,0,0,4.826,20.9l-2.2-3.853a1.065,1.065,0,0,1,.231-1.339l3.367-2.859a3.05,3.05,0,0,0,1.026-1.8l.763-4.322a1.034,1.034,0,0,1,1.011-.867h4.4a3.007,3.007,0,0,0,1.949-.722l3.362-2.915a1.012,1.012,0,0,1,1.306,0L23.407,5.15a3,3,0,0,0,1.942.716h4.394a1.034,1.034,0,0,1,1.011.869l.763,4.321a3.056,3.056,0,0,0,1.027,1.8L35.91,15.71a1.066,1.066,0,0,1,.232,1.34Zm0,0" transform="translate(0)" fill="#12263f"/>
      <path id="Trazado_115349-2" data-name="Trazado 115349" d="M73.429,59.746a12.848,12.848,0,0,0-4.944.98.994.994,0,0,0,.761,1.836,10.929,10.929,0,1,1-5.362,4.767.994.994,0,1,0-1.734-.972,12.923,12.923,0,1,0,11.279-6.611Zm0,0" transform="translate(-54.044 -53.807)" fill="#12263f"/>
      <path id="Trazado_115350-2" data-name="Trazado 115350" d="M126.205,128.105l-.582,3.388a.994.994,0,0,0,1.442,1.048l3.043-1.6,3.043,1.6a.994.994,0,0,0,1.442-1.048l-.582-3.388,2.462-2.4a.994.994,0,0,0-.551-1.7l-3.4-.494L131,120.434a.994.994,0,0,0-1.783,0l-1.521,3.082-3.4.494a.994.994,0,0,0-.551,1.7Zm2.294-2.7a.994.994,0,0,0,.749-.544l.861-1.745.861,1.745a.993.993,0,0,0,.748.544l1.926.28-1.394,1.359a1,1,0,0,0-.286.88l.329,1.918-1.723-.905a.994.994,0,0,0-.925,0l-1.723.905.329-1.918a.994.994,0,0,0-.286-.88l-1.394-1.359Zm0,0" transform="translate(-110.724 -107.963)" fill="#12263f"/>
    </g>
    <g id="Grupo_81492" data-name="Grupo 81492" transform="translate(8 -37.001)">
      <text id="ISO_27002" data-name="ISO 27002" transform="translate(1043 2161.889)" fill="#12263f" font-size="18" font-family="Roboto-Black, Roboto" font-weight="800"><tspan x="-42.864" y="0">ISO 27002</tspan></text>
      <g id="calidad-3" data-name="calidad" transform="translate(1023.501 2089.442)">
        <path id="Trazado_115343-3" data-name="Trazado 115343" d="M223.039,320.344l0,.008-6.913,3.914,8.657,14.134,1.455-5.431,5.431,1.455Zm0,0" transform="translate(-194.19 -288.503)" fill="#2bbdc4"/>
        <path id="Trazado_115344-3" data-name="Trazado 115344" d="M23.22,320.977l-7.993,14.017,5.431-1.455,1.455,5.431L30.192,324.8Zm0,0" transform="translate(-13.263 -289.073)" fill="#2bbdc4"/>
        <path id="Trazado_115345-3" data-name="Trazado 115345" d="M25.941,44.75l-2.365.872a2.009,2.009,0,0,1-2.441-.9l-2.167-3.8-.031-.055a2.022,2.022,0,0,0-1.058-.9L13.751,38.45a2.049,2.049,0,0,1-1.3-2.277l.763-4.38a2.068,2.068,0,0,0-.241-1.378l-2.2-3.852a2.064,2.064,0,0,1,.452-2.589l3.366-2.858a2.051,2.051,0,0,0,.691-1.212l.763-4.321a2.029,2.029,0,0,1,1.99-1.69h4.4a2,2,0,0,0,1.3-.479L27.1,10.495a2,2,0,0,1,2.6,0l3.366,2.919a2.007,2.007,0,0,0,1.3.479h4.394a2.029,2.029,0,0,1,1.99,1.69l.763,4.321a2.059,2.059,0,0,0,.692,1.212l3.366,2.858a2.064,2.064,0,0,1,.451,2.589l-2.2,3.852a2.065,2.065,0,0,0-.24,1.378l.763,4.38a2.047,2.047,0,0,1-1.3,2.277l-4.129,1.522a2.023,2.023,0,0,0-1.054.89l0,.008-2.2,3.852a2.01,2.01,0,0,1-2.441.9l-2.274-.838L29.088,44.1a2,2,0,0,0-1.381,0Zm0,0" transform="translate(-9.013 -9.021)" fill="#ffd86e"/>
        <path id="Trazado_115346-3" data-name="Trazado 115346" d="M144.789,134l-2.836,2.764.67,3.9-3.506-1.843-3.506,1.843.67-3.9L133.446,134l3.919-.57,1.752-3.551,1.752,3.551Zm0,0" transform="translate(-119.732 -116.973)" fill="#2bbdc4"/>
        <path id="Trazado_115347-3" data-name="Trazado 115347" d="M101.5,91.871a.994.994,0,1,0-.994-.994A.994.994,0,0,0,101.5,91.871Zm0,0" transform="translate(-90.068 -80.948)" fill="#12263f"/>
        <path id="Trazado_115348-3" data-name="Trazado 115348" d="M37.869,18.035A3.055,3.055,0,0,0,37.2,14.2l-3.366-2.858a1.067,1.067,0,0,1-.356-.627l-.762-4.319a3.017,3.017,0,0,0-2.969-2.512H25.349a1.009,1.009,0,0,1-.648-.236L21.335.723,21.327.716a2.993,2.993,0,0,0-3.883,0l-.009.007L14.076,3.636a1.013,1.013,0,0,1-.655.243h-4.4A3.018,3.018,0,0,0,6.057,6.389l-.764,4.323a1.057,1.057,0,0,1-.355.624L1.572,14.2A3.054,3.054,0,0,0,.9,18.034l2.2,3.853a1.073,1.073,0,0,1,.125.714l-.763,4.38a3.039,3.039,0,0,0,1.934,3.38l4.13,1.522a1,1,0,0,1,.231.121L1.1,45.429a1,1,0,0,0,1.121,1.452l4.471-1.2,1.2,4.47a.994.994,0,0,0,1.823.235l7.9-13.852,1.425-.525a1.009,1.009,0,0,1,.695,0l1.532.565,8.477,13.84a.994.994,0,0,0,1.808-.262l1.2-4.47,4.47,1.2a1,1,0,0,0,1.1-1.479L30.087,31.959a.966.966,0,0,1,.16-.075l4.128-1.522a3.036,3.036,0,0,0,1.935-3.381l-.763-4.38a1.073,1.073,0,0,1,.125-.714ZM9.184,47.3l-.829-3.1a.994.994,0,0,0-1.218-.7l-3.13.839L9.957,33.91l1.3,2.284a3,3,0,0,0,3.461,1.4Zm26.142-2.988L32.3,43.506a.994.994,0,0,0-1.218.7l-.856,3.2-5.976-9.756a2.992,2.992,0,0,0,3.258-1.454l1.369-2.4ZM33.944,20.9a3.065,3.065,0,0,0-.356,2.041l.763,4.381a1.05,1.05,0,0,1-.664,1.173L29.56,30.018a3.02,3.02,0,0,0-1.5,1.214.959.959,0,0,0-.1.169L25.783,35.21a1.016,1.016,0,0,1-1.234.459l-4.131-1.522a3,3,0,0,0-2.068,0l-4.129,1.522a1.016,1.016,0,0,1-1.235-.459l-2.045-3.584a1,1,0,0,0-.3-.5,3.02,3.02,0,0,0-1.435-1.112L5.082,28.5a1.052,1.052,0,0,1-.663-1.174l.763-4.38A3.063,3.063,0,0,0,4.826,20.9l-2.2-3.853a1.065,1.065,0,0,1,.231-1.339l3.367-2.859a3.05,3.05,0,0,0,1.026-1.8l.763-4.322a1.034,1.034,0,0,1,1.011-.867h4.4a3.007,3.007,0,0,0,1.949-.722l3.362-2.915a1.012,1.012,0,0,1,1.306,0L23.407,5.15a3,3,0,0,0,1.942.716h4.394a1.034,1.034,0,0,1,1.011.869l.763,4.321a3.056,3.056,0,0,0,1.027,1.8L35.91,15.71a1.066,1.066,0,0,1,.232,1.34Zm0,0" transform="translate(0)" fill="#12263f"/>
        <path id="Trazado_115349-3" data-name="Trazado 115349" d="M73.429,59.746a12.848,12.848,0,0,0-4.944.98.994.994,0,0,0,.761,1.836,10.929,10.929,0,1,1-5.362,4.767.994.994,0,1,0-1.734-.972,12.923,12.923,0,1,0,11.279-6.611Zm0,0" transform="translate(-54.044 -53.807)" fill="#12263f"/>
        <path id="Trazado_115350-3" data-name="Trazado 115350" d="M126.205,128.105l-.582,3.388a.994.994,0,0,0,1.442,1.048l3.043-1.6,3.043,1.6a.994.994,0,0,0,1.442-1.048l-.582-3.388,2.462-2.4a.994.994,0,0,0-.551-1.7l-3.4-.494L131,120.434a.994.994,0,0,0-1.783,0l-1.521,3.082-3.4.494a.994.994,0,0,0-.551,1.7Zm2.294-2.7a.994.994,0,0,0,.749-.544l.861-1.745.861,1.745a.993.993,0,0,0,.748.544l1.926.28-1.394,1.359a1,1,0,0,0-.286.88l.329,1.918-1.723-.905a.994.994,0,0,0-.925,0l-1.723.905.329-1.918a.994.994,0,0,0-.286-.88l-1.394-1.359Zm0,0" transform="translate(-110.724 -107.963)" fill="#12263f"/>
      </g>
    </g>
    <g id="subasta" transform="translate(658 1691.109)">
      <path id="Trazado_115351" data-name="Trazado 115351" d="M383.084,376.569a4.783,4.783,0,0,1,.16,4.858,4.863,4.863,0,0,1-7.716,1.137q-.141-.141-.268-.291l-4.123-4.738,6.228-6.228,4.733,4.128A5.138,5.138,0,0,1,383.084,376.569Z" transform="translate(-335.135 -335.288)" fill="#91552c"/>
      <path id="Trazado_115352" data-name="Trazado 115352" d="M353.589,347.515l-6.228,6.228-2.554-2.935.017-.016,5.83-5.83,0,0Z" transform="translate(-311.359 -311.495)" fill="#57555c"/>
      <path id="Trazado_115353" data-name="Trazado 115353" d="M192.9,19.084a2.91,2.91,0,1,1-4.115,4.116l-8.232-8.232a2.91,2.91,0,1,1,4.116-4.115Z" transform="translate(-162.269 -9.03)" fill="#91552c"/>
      <path id="Trazado_115354" data-name="Trazado 115354" d="M76.087,63.743l-3.412,3.412-.018.017L67.169,72.66l-.017.018L63.74,76.09l-.686-.686-8.232-8.232-.686-.686L66.483,54.14l.686.686L75.4,63.057Z" transform="translate(-48.885 -48.887)" fill="#feb756"/>
      <g id="Grupo_81488" data-name="Grupo 81488" transform="translate(0.97 17.433)">
        <path id="Trazado_115355" data-name="Trazado 115355" d="M190.737,186.625l.686-.686a1.94,1.94,0,0,0-2.726-2.762l-5.523,5.523a1.94,1.94,0,0,0,2.762,2.726l.686-.686,11.734,13.481.017-.016,5.83-5.83,0,0Z" transform="translate(-165.878 -182.344)" fill="#91552c"/>
        <path id="Trazado_115356" data-name="Trazado 115356" d="M35.22,455.864v.97H10v-.97a3.88,3.88,0,0,1,3.88-3.88H31.34A3.88,3.88,0,0,1,35.22,455.864Z" transform="translate(-10 -425.572)" fill="#91552c"/>
        <path id="Trazado_115357" data-name="Trazado 115357" d="M48.914,401.987a2.425,2.425,0,1,1,0,4.85H32.424a2.425,2.425,0,1,1,0-4.85Z" transform="translate(-28.059 -380.424)" fill="#91552c"/>
        <path id="Trazado_115358" data-name="Trazado 115358" d="M23.2,188.788a2.91,2.91,0,1,1-4.116,4.115l-8.231-8.231a2.91,2.91,0,0,1,4.115-4.116Z" transform="translate(-10 -179.705)" fill="#91552c"/>
      </g>
      <path id="Trazado_115359" data-name="Trazado 115359" d="M100.988,171.7a.97.97,0,1,0,1.372,0A.969.969,0,0,0,100.988,171.7Z" transform="translate(-90.935 -154.79)" fill="#12263f"/>
      <path id="Trazado_115360" data-name="Trazado 115360" d="M24.562,397.393a3.4,3.4,0,0,0-2.736-5.406H5.335A3.393,3.393,0,0,0,2.6,397.392a4.854,4.854,0,0,0-2.6,4.3v.97a.97.97,0,0,0,.97.97H26.19a.97.97,0,0,0,.97-.97v-.97A4.854,4.854,0,0,0,24.562,397.393Zm-20.256-3.04a1.445,1.445,0,0,1,1.029-.426h16.49a1.455,1.455,0,1,1,0,2.91H5.335a1.455,1.455,0,0,1-1.029-2.484ZM1.94,401.687a2.913,2.913,0,0,1,2.91-2.91H22.31a2.913,2.913,0,0,1,2.91,2.91Z" transform="translate(0 -353.961)" fill="#12263f"/>
      <path id="Trazado_115361" data-name="Trazado 115361" d="M48.783,40.755a6.108,6.108,0,0,0-1.168-1.342L43.082,35.46a.977.977,0,0,0-.123-.15.967.967,0,0,0-.263-.186l-2.741-2.391L27.267,21.665a2.9,2.9,0,0,0-.852-4.633l1.174-1.174a3.882,3.882,0,0,0,3.746-1,3.879,3.879,0,0,0,0-5.488L23.1,1.138a3.879,3.879,0,0,0-6.49,3.746L4.9,16.595a3.9,3.9,0,0,0-1-.131,3.88,3.88,0,0,0-2.743,6.623l8.231,8.231a3.879,3.879,0,0,0,6.49-3.746L17.048,26.4a2.911,2.911,0,0,0,4.635.85L35.2,42.776a.974.974,0,0,0,.132.164c.017.017.036.033.054.049l4.027,4.627c.1.118.207.234.318.345a5.77,5.77,0,0,0,4.1,1.706,5.955,5.955,0,0,0,.816-.056,5.87,5.87,0,0,0,4.331-3A5.74,5.74,0,0,0,48.783,40.755Zm-13.989-1.4,4.569-4.569,1.465,1.278-4.758,4.758ZM23.059,25.877l2.835-2.835,12,10.47-4.38,4.38ZM18.989,2.51a1.939,1.939,0,0,1,2.744,0l8.231,8.231a1.94,1.94,0,0,1-2.743,2.744L18.989,5.253h0A1.942,1.942,0,0,1,18.989,2.51ZM13.5,29.945a1.943,1.943,0,0,1-2.744,0L2.528,21.715A1.94,1.94,0,0,1,5.27,18.97L13.5,27.2A1.941,1.941,0,0,1,13.5,29.945ZM6.642,17.6,17.617,6.624l8.231,8.231-2.717,2.717L23.1,17.6,17.62,23.084l-.033.035-2.712,2.712Zm13.032,8.516a.97.97,0,0,1-.7-1.644l5.51-5.51a.97.97,0,0,1,1.646.7.961.961,0,0,1-.284.686l-.679.679-.014.014L21.05,25.142l-.006.006-.683.683A.964.964,0,0,1,19.675,26.115Zm27.607,19.55a3.946,3.946,0,0,1-2.9,2.024,3.854,3.854,0,0,1-3.279-1.1c-.075-.074-.146-.152-.213-.231l-.009-.011-3.529-4.055,4.946-4.946,4.05,3.533.009.008a4.176,4.176,0,0,1,.8.921A3.83,3.83,0,0,1,47.282,45.665Z" transform="translate(-0.019)" fill="#12263f"/>
      <path id="Trazado_115362" data-name="Trazado 115362" d="M134.757,100.991a.97.97,0,0,0-1.372,0l-4.116,4.116a.97.97,0,0,0,1.372,1.372l4.116-4.116A.97.97,0,0,0,134.757,100.991Z" transform="translate(-116.473 -90.937)" fill="#12263f"/>
    </g>
    <g id="Grupo_81493" data-name="Grupo 81493" transform="translate(0 -39)">
      <path id="Trazado_119011" data-name="Trazado 119011" d="M-33.42-2.373h5.37V0h-8.455V-12.8h3.085ZM-22.285.176a4.889,4.889,0,0,1-3.542-1.305,4.507,4.507,0,0,1-1.354-3.4v-.246a5.84,5.84,0,0,1,.541-2.575,3.955,3.955,0,0,1,1.578-1.727A4.763,4.763,0,0,1-22.6-9.686a4.117,4.117,0,0,1,3.164,1.244,4.887,4.887,0,0,1,1.16,3.467v1.151h-5.889a2.135,2.135,0,0,0,.694,1.257,2.066,2.066,0,0,0,1.389.457,2.662,2.662,0,0,0,2.2-.984l1.354,1.6A3.784,3.784,0,0,1-20.1-.277,5.3,5.3,0,0,1-22.285.176ZM-22.619-7.4q-1.3,0-1.547,1.723h2.988v-.229a1.467,1.467,0,0,0-.36-1.1A1.434,1.434,0,0,0-22.619-7.4Zm9.22,3.252,1.582-5.361h3.173l-3.876,11.1-.167.4A2.944,2.944,0,0,1-15.6,3.841a4.642,4.642,0,0,1-1.222-.175V1.556h.387a2.026,2.026,0,0,0,.954-.18A1.094,1.094,0,0,0-15,.729L-14.761.1l-3.3-9.605H-14.9ZM3.125,0H.154V-9.457L-2.764-8.6v-2.25L2.852-12.8h.272ZM15.913,0H6.983V-1.934L11.1-6.258a4.909,4.909,0,0,0,1.521-2.751,1.913,1.913,0,0,0-.36-1.257A1.287,1.287,0,0,0,11.21-10.7a1.3,1.3,0,0,0-1.1.576A2.366,2.366,0,0,0,9.69-8.684H6.719a4.2,4.2,0,0,1,.589-2.175,4.129,4.129,0,0,1,1.635-1.56,4.856,4.856,0,0,1,2.338-.562,4.777,4.777,0,0,1,3.195.958A3.42,3.42,0,0,1,15.6-9.272,4,4,0,0,1,15.315-7.8a6.456,6.456,0,0,1-.875,1.5,22.029,22.029,0,0,1-1.912,2.1L10.876-2.285h5.036Zm8.648-12.981v2.329h-.132a4.447,4.447,0,0,0-2.729.8,3.358,3.358,0,0,0-1.314,2.21,3.464,3.464,0,0,1,2.531-.984,3.231,3.231,0,0,1,2.646,1.213,4.892,4.892,0,0,1,.984,3.182A4.48,4.48,0,0,1,25.972-2,4.108,4.108,0,0,1,24.363-.4a4.622,4.622,0,0,1-2.29.576,4.777,4.777,0,0,1-2.435-.62,4.26,4.26,0,0,1-1.67-1.771,5.832,5.832,0,0,1-.615-2.654V-6.056A7.387,7.387,0,0,1,18.2-9.611a6.149,6.149,0,0,1,2.421-2.474,6.923,6.923,0,0,1,3.489-.9ZM21.889-6.363a1.7,1.7,0,0,0-.984.272,1.73,1.73,0,0,0-.589.668v.888q0,2.426,1.679,2.426a1.362,1.362,0,0,0,1.129-.606,2.472,2.472,0,0,0,.453-1.521,2.426,2.426,0,0,0-.461-1.534A1.476,1.476,0,0,0,21.889-6.363Zm13.1-6.618v2.329h-.132a4.447,4.447,0,0,0-2.729.8,3.358,3.358,0,0,0-1.314,2.21,3.464,3.464,0,0,1,2.531-.984,3.231,3.231,0,0,1,2.646,1.213,4.892,4.892,0,0,1,.984,3.182A4.48,4.48,0,0,1,36.4-2,4.108,4.108,0,0,1,34.787-.4,4.622,4.622,0,0,1,32.5.176a4.777,4.777,0,0,1-2.435-.62,4.26,4.26,0,0,1-1.67-1.771,5.832,5.832,0,0,1-.615-2.654V-6.056a7.387,7.387,0,0,1,.848-3.555,6.149,6.149,0,0,1,2.421-2.474,6.923,6.923,0,0,1,3.489-.9ZM32.313-6.363a1.7,1.7,0,0,0-.984.272,1.73,1.73,0,0,0-.589.668v.888q0,2.426,1.679,2.426a1.362,1.362,0,0,0,1.129-.606A2.472,2.472,0,0,0,34-4.236a2.426,2.426,0,0,0-.461-1.534A1.476,1.476,0,0,0,32.313-6.363ZM-32.594,20.175a5.809,5.809,0,0,1,.976-3.56,3.211,3.211,0,0,1,2.725-1.3,2.731,2.731,0,0,1,2.145,1V11.5h2.971V25h-2.663l-.149-1.02a2.8,2.8,0,0,1-2.32,1.2,3.205,3.205,0,0,1-2.689-1.3A5.993,5.993,0,0,1-32.594,20.175Zm2.962.185q0,2.531,1.477,2.531a1.458,1.458,0,0,0,1.406-.826V18.443a1.419,1.419,0,0,0-1.389-.844q-1.371,0-1.485,2.215Zm12.138,4.816a4.889,4.889,0,0,1-3.542-1.305,4.507,4.507,0,0,1-1.354-3.4v-.246a5.84,5.84,0,0,1,.541-2.575,3.955,3.955,0,0,1,1.578-1.727,4.763,4.763,0,0,1,2.461-.611,4.117,4.117,0,0,1,3.164,1.244,4.887,4.887,0,0,1,1.16,3.467v1.151h-5.889a2.135,2.135,0,0,0,.694,1.257,2.066,2.066,0,0,0,1.389.457,2.662,2.662,0,0,0,2.2-.984l1.354,1.6a3.784,3.784,0,0,1-1.569,1.217A5.3,5.3,0,0,1-17.495,25.176Zm-.334-7.576q-1.3,0-1.547,1.723h2.988v-.229a1.467,1.467,0,0,0-.36-1.1A1.434,1.434,0,0,0-17.829,17.6ZM1.068,25h-8.93V23.066l4.113-4.324a4.909,4.909,0,0,0,1.521-2.751,1.913,1.913,0,0,0-.36-1.257A1.287,1.287,0,0,0-3.634,14.3a1.3,1.3,0,0,0-1.1.576,2.366,2.366,0,0,0-.422,1.437H-8.125a4.2,4.2,0,0,1,.589-2.175A4.129,4.129,0,0,1-5.9,12.581a4.856,4.856,0,0,1,2.338-.562,4.777,4.777,0,0,1,3.195.958A3.42,3.42,0,0,1,.751,15.728,4,4,0,0,1,.47,17.2,6.456,6.456,0,0,1-.4,18.7a22.029,22.029,0,0,1-1.912,2.1l-1.652,1.907H1.068Zm10.38-5.229a6.11,6.11,0,0,1-1.165,4A4.024,4.024,0,0,1,7,25.176a4.046,4.046,0,0,1-3.3-1.415,6.1,6.1,0,0,1-1.169-3.99V17.433a6.11,6.11,0,0,1,1.165-4,4.034,4.034,0,0,1,3.292-1.406,4.036,4.036,0,0,1,3.3,1.415,6.116,6.116,0,0,1,1.169,4ZM8.486,17.055a4.564,4.564,0,0,0-.36-2.061,1.2,1.2,0,0,0-1.143-.681,1.176,1.176,0,0,0-1.112.633A4.3,4.3,0,0,0,5.5,16.861v3.27a4.6,4.6,0,0,0,.36,2.1A1.209,1.209,0,0,0,7,22.891a1.193,1.193,0,0,0,1.116-.646,4.39,4.39,0,0,0,.369-2.026Zm13.386,2.716a6.11,6.11,0,0,1-1.165,4,4.024,4.024,0,0,1-3.283,1.406,4.046,4.046,0,0,1-3.3-1.415,6.1,6.1,0,0,1-1.169-3.99V17.433a6.11,6.11,0,0,1,1.165-4,4.034,4.034,0,0,1,3.292-1.406,4.036,4.036,0,0,1,3.3,1.415,6.116,6.116,0,0,1,1.169,4ZM18.91,17.055a4.564,4.564,0,0,0-.36-2.061,1.2,1.2,0,0,0-1.143-.681,1.176,1.176,0,0,0-1.112.633,4.3,4.3,0,0,0-.374,1.916v3.27a4.6,4.6,0,0,0,.36,2.1,1.209,1.209,0,0,0,1.143.664,1.193,1.193,0,0,0,1.116-.646,4.39,4.39,0,0,0,.369-2.026Zm13.131-1.433a2.954,2.954,0,0,1-.461,1.644,3.361,3.361,0,0,1-1.27,1.143,3.7,3.7,0,0,1,1.45,1.226,3.164,3.164,0,0,1,.536,1.841,3.349,3.349,0,0,1-1.182,2.707,4.909,4.909,0,0,1-3.256.993,5,5,0,0,1-3.287-1,3.325,3.325,0,0,1-1.2-2.7,3.2,3.2,0,0,1,.527-1.819,3.586,3.586,0,0,1,1.494-1.248A3.38,3.38,0,0,1,24.1,17.266a2.934,2.934,0,0,1-.466-1.644,3.284,3.284,0,0,1,1.134-2.637,4.558,4.558,0,0,1,3.059-.967,4.586,4.586,0,0,1,3.076.967A3.284,3.284,0,0,1,32.041,15.622Zm-2.716,5.616a1.69,1.69,0,0,0-.409-1.217,1.423,1.423,0,0,0-1.077-.426,1.438,1.438,0,0,0-1.081.426,1.979,1.979,0,0,0,0,2.426,1.433,1.433,0,0,0,1.094.444,1.377,1.377,0,0,0,1.063-.439A1.723,1.723,0,0,0,29.325,21.238ZM27.831,14.3a1.1,1.1,0,0,0-.91.391,1.7,1.7,0,0,0-.312,1.085,1.8,1.8,0,0,0,.316,1.107,1.092,1.092,0,0,0,.932.422,1.047,1.047,0,0,0,.91-.422,1.856,1.856,0,0,0,.3-1.107,1.7,1.7,0,0,0-.312-1.081A1.109,1.109,0,0,0,27.831,14.3Z" transform="translate(537 1949.195)" fill="#12263f"/>
      <g id="subasta-2" data-name="subasta" transform="translate(512 1877.805)">
        <path id="Trazado_115351-2" data-name="Trazado 115351" d="M383.084,376.569a4.783,4.783,0,0,1,.16,4.858,4.863,4.863,0,0,1-7.716,1.137q-.141-.141-.268-.291l-4.123-4.738,6.228-6.228,4.733,4.128A5.138,5.138,0,0,1,383.084,376.569Z" transform="translate(-335.135 -335.288)" fill="#91552c"/>
        <path id="Trazado_115352-2" data-name="Trazado 115352" d="M353.589,347.515l-6.228,6.228-2.554-2.935.017-.016,5.83-5.83,0,0Z" transform="translate(-311.359 -311.495)" fill="#57555c"/>
        <path id="Trazado_115353-2" data-name="Trazado 115353" d="M192.9,19.084a2.91,2.91,0,1,1-4.115,4.116l-8.232-8.232a2.91,2.91,0,1,1,4.116-4.115Z" transform="translate(-162.269 -9.03)" fill="#91552c"/>
        <path id="Trazado_115354-2" data-name="Trazado 115354" d="M76.087,63.743l-3.412,3.412-.018.017L67.169,72.66l-.017.018L63.74,76.09l-.686-.686-8.232-8.232-.686-.686L66.483,54.14l.686.686L75.4,63.057Z" transform="translate(-48.885 -48.887)" fill="#feb756"/>
        <g id="Grupo_81488-2" data-name="Grupo 81488" transform="translate(0.97 17.433)">
          <path id="Trazado_115355-2" data-name="Trazado 115355" d="M190.737,186.625l.686-.686a1.94,1.94,0,0,0-2.726-2.762l-5.523,5.523a1.94,1.94,0,0,0,2.762,2.726l.686-.686,11.734,13.481.017-.016,5.83-5.83,0,0Z" transform="translate(-165.878 -182.344)" fill="#91552c"/>
          <path id="Trazado_115356-2" data-name="Trazado 115356" d="M35.22,455.864v.97H10v-.97a3.88,3.88,0,0,1,3.88-3.88H31.34A3.88,3.88,0,0,1,35.22,455.864Z" transform="translate(-10 -425.572)" fill="#91552c"/>
          <path id="Trazado_115357-2" data-name="Trazado 115357" d="M48.914,401.987a2.425,2.425,0,1,1,0,4.85H32.424a2.425,2.425,0,1,1,0-4.85Z" transform="translate(-28.059 -380.424)" fill="#91552c"/>
          <path id="Trazado_115358-2" data-name="Trazado 115358" d="M23.2,188.788a2.91,2.91,0,1,1-4.116,4.115l-8.231-8.231a2.91,2.91,0,0,1,4.115-4.116Z" transform="translate(-10 -179.705)" fill="#91552c"/>
        </g>
        <path id="Trazado_115359-2" data-name="Trazado 115359" d="M100.988,171.7a.97.97,0,1,0,1.372,0A.969.969,0,0,0,100.988,171.7Z" transform="translate(-90.935 -154.79)" fill="#12263f"/>
        <path id="Trazado_115360-2" data-name="Trazado 115360" d="M24.562,397.393a3.4,3.4,0,0,0-2.736-5.406H5.335A3.393,3.393,0,0,0,2.6,397.392a4.854,4.854,0,0,0-2.6,4.3v.97a.97.97,0,0,0,.97.97H26.19a.97.97,0,0,0,.97-.97v-.97A4.854,4.854,0,0,0,24.562,397.393Zm-20.256-3.04a1.445,1.445,0,0,1,1.029-.426h16.49a1.455,1.455,0,1,1,0,2.91H5.335a1.455,1.455,0,0,1-1.029-2.484ZM1.94,401.687a2.913,2.913,0,0,1,2.91-2.91H22.31a2.913,2.913,0,0,1,2.91,2.91Z" transform="translate(0 -353.961)" fill="#12263f"/>
        <path id="Trazado_115361-2" data-name="Trazado 115361" d="M48.783,40.755a6.108,6.108,0,0,0-1.168-1.342L43.082,35.46a.977.977,0,0,0-.123-.15.967.967,0,0,0-.263-.186l-2.741-2.391L27.267,21.665a2.9,2.9,0,0,0-.852-4.633l1.174-1.174a3.882,3.882,0,0,0,3.746-1,3.879,3.879,0,0,0,0-5.488L23.1,1.138a3.879,3.879,0,0,0-6.49,3.746L4.9,16.595a3.9,3.9,0,0,0-1-.131,3.88,3.88,0,0,0-2.743,6.623l8.231,8.231a3.879,3.879,0,0,0,6.49-3.746L17.048,26.4a2.911,2.911,0,0,0,4.635.85L35.2,42.776a.974.974,0,0,0,.132.164c.017.017.036.033.054.049l4.027,4.627c.1.118.207.234.318.345a5.77,5.77,0,0,0,4.1,1.706,5.955,5.955,0,0,0,.816-.056,5.87,5.87,0,0,0,4.331-3A5.74,5.74,0,0,0,48.783,40.755Zm-13.989-1.4,4.569-4.569,1.465,1.278-4.758,4.758ZM23.059,25.877l2.835-2.835,12,10.47-4.38,4.38ZM18.989,2.51a1.939,1.939,0,0,1,2.744,0l8.231,8.231a1.94,1.94,0,0,1-2.743,2.744L18.989,5.253h0A1.942,1.942,0,0,1,18.989,2.51ZM13.5,29.945a1.943,1.943,0,0,1-2.744,0L2.528,21.715A1.94,1.94,0,0,1,5.27,18.97L13.5,27.2A1.941,1.941,0,0,1,13.5,29.945ZM6.642,17.6,17.617,6.624l8.231,8.231-2.717,2.717L23.1,17.6,17.62,23.084l-.033.035-2.712,2.712Zm13.032,8.516a.97.97,0,0,1-.7-1.644l5.51-5.51a.97.97,0,0,1,1.646.7.961.961,0,0,1-.284.686l-.679.679-.014.014L21.05,25.142l-.006.006-.683.683A.964.964,0,0,1,19.675,26.115Zm27.607,19.55a3.946,3.946,0,0,1-2.9,2.024,3.854,3.854,0,0,1-3.279-1.1c-.075-.074-.146-.152-.213-.231l-.009-.011-3.529-4.055,4.946-4.946,4.05,3.533.009.008a4.176,4.176,0,0,1,.8.921A3.83,3.83,0,0,1,47.282,45.665Z" transform="translate(-0.019)" fill="#12263f"/>
        <path id="Trazado_115362-2" data-name="Trazado 115362" d="M134.757,100.991a.97.97,0,0,0-1.372,0l-4.116,4.116a.97.97,0,0,0,1.372,1.372l4.116-4.116A.97.97,0,0,0,134.757,100.991Z" transform="translate(-116.473 -90.937)" fill="#12263f"/>
      </g>
    </g>
    <g id="subasta-3" data-name="subasta" transform="translate(513 2052.441)">
      <path id="Trazado_115351-3" data-name="Trazado 115351" d="M383.084,376.569a4.783,4.783,0,0,1,.16,4.858,4.863,4.863,0,0,1-7.716,1.137q-.141-.141-.268-.291l-4.123-4.738,6.228-6.228,4.733,4.128A5.138,5.138,0,0,1,383.084,376.569Z" transform="translate(-335.135 -335.288)" fill="#91552c"/>
      <path id="Trazado_115352-3" data-name="Trazado 115352" d="M353.589,347.515l-6.228,6.228-2.554-2.935.017-.016,5.83-5.83,0,0Z" transform="translate(-311.359 -311.495)" fill="#57555c"/>
      <path id="Trazado_115353-3" data-name="Trazado 115353" d="M192.9,19.084a2.91,2.91,0,1,1-4.115,4.116l-8.232-8.232a2.91,2.91,0,1,1,4.116-4.115Z" transform="translate(-162.269 -9.03)" fill="#91552c"/>
      <path id="Trazado_115354-3" data-name="Trazado 115354" d="M76.087,63.743l-3.412,3.412-.018.017L67.169,72.66l-.017.018L63.74,76.09l-.686-.686-8.232-8.232-.686-.686L66.483,54.14l.686.686L75.4,63.057Z" transform="translate(-48.885 -48.887)" fill="#feb756"/>
      <g id="Grupo_81488-3" data-name="Grupo 81488" transform="translate(0.97 17.433)">
        <path id="Trazado_115355-3" data-name="Trazado 115355" d="M190.737,186.625l.686-.686a1.94,1.94,0,0,0-2.726-2.762l-5.523,5.523a1.94,1.94,0,0,0,2.762,2.726l.686-.686,11.734,13.481.017-.016,5.83-5.83,0,0Z" transform="translate(-165.878 -182.344)" fill="#91552c"/>
        <path id="Trazado_115356-3" data-name="Trazado 115356" d="M35.22,455.864v.97H10v-.97a3.88,3.88,0,0,1,3.88-3.88H31.34A3.88,3.88,0,0,1,35.22,455.864Z" transform="translate(-10 -425.572)" fill="#91552c"/>
        <path id="Trazado_115357-3" data-name="Trazado 115357" d="M48.914,401.987a2.425,2.425,0,1,1,0,4.85H32.424a2.425,2.425,0,1,1,0-4.85Z" transform="translate(-28.059 -380.424)" fill="#91552c"/>
        <path id="Trazado_115358-3" data-name="Trazado 115358" d="M23.2,188.788a2.91,2.91,0,1,1-4.116,4.115l-8.231-8.231a2.91,2.91,0,0,1,4.115-4.116Z" transform="translate(-10 -179.705)" fill="#91552c"/>
      </g>
      <path id="Trazado_115359-3" data-name="Trazado 115359" d="M100.988,171.7a.97.97,0,1,0,1.372,0A.969.969,0,0,0,100.988,171.7Z" transform="translate(-90.935 -154.79)" fill="#12263f"/>
      <path id="Trazado_115360-3" data-name="Trazado 115360" d="M24.562,397.393a3.4,3.4,0,0,0-2.736-5.406H5.335A3.393,3.393,0,0,0,2.6,397.392a4.854,4.854,0,0,0-2.6,4.3v.97a.97.97,0,0,0,.97.97H26.19a.97.97,0,0,0,.97-.97v-.97A4.854,4.854,0,0,0,24.562,397.393Zm-20.256-3.04a1.445,1.445,0,0,1,1.029-.426h16.49a1.455,1.455,0,1,1,0,2.91H5.335a1.455,1.455,0,0,1-1.029-2.484ZM1.94,401.687a2.913,2.913,0,0,1,2.91-2.91H22.31a2.913,2.913,0,0,1,2.91,2.91Z" transform="translate(0 -353.961)" fill="#12263f"/>
      <path id="Trazado_115361-3" data-name="Trazado 115361" d="M48.783,40.755a6.108,6.108,0,0,0-1.168-1.342L43.082,35.46a.977.977,0,0,0-.123-.15.967.967,0,0,0-.263-.186l-2.741-2.391L27.267,21.665a2.9,2.9,0,0,0-.852-4.633l1.174-1.174a3.882,3.882,0,0,0,3.746-1,3.879,3.879,0,0,0,0-5.488L23.1,1.138a3.879,3.879,0,0,0-6.49,3.746L4.9,16.595a3.9,3.9,0,0,0-1-.131,3.88,3.88,0,0,0-2.743,6.623l8.231,8.231a3.879,3.879,0,0,0,6.49-3.746L17.048,26.4a2.911,2.911,0,0,0,4.635.85L35.2,42.776a.974.974,0,0,0,.132.164c.017.017.036.033.054.049l4.027,4.627c.1.118.207.234.318.345a5.77,5.77,0,0,0,4.1,1.706,5.955,5.955,0,0,0,.816-.056,5.87,5.87,0,0,0,4.331-3A5.74,5.74,0,0,0,48.783,40.755Zm-13.989-1.4,4.569-4.569,1.465,1.278-4.758,4.758ZM23.059,25.877l2.835-2.835,12,10.47-4.38,4.38ZM18.989,2.51a1.939,1.939,0,0,1,2.744,0l8.231,8.231a1.94,1.94,0,0,1-2.743,2.744L18.989,5.253h0A1.942,1.942,0,0,1,18.989,2.51ZM13.5,29.945a1.943,1.943,0,0,1-2.744,0L2.528,21.715A1.94,1.94,0,0,1,5.27,18.97L13.5,27.2A1.941,1.941,0,0,1,13.5,29.945ZM6.642,17.6,17.617,6.624l8.231,8.231-2.717,2.717L23.1,17.6,17.62,23.084l-.033.035-2.712,2.712Zm13.032,8.516a.97.97,0,0,1-.7-1.644l5.51-5.51a.97.97,0,0,1,1.646.7.961.961,0,0,1-.284.686l-.679.679-.014.014L21.05,25.142l-.006.006-.683.683A.964.964,0,0,1,19.675,26.115Zm27.607,19.55a3.946,3.946,0,0,1-2.9,2.024,3.854,3.854,0,0,1-3.279-1.1c-.075-.074-.146-.152-.213-.231l-.009-.011-3.529-4.055,4.946-4.946,4.05,3.533.009.008a4.176,4.176,0,0,1,.8.921A3.83,3.83,0,0,1,47.282,45.665Z" transform="translate(-0.019)" fill="#12263f"/>
      <path id="Trazado_115362-3" data-name="Trazado 115362" d="M134.757,100.991a.97.97,0,0,0-1.372,0l-4.116,4.116a.97.97,0,0,0,1.372,1.372l4.116-4.116A.97.97,0,0,0,134.757,100.991Z" transform="translate(-116.473 -90.937)" fill="#12263f"/>
    </g>
  </g>
</svg>
