<svg xmlns="http://www.w3.org/2000/svg" width="64" height="64" viewBox="0 0 64 64"><g transform="translate(-244.908 -331.895)"><g transform="translate(244.908 331.895)"><circle cx="32" cy="32" r="32" transform="translate(0 0)" fill="#ffcd38"/></g><path d="M303.831,345.02a3.84,3.84,0,1,0-4.922,3.681V366a4.22,4.22,0,0,1-4.214,4.215h-1.374A4.22,4.22,0,0,1,289.1,366v-5.036H287V366a6.323,6.323,0,0,0,6.317,6.316h1.374A6.323,6.323,0,0,0,301.01,366V348.717A3.843,3.843,0,0,0,303.831,345.02Zm-3.84,1.738a1.738,1.738,0,1,1,1.739-1.738A1.74,1.74,0,0,1,299.992,346.758Z" transform="translate(-12.617 -2.976)" fill="#ff6d6d"/><g transform="translate(259.089 353.791)"><path d="M294.962,390.219a16.641,16.641,0,1,0-3.559,3.42l5.583,2.36S295.928,392.9,294.962,390.219Z" transform="translate(-265.158 -363.439)" fill="#1b59ed"/><path d="M300.777,382.538a16.564,16.564,0,0,0-4.046-10.866A19.628,19.628,0,0,1,273.016,394.9a16.621,16.621,0,0,0,20.743,1.209l5.583,2.36s-1.059-3.1-2.025-5.78A16.552,16.552,0,0,0,300.777,382.538Z" transform="translate(-267.513 -365.906)" fill="#8b77e8" opacity="0.4" style="mix-blend-mode:multiply;isolation:isolate"/></g><g transform="translate(274.387 357.989)"><path d="M293.321,380.785A6.323,6.323,0,0,1,287,374.469v-5.036h2.1v5.036a4.22,4.22,0,0,0,4.216,4.215Z" transform="translate(-287.004 -369.433)" fill="#ff6d6d"/></g><g transform="translate(273.252 355.233)"><path d="M285.382,369.285l2.186-3.787,2.187,3.787Z" transform="translate(-285.382 -365.498)" fill="#ff6d6d"/></g></g></svg>