<svg xmlns="http://www.w3.org/2000/svg" width="65.283" height="65.283" viewBox="0 0 65.283 65.283"><g transform="translate(-57.083 -332.311)"><circle cx="32.642" cy="32.642" r="32.642" transform="translate(57.083 332.311)" fill="#ffcd38"/><g transform="translate(62.024 364.37)"><path d="M121.225,384.784A7.223,7.223,0,0,1,114,392.006H71.147a7.223,7.223,0,0,1-7.223-7.223h0a7.223,7.223,0,0,1,7.223-7.223H114a7.223,7.223,0,0,1,7.223,7.223Z" transform="translate(-63.924 -377.561)" fill="#1b59ed"/><g transform="translate(3.26 4.143)"><path d="M72.45,386.368l1.965,1.107-.512.907-2-1.172.016,2.246h-.99l.017-2.246-2,1.172-.512-.907,1.981-1.107-1.981-1.089.512-.925,2,1.173-.017-2.23h.99l-.016,2.23,2-1.173.512.925Z" transform="translate(-68.438 -383.297)" fill="#fff"/><path d="M88.184,386.368l1.965,1.107-.512.907-2-1.172.017,2.246h-.99l.016-2.246-2,1.172-.512-.907,1.982-1.107-1.982-1.089.512-.925,2,1.173-.016-2.23h.99l-.017,2.23,2-1.173.512.925Z" transform="translate(-72.808 -383.297)" fill="#fff"/><path d="M103.919,386.368l1.965,1.107-.512.907-2-1.172.016,2.246h-.99l.016-2.246-2,1.172-.512-.907,1.981-1.107-1.981-1.089.512-.925,2,1.173-.016-2.23h.99l-.016,2.23,2-1.173.512.925Z" transform="translate(-77.178 -383.297)" fill="#fff"/><path d="M119.653,386.368l1.965,1.107-.512.907-2-1.172.016,2.246h-.99l.017-2.246-2,1.172-.512-.907,1.981-1.107-1.981-1.089.512-.925,2,1.173-.017-2.23h.99l-.016,2.23,2-1.173.512.925Z" transform="translate(-81.548 -383.297)" fill="#fff"/><g transform="translate(45.458)"><path d="M135.387,386.368l1.965,1.107-.512.907-2-1.172.017,2.246h-.99l.016-2.246-2,1.172-.511-.907,1.981-1.107-1.981-1.089.511-.925,2,1.173-.016-2.23h.99l-.017,2.23,2-1.173.512.925Z" transform="translate(-131.376 -383.297)" fill="#fff"/></g></g></g><path d="M108.2,350.555a6.95,6.95,0,0,0-6.786,5.5H77.6V364.9h2.889v-5.959H82.84v2.81H85.73v-2.81h15.687a6.94,6.94,0,1,0,6.786-8.386Zm0,10.992a4.052,4.052,0,1,1,4.052-4.051A4.057,4.057,0,0,1,108.2,361.547Z" transform="translate(-5.699 -5.691)" fill="#1b59ed"/></g></svg>