<svg xmlns="http://www.w3.org/2000/svg" width="61.283" height="61.283" viewBox="0 0 61.283 61.283"><g transform="translate(-57.022 -47.667)"><circle cx="30.642" cy="30.642" r="30.642" transform="translate(57.022 47.667)" fill="#ffcd38"/><g transform="translate(77.56 61.219)"><line x2="14.184" transform="translate(8.345 22.12)" fill="#fff"/><rect width="30.874" height="22.194" rx="1" fill="#fff"/><rect width="27.281" height="18.015" transform="translate(1.796 2.089)" fill="#1b59ed"/><g transform="translate(10.987 6.647)"><path d="M113.326,82.3a4.45,4.45,0,1,1-4.449-4.449A4.449,4.449,0,0,1,113.326,82.3Z" transform="translate(-104.426 -77.85)" fill="#38dbcf"/><g transform="translate(2.064 2.226)"><path d="M109.438,86.2l-1.873-1.54.754-.917.884.727,2.272-3.234.971.682Z" transform="translate(-107.565 -81.235)" fill="#fff"/></g></g><rect width="6.023" height="4.553" transform="translate(12.425 21.078)" fill="#fff"/><rect width="26.624" height="1.951" transform="translate(2.125 25.631)" fill="#fff"/></g><g transform="translate(67.135 72.204)"><rect width="16.182" height="24.421" rx="2" fill="#fff"/><rect width="12.71" height="18.322" transform="translate(1.736 2.962)" fill="#1b59ed"/><g transform="translate(4.274 8.394)"><path d="M86,101.027a3.817,3.817,0,1,1-3.817-3.817A3.816,3.816,0,0,1,86,101.027Z" transform="translate(-78.367 -97.21)" fill="#38dbcf"/><g transform="translate(1.771 1.91)"><path d="M82.666,104.372,81.06,103.05l.647-.786.757.624,1.948-2.774.832.585Z" transform="translate(-81.06 -100.114)" fill="#fff"/></g></g><path d="M84.557,119.164a.806.806,0,0,1-.806.806h0a.806.806,0,0,1-.806-.806h0a.806.806,0,0,1,.806-.806h0a.806.806,0,0,1,.806.806Z" transform="translate(-75.661 -96.057)" fill="#8b77e8" opacity="0.5"/></g></g></svg>