<svg xmlns="http://www.w3.org/2000/svg" width="925" height="446.973" viewBox="0 0 925 446.973">
  <g id="Grupo_83624" data-name="Grupo 83624" transform="translate(-285 -857)">
    <rect id="Rectángulo_34339" data-name="Rectángulo 34339" width="315" height="71" rx="10" transform="translate(285 1018)" fill="#1b59ed"/>
    <rect id="Rectángulo_34340" data-name="Rectángulo 34340" width="230" height="71" rx="10" transform="translate(685 896)" fill="#a4bdf8"/>
    <rect id="Rectángulo_34341" data-name="Rectángulo 34341" width="230" height="71" rx="10" transform="translate(685 1018)" fill="#a4bdf8"/>
    <rect id="Rectángulo_34342" data-name="Rectángulo 34342" width="230" height="71" rx="10" transform="translate(685 1135)" fill="#a4bdf8"/>
    <rect id="Rectángulo_34349" data-name="Rectángulo 34349" width="210" height="43" rx="10" transform="translate(971 895)" fill="#ffdbdb"/>
    <rect id="Rectángulo_34352" data-name="Rectángulo 34352" width="210" height="43" rx="10" transform="translate(971 1018)" fill="#ffdbdb"/>
    <rect id="Rectángulo_34355" data-name="Rectángulo 34355" width="210" height="43" rx="10" transform="translate(971 1135)" fill="#ffdbdb"/>
    <rect id="Rectángulo_34350" data-name="Rectángulo 34350" width="210" height="43" rx="10" transform="translate(988 909)" fill="#ffb6b6"/>
    <rect id="Rectángulo_34353" data-name="Rectángulo 34353" width="210" height="43" rx="10" transform="translate(988 1032)" fill="#ffb6b6"/>
    <rect id="Rectángulo_34356" data-name="Rectángulo 34356" width="210" height="43" rx="10" transform="translate(988 1149)" fill="#ffb6b6"/>
    <rect id="Rectángulo_34351" data-name="Rectángulo 34351" width="210" height="43" rx="10" transform="translate(1000 930)" fill="#ff9292"/>
    <rect id="Rectángulo_34354" data-name="Rectángulo 34354" width="210" height="43" rx="10" transform="translate(1000 1053)" fill="#ff9292"/>
    <rect id="Rectángulo_34357" data-name="Rectángulo 34357" width="210" height="43" rx="10" transform="translate(1000 1170)" fill="#ff9292"/>
    <path id="Trazado_118993" data-name="Trazado 118993" d="M0,122,85,0" transform="translate(600 932)" fill="none" stroke="#1b59ed" stroke-width="2"/>
    <line id="Línea_153" data-name="Línea 153" x1="85" y1="124" transform="translate(600 1054)" fill="none" stroke="#1b59ed" stroke-width="2"/>
    <line id="Línea_154" data-name="Línea 154" x1="85" transform="translate(600 1054)" fill="none" stroke="#1b59ed" stroke-width="2"/>
    <line id="Línea_155" data-name="Línea 155" y1="13" x2="56" transform="translate(915 917)" fill="none" stroke="#1b59ed" stroke-width="2"/>
    <line id="Línea_160" data-name="Línea 160" y1="13" x2="56" transform="translate(915 1040)" fill="none" stroke="#1b59ed" stroke-width="2"/>
    <line id="Línea_163" data-name="Línea 163" y1="13" x2="56" transform="translate(915 1157)" fill="none" stroke="#1b59ed" stroke-width="2"/>
    <line id="Línea_156" data-name="Línea 156" x1="73" y1="2" transform="translate(915.5 930.5)" fill="none" stroke="#1b59ed" stroke-width="2"/>
    <line id="Línea_159" data-name="Línea 159" x1="73" y1="2" transform="translate(915.5 1053.5)" fill="none" stroke="#1b59ed" stroke-width="2"/>
    <line id="Línea_162" data-name="Línea 162" x1="73" y1="2" transform="translate(915.5 1170.5)" fill="none" stroke="#1b59ed" stroke-width="2"/>
    <line id="Línea_157" data-name="Línea 157" x1="85" y1="22" transform="translate(915 930)" fill="none" stroke="#1b59ed" stroke-width="2"/>
    <line id="Línea_158" data-name="Línea 158" x1="85" y1="22" transform="translate(915 1053)" fill="none" stroke="#1b59ed" stroke-width="2"/>
    <line id="Línea_161" data-name="Línea 161" x1="85" y1="22" transform="translate(915 1170)" fill="none" stroke="#1b59ed" stroke-width="2"/>
    <line id="Línea_150" data-name="Línea 150" y2="394" transform="translate(653.5 859.5)" fill="none" stroke="#abdcff" stroke-linecap="round" stroke-width="5"/>
    <line id="Línea_151" data-name="Línea 151" y2="394" transform="translate(941.5 859.5)" fill="none" stroke="#abdcff" stroke-linecap="round" stroke-width="5"/>
    <path id="Trazado_119018" data-name="Trazado 119018" d="M-101.927,0H-104.9V-13.5h2.971Zm1.45-4.843a5.613,5.613,0,0,1,.554-2.536,3.96,3.96,0,0,1,1.591-1.709,4.791,4.791,0,0,1,2.435-.6,4.373,4.373,0,0,1,3.366,1.323,5.076,5.076,0,0,1,1.23,3.6v.105a4.925,4.925,0,0,1-1.235,3.529A4.384,4.384,0,0,1-95.88.176a4.434,4.434,0,0,1-3.261-1.217,4.761,4.761,0,0,1-1.327-3.3Zm2.962.185A3.538,3.538,0,0,0-97.1-2.725a1.376,1.376,0,0,0,1.222.615q1.582,0,1.617-2.435v-.3q0-2.558-1.635-2.558-1.485,0-1.608,2.206Zm17.7-5.757h-3.841V0h-3.085V-10.415H-90.51V-12.8h10.7Zm11.039,3.586a8.273,8.273,0,0,0-.9-.088,2.233,2.233,0,0,0-1.986.9L-72.729,0h-2.892l1.652-9.51,2.7-.009-.22,1.248a2.64,2.64,0,0,1,2.2-1.441,4.144,4.144,0,0,1,.9.123Zm4.57,7a4.421,4.421,0,0,1-2.272-.6,3.793,3.793,0,0,1-1.507-1.652,4.44,4.44,0,0,1-.4-2.333l.026-.246a5.829,5.829,0,0,1,1.63-3.713,4.51,4.51,0,0,1,3.415-1.314,3.678,3.678,0,0,1,2.092.621A3.468,3.468,0,0,1-59.95-7.4a5.1,5.1,0,0,1,.264,2.381l-.167,1.206h-5.66A1.854,1.854,0,0,0-65.092-2.6a1.549,1.549,0,0,0,1.178.492,2.993,2.993,0,0,0,2.259-.967l1.213,1.6a3.578,3.578,0,0,1-1.5,1.2,5.263,5.263,0,0,1-2.1.451Zm.7-7.576a1.487,1.487,0,0,0-1.068.385,3.229,3.229,0,0,0-.787,1.347h2.892l.053-.254a1.929,1.929,0,0,0,.018-.577A1.017,1.017,0,0,0-63.5-7.4ZM-58.7,0l1.292-7.453h-1.336l.352-2.057,1.336-.009.114-.835a3.881,3.881,0,0,1,1.213-2.417,3.937,3.937,0,0,1,2.769-.932,8.524,8.524,0,0,1,1.433.194l-.22,2.2a2.8,2.8,0,0,0-.686-.105,1.8,1.8,0,0,0-1.059.293,1.311,1.311,0,0,0-.532.844l-.132.77h1.8l-.352,2.057h-1.8L-55.8,0ZM-48.19.176a4.421,4.421,0,0,1-2.272-.6A3.793,3.793,0,0,1-51.97-2.079a4.44,4.44,0,0,1-.4-2.333l.026-.246a5.829,5.829,0,0,1,1.63-3.713A4.51,4.51,0,0,1-47.3-9.686a3.678,3.678,0,0,1,2.092.621A3.468,3.468,0,0,1-43.937-7.4a5.1,5.1,0,0,1,.264,2.381l-.167,1.206H-49.5A1.854,1.854,0,0,0-49.078-2.6a1.549,1.549,0,0,0,1.178.492,2.993,2.993,0,0,0,2.259-.967l1.213,1.6a3.578,3.578,0,0,1-1.5,1.2,5.263,5.263,0,0,1-2.1.451Zm.7-7.576a1.487,1.487,0,0,0-1.068.385,3.229,3.229,0,0,0-.787,1.347h2.892l.053-.254A1.929,1.929,0,0,0-46.38-6.5,1.017,1.017,0,0,0-47.487-7.4Zm11.03.571a8.273,8.273,0,0,0-.9-.088,2.233,2.233,0,0,0-1.986.9L-40.412,0H-43.3l1.652-9.51,2.7-.009-.22,1.248a2.64,2.64,0,0,1,2.2-1.441,4.144,4.144,0,0,1,.9.123Zm4.57,7a4.421,4.421,0,0,1-2.272-.6,3.793,3.793,0,0,1-1.507-1.652,4.44,4.44,0,0,1-.4-2.333l.026-.246a5.829,5.829,0,0,1,1.63-3.713A4.51,4.51,0,0,1-31-9.686a3.678,3.678,0,0,1,2.092.621A3.468,3.468,0,0,1-27.633-7.4a5.1,5.1,0,0,1,.264,2.381l-.167,1.206H-33.2A1.854,1.854,0,0,0-32.774-2.6a1.549,1.549,0,0,0,1.178.492,2.993,2.993,0,0,0,2.259-.967l1.213,1.6a3.578,3.578,0,0,1-1.5,1.2,5.263,5.263,0,0,1-2.1.451Zm.7-7.576a1.487,1.487,0,0,0-1.068.385,3.229,3.229,0,0,0-.787,1.347h2.892l.053-.254a1.929,1.929,0,0,0,.018-.577A1.017,1.017,0,0,0-31.184-7.4Zm8.455-2.118-.2,1.143A3.38,3.38,0,0,1-20.18-9.694a2.27,2.27,0,0,1,1.964.98,4.1,4.1,0,0,1,.47,2.729l-1,5.985h-2.9l1.011-6.01a3.108,3.108,0,0,0,.018-.563q-.062-.836-.984-.836a1.807,1.807,0,0,0-1.4.678L-24.187,0h-2.892l1.652-9.51Zm10.046,7.409a1.244,1.244,0,0,0,.976-.345,1.717,1.717,0,0,0,.448-.938L-8.552-3.4a3.559,3.559,0,0,1-.62,1.872A3.745,3.745,0,0,1-10.7-.25a4.521,4.521,0,0,1-2.061.426,3.57,3.57,0,0,1-2.927-1.367,4.726,4.726,0,0,1-.835-3.441l.026-.211A6.371,6.371,0,0,1-15.688-7.4a4.626,4.626,0,0,1,1.709-1.718,4.433,4.433,0,0,1,2.369-.571A3.536,3.536,0,0,1-8.987-8.626,3.755,3.755,0,0,1-8.06-5.862l-2.707-.009q.044-1.5-1.081-1.529-1.529-.053-1.758,2.567l-.079.893-.009.333Q-13.693-2.136-12.683-2.109ZM-3.2.176a4.421,4.421,0,0,1-2.272-.6A3.793,3.793,0,0,1-6.979-2.079a4.44,4.44,0,0,1-.4-2.333l.026-.246a5.829,5.829,0,0,1,1.63-3.713A4.51,4.51,0,0,1-2.312-9.686,3.678,3.678,0,0,1-.22-9.065,3.468,3.468,0,0,1,1.055-7.4,5.1,5.1,0,0,1,1.318-5.02L1.151-3.814h-5.66A1.854,1.854,0,0,0-4.087-2.6a1.549,1.549,0,0,0,1.178.492A2.993,2.993,0,0,0-.65-3.076l1.213,1.6a3.578,3.578,0,0,1-1.5,1.2,5.263,5.263,0,0,1-2.1.451ZM-2.5-7.4a1.487,1.487,0,0,0-1.068.385,3.229,3.229,0,0,0-.787,1.347h2.892l.053-.254A1.929,1.929,0,0,0-1.389-6.5,1.017,1.017,0,0,0-2.5-7.4Zm16.251,5H9.668L8.534,0H5.221L12-12.8h2.83L17.191,0H14.063ZM10.793-4.772h2.654l-.562-4.412ZM24.952-6.829a8.273,8.273,0,0,0-.9-.088,2.233,2.233,0,0,0-1.986.9L21,0H18.105l1.652-9.51,2.7-.009-.22,1.248a2.64,2.64,0,0,1,2.2-1.441,4.144,4.144,0,0,1,.9.123Zm4.078,4.72a1.244,1.244,0,0,0,.976-.345,1.717,1.717,0,0,0,.448-.938L33.161-3.4a3.559,3.559,0,0,1-.62,1.872A3.745,3.745,0,0,1,31.012-.25a4.521,4.521,0,0,1-2.061.426,3.57,3.57,0,0,1-2.927-1.367,4.726,4.726,0,0,1-.835-3.441l.026-.211A6.371,6.371,0,0,1,26.024-7.4a4.626,4.626,0,0,1,1.709-1.718A4.433,4.433,0,0,1,30.1-9.686a3.536,3.536,0,0,1,2.624,1.059,3.755,3.755,0,0,1,.927,2.764l-2.707-.009q.044-1.5-1.081-1.529-1.529-.053-1.758,2.567l-.079.893-.009.333Q28.02-2.136,29.03-2.109Zm8.938-6.363a3.107,3.107,0,0,1,2.452-1.222,2.472,2.472,0,0,1,2.123,1.046,3.981,3.981,0,0,1,.5,2.742L42.056,0H39.164l.993-5.948a3.079,3.079,0,0,0,.018-.563.878.878,0,0,0-.967-.9,1.873,1.873,0,0,0-1.389.572L36.606,0H33.715l2.347-13.5h2.892ZM46.775,0h-2.9l1.652-9.51h2.9Zm-.993-11.909a1.341,1.341,0,0,1,.453-1.072,1.625,1.625,0,0,1,1.138-.431,1.678,1.678,0,0,1,1.129.387,1.318,1.318,0,0,1,.47,1.011,1.344,1.344,0,0,1-.448,1.077,1.63,1.63,0,0,1-1.143.426,1.7,1.7,0,0,1-1.121-.382A1.3,1.3,0,0,1,45.782-11.909Zm8.253.035L53.622-9.51h1.521l-.36,2.057H53.262l-.738,4.368a1.164,1.164,0,0,0,.057.677q.119.229.593.246a6.873,6.873,0,0,0,.756-.044L53.719-.062a4.673,4.673,0,0,1-1.556.22A2.563,2.563,0,0,1,50.15-.633a2.7,2.7,0,0,1-.545-2.1l.773-4.72H49.2l.352-2.057H50.73l.413-2.364ZM59.423.176a4.421,4.421,0,0,1-2.272-.6,3.793,3.793,0,0,1-1.507-1.652,4.44,4.44,0,0,1-.4-2.333l.026-.246A5.829,5.829,0,0,1,56.9-8.372a4.51,4.51,0,0,1,3.415-1.314,3.678,3.678,0,0,1,2.092.621A3.468,3.468,0,0,1,63.677-7.4,5.1,5.1,0,0,1,63.94-5.02l-.167,1.206h-5.66A1.854,1.854,0,0,0,58.535-2.6a1.549,1.549,0,0,0,1.178.492,2.993,2.993,0,0,0,2.259-.967l1.213,1.6a3.578,3.578,0,0,1-1.5,1.2,5.263,5.263,0,0,1-2.1.451Zm.7-7.576a1.487,1.487,0,0,0-1.068.385,3.229,3.229,0,0,0-.787,1.347h2.892l.053-.254a1.929,1.929,0,0,0,.018-.577A1.017,1.017,0,0,0,60.126-7.4ZM68.7-2.109a1.244,1.244,0,0,0,.976-.345,1.717,1.717,0,0,0,.448-.938L72.826-3.4a3.559,3.559,0,0,1-.62,1.872A3.745,3.745,0,0,1,70.677-.25a4.521,4.521,0,0,1-2.061.426,3.57,3.57,0,0,1-2.927-1.367,4.726,4.726,0,0,1-.835-3.441l.026-.211A6.371,6.371,0,0,1,65.689-7.4,4.626,4.626,0,0,1,67.4-9.114a4.433,4.433,0,0,1,2.369-.571,3.536,3.536,0,0,1,2.624,1.059,3.755,3.755,0,0,1,.927,2.764l-2.707-.009q.044-1.5-1.081-1.529Q68-7.453,67.772-4.834l-.079.893-.009.333Q67.685-2.136,68.7-2.109Zm10.178-9.765L78.46-9.51H79.98l-.36,2.057H78.1l-.738,4.368a1.164,1.164,0,0,0,.057.677q.119.229.593.246a6.873,6.873,0,0,0,.756-.044L78.557-.062A4.673,4.673,0,0,1,77,.158a2.563,2.563,0,0,1-2.013-.791,2.7,2.7,0,0,1-.545-2.1l.773-4.72H74.039l.352-2.057h1.178l.413-2.364ZM85.412-1.037A3.148,3.148,0,0,1,82.846.185a2.492,2.492,0,0,1-2.1-.976,3.6,3.6,0,0,1-.549-2.566L81.22-9.51h2.892L83.065-3.315a2.064,2.064,0,0,0,0,.466.766.766,0,0,0,.853.748,1.868,1.868,0,0,0,1.556-.722L86.651-9.51h2.909L87.908,0H85.219ZM96.328-6.829a8.273,8.273,0,0,0-.9-.088,2.233,2.233,0,0,0-1.986.9L92.373,0H89.481l1.652-9.51,2.7-.009-.22,1.248a2.64,2.64,0,0,1,2.2-1.441,4.144,4.144,0,0,1,.9.123Zm4.57,7a4.421,4.421,0,0,1-2.272-.6,3.793,3.793,0,0,1-1.507-1.652,4.44,4.44,0,0,1-.4-2.333l.026-.246a5.829,5.829,0,0,1,1.63-3.713,4.51,4.51,0,0,1,3.415-1.314,3.678,3.678,0,0,1,2.092.621A3.468,3.468,0,0,1,105.152-7.4a5.1,5.1,0,0,1,.264,2.381l-.167,1.206h-5.66a1.854,1.854,0,0,0,.422,1.213,1.549,1.549,0,0,0,1.178.492,2.993,2.993,0,0,0,2.259-.967l1.213,1.6a3.578,3.578,0,0,1-1.5,1.2,5.263,5.263,0,0,1-2.1.451Zm.7-7.576a1.487,1.487,0,0,0-1.068.385,3.229,3.229,0,0,0-.787,1.347h2.892l.053-.254a1.929,1.929,0,0,0,.018-.577A1.017,1.017,0,0,0,101.6-7.4Z" transform="translate(443 1060)" fill="#fff"/>
    <path id="Trazado_119025" data-name="Trazado 119025" d="M-99.721-1.573a4.607,4.607,0,0,1-2.1,1.305,9.143,9.143,0,0,1-3.059.435A4.642,4.642,0,0,1-107.6-.642a4.3,4.3,0,0,1-1.582-2.206,7.18,7.18,0,0,1-.255-3.19l.07-.527a8.122,8.122,0,0,1,2.1-4.72,5.412,5.412,0,0,1,4.144-1.7,4.66,4.66,0,0,1,3.3,1.151A4.722,4.722,0,0,1-98.543-8.6l-2.883-.009a2.348,2.348,0,0,0-.505-1.5,1.727,1.727,0,0,0-1.261-.5,2.336,2.336,0,0,0-2,.953,6.049,6.049,0,0,0-1.081,2.849,11.228,11.228,0,0,0-.176,2.458q.132,2.116,1.907,2.142a3.225,3.225,0,0,0,1.881-.519l.4-2h-2.083l.369-2.118h5.089ZM-93.744.176a4.421,4.421,0,0,1-2.272-.6,3.793,3.793,0,0,1-1.507-1.652,4.44,4.44,0,0,1-.4-2.333l.026-.246a5.829,5.829,0,0,1,1.63-3.713,4.51,4.51,0,0,1,3.415-1.314,3.678,3.678,0,0,1,2.092.621A3.468,3.468,0,0,1-89.49-7.4a5.1,5.1,0,0,1,.264,2.381l-.167,1.206h-5.66A1.854,1.854,0,0,0-94.632-2.6a1.549,1.549,0,0,0,1.178.492A2.993,2.993,0,0,0-91.2-3.076l1.213,1.6a3.578,3.578,0,0,1-1.5,1.2,5.263,5.263,0,0,1-2.1.451Zm.7-7.576a1.487,1.487,0,0,0-1.068.385A3.229,3.229,0,0,0-94.9-5.669H-92l.053-.254a1.929,1.929,0,0,0,.018-.577A1.017,1.017,0,0,0-93.041-7.4Zm8.455-2.118-.2,1.143a3.38,3.38,0,0,1,2.751-1.318,2.27,2.27,0,0,1,1.964.98,4.1,4.1,0,0,1,.47,2.729L-80.6,0h-2.9l1.011-6.01a3.108,3.108,0,0,0,.018-.563q-.062-.836-.984-.836a1.807,1.807,0,0,0-1.4.678L-86.045,0h-2.892l1.652-9.51ZM-74.215.176a4.421,4.421,0,0,1-2.272-.6,3.793,3.793,0,0,1-1.507-1.652,4.44,4.44,0,0,1-.4-2.333l.026-.246a5.829,5.829,0,0,1,1.63-3.713,4.51,4.51,0,0,1,3.415-1.314,3.678,3.678,0,0,1,2.092.621A3.468,3.468,0,0,1-69.961-7.4,5.1,5.1,0,0,1-69.7-5.02l-.167,1.206h-5.66A1.854,1.854,0,0,0-75.1-2.6a1.549,1.549,0,0,0,1.178.492,2.993,2.993,0,0,0,2.259-.967l1.213,1.6a3.578,3.578,0,0,1-1.5,1.2,5.263,5.263,0,0,1-2.1.451Zm.7-7.576a1.487,1.487,0,0,0-1.068.385,3.229,3.229,0,0,0-.787,1.347h2.892l.053-.254A1.929,1.929,0,0,0-72.4-6.5,1.017,1.017,0,0,0-73.512-7.4Zm11.03.571a8.273,8.273,0,0,0-.9-.088,2.233,2.233,0,0,0-1.986.9L-66.437,0h-2.892l1.652-9.51,2.7-.009-.22,1.248A2.64,2.64,0,0,1-63-9.712a4.144,4.144,0,0,1,.9.123ZM-59.59,0h-2.9l1.652-9.51h2.9Zm-.993-11.909a1.341,1.341,0,0,1,.453-1.072,1.625,1.625,0,0,1,1.138-.431,1.678,1.678,0,0,1,1.129.387,1.318,1.318,0,0,1,.47,1.011,1.344,1.344,0,0,1-.448,1.077,1.63,1.63,0,0,1-1.143.426,1.7,1.7,0,0,1-1.121-.382A1.3,1.3,0,0,1-60.583-11.909Zm7.233,9.8a1.244,1.244,0,0,0,.976-.345,1.717,1.717,0,0,0,.448-.938l2.707-.009a3.559,3.559,0,0,1-.62,1.872A3.745,3.745,0,0,1-51.368-.25a4.521,4.521,0,0,1-2.061.426,3.57,3.57,0,0,1-2.927-1.367,4.726,4.726,0,0,1-.835-3.441l.026-.211A6.371,6.371,0,0,1-56.355-7.4a4.626,4.626,0,0,1,1.709-1.718,4.433,4.433,0,0,1,2.369-.571,3.536,3.536,0,0,1,2.624,1.059,3.755,3.755,0,0,1,.927,2.764l-2.707-.009q.044-1.5-1.081-1.529-1.529-.053-1.758,2.567l-.079.893-.009.333Q-54.36-2.136-53.35-2.109Zm14.792-2.417h-1.67L-41.019,0h-3.006l2.215-12.8,4.518.009a4.964,4.964,0,0,1,3.344,1.014A3.155,3.155,0,0,1-32.9-9a4.129,4.129,0,0,1-.8,2.3,4.708,4.708,0,0,1-1.969,1.436L-33.943-.15V0h-3.208ZM-39.823-6.9l1.758.018a2.215,2.215,0,0,0,1.252-.352,1.94,1.94,0,0,0,.76-.965,2.268,2.268,0,0,0,.132-1.185,1.18,1.18,0,0,0-1.248-1.031l-2.039-.009Zm14.792,4.5h-4.087L-30.252,0h-3.313l6.776-12.8h2.83L-21.595,0h-3.129Zm-2.962-2.373h2.654L-25.9-9.185Zm18.431-9.36.448,1.494a8.35,8.35,0,0,0-2.654,3.507,19.043,19.043,0,0,0-1.248,5.871l-.044.861q-.132,3.595,1.547,4.9l-.633,1.459a4.8,4.8,0,0,1-1.793-1.586A7.037,7.037,0,0,1-14.994-.193a12.928,12.928,0,0,1-.272-3.146,17.29,17.29,0,0,1,.809-4.72,12.029,12.029,0,0,1,1.978-3.858A6.848,6.848,0,0,1-9.562-14.133Zm4.975,2.259L-5-9.51H-3.48l-.36,2.057H-5.361L-6.1-3.085a1.164,1.164,0,0,0,.057.677q.119.229.593.246a6.873,6.873,0,0,0,.756-.044L-4.9-.062A4.673,4.673,0,0,1-6.46.158,2.563,2.563,0,0,1-8.473-.633a2.7,2.7,0,0,1-.545-2.1l.773-4.72H-9.422L-9.07-9.51h1.178l.413-2.364Zm4.843,3.4A3.107,3.107,0,0,1,2.707-9.694,2.472,2.472,0,0,1,4.83-8.648a3.981,3.981,0,0,1,.5,2.742L4.342,0H1.45l.993-5.948a3.079,3.079,0,0,0,.018-.563.878.878,0,0,0-.967-.9,1.873,1.873,0,0,0-1.389.572L-1.107,0H-4l2.347-13.5H1.239ZM9.062,0h-2.9L7.813-9.51h2.9ZM8.068-11.909a1.341,1.341,0,0,1,.453-1.072,1.625,1.625,0,0,1,1.138-.431,1.678,1.678,0,0,1,1.129.387,1.318,1.318,0,0,1,.47,1.011,1.344,1.344,0,0,1-.448,1.077,1.63,1.63,0,0,1-1.143.426,1.7,1.7,0,0,1-1.121-.382A1.3,1.3,0,0,1,8.068-11.909ZM16.26-2.725q.114-.58-.9-.87l-.624-.158A4.806,4.806,0,0,1,12.5-4.887a2.244,2.244,0,0,1-.668-1.731,2.758,2.758,0,0,1,1.217-2.228,4.633,4.633,0,0,1,2.861-.839,4.292,4.292,0,0,1,2.72.853,2.781,2.781,0,0,1,1.059,2.25L16.8-6.592q.035-1.125-.993-1.125a1.417,1.417,0,0,0-.817.259,1.007,1.007,0,0,0-.448.69q-.149.712,1.257.976a7.3,7.3,0,0,1,1.89.672,2.821,2.821,0,0,1,1.02.945,2.35,2.35,0,0,1,.325,1.354,2.541,2.541,0,0,1-.562,1.538A3.642,3.642,0,0,1,16.923-.2a5.557,5.557,0,0,1-2.2.378A4.469,4.469,0,0,1,12.81-.255,3.408,3.408,0,0,1,11.43-1.4a2.979,2.979,0,0,1-.514-1.666l2.689.018A1.111,1.111,0,0,0,14.871-1.8a1.661,1.661,0,0,0,.914-.242A1.045,1.045,0,0,0,16.26-2.725Zm8.587-2.048a6.917,6.917,0,0,1,1.371-3.6,3.4,3.4,0,0,1,2.865-1.31A2.592,2.592,0,0,1,31.1-8.666l.923-4.834h2.9L32.581,0H30.006l.123-1.028A2.968,2.968,0,0,1,27.765.185,2.62,2.62,0,0,1,25.616-.831a4.476,4.476,0,0,1-.831-2.676,8.231,8.231,0,0,1,.035-1.081Zm2.883.2a6.9,6.9,0,0,0-.062.984q0,1.459.984,1.485a1.844,1.844,0,0,0,1.521-.817l.65-3.647a1.171,1.171,0,0,0-1.16-.835,1.478,1.478,0,0,0-1.305.7A4.507,4.507,0,0,0,27.729-4.57ZM39.823-9.686a3.994,3.994,0,0,1,2.206.637A3.59,3.59,0,0,1,43.4-7.321a5.33,5.33,0,0,1,.312,2.461l-.018.193a5.636,5.636,0,0,1-1.626,3.533,4.575,4.575,0,0,1-3.41,1.31,3.977,3.977,0,0,1-2.188-.628A3.612,3.612,0,0,1,35.1-2.162a5.179,5.179,0,0,1-.321-2.443,5.863,5.863,0,0,1,1.6-3.727A4.547,4.547,0,0,1,39.823-9.686ZM37.67-4.6l-.026.518q-.123,1.957,1.2,1.992,1.705.053,1.978-2.764l.035-.8a2.155,2.155,0,0,0-.294-1.259,1.073,1.073,0,0,0-.918-.487,1.512,1.512,0,0,0-1.314.654A4.278,4.278,0,0,0,37.67-4.6ZM48.577-2.109a1.244,1.244,0,0,0,.976-.345A1.717,1.717,0,0,0,50-3.393L52.708-3.4a3.559,3.559,0,0,1-.62,1.872A3.745,3.745,0,0,1,50.559-.25,4.521,4.521,0,0,1,48.5.176a3.57,3.57,0,0,1-2.927-1.367,4.726,4.726,0,0,1-.835-3.441l.026-.211A6.371,6.371,0,0,1,45.571-7.4a4.626,4.626,0,0,1,1.709-1.718,4.433,4.433,0,0,1,2.369-.571,3.536,3.536,0,0,1,2.624,1.059A3.755,3.755,0,0,1,53.2-5.862l-2.707-.009q.044-1.5-1.081-1.529-1.529-.053-1.758,2.567l-.079.893-.009.333Q47.566-2.136,48.577-2.109ZM59.212-1.037A3.148,3.148,0,0,1,56.646.185a2.492,2.492,0,0,1-2.1-.976,3.6,3.6,0,0,1-.549-2.566L55.02-9.51h2.892L56.865-3.315a2.064,2.064,0,0,0,0,.466.766.766,0,0,0,.853.748,1.868,1.868,0,0,0,1.556-.722L60.451-9.51H63.36L61.708,0H59.019Zm8.411-8.481L67.43-8.376a3.414,3.414,0,0,1,2.777-1.31,2.509,2.509,0,0,1,1.415.4,1.843,1.843,0,0,1,.738,1.028,3.619,3.619,0,0,1,2.892-1.433,2.241,2.241,0,0,1,1.956.989,4.117,4.117,0,0,1,.461,2.711L76.676,0h-2.9l1.011-5.987.035-.518q0-.869-.817-.9a1.872,1.872,0,0,0-1.424.781L71.429,0h-2.9l1-5.969.035-.527q0-.9-.817-.9a1.86,1.86,0,0,0-1.406.781L66.173,0H63.281l1.652-9.51ZM83.118.176a4.421,4.421,0,0,1-2.272-.6,3.793,3.793,0,0,1-1.507-1.652,4.44,4.44,0,0,1-.4-2.333l.026-.246a5.829,5.829,0,0,1,1.63-3.713,4.51,4.51,0,0,1,3.415-1.314,3.678,3.678,0,0,1,2.092.621A3.468,3.468,0,0,1,87.372-7.4a5.1,5.1,0,0,1,.264,2.381l-.167,1.206h-5.66A1.854,1.854,0,0,0,82.23-2.6a1.549,1.549,0,0,0,1.178.492,2.993,2.993,0,0,0,2.259-.967l1.213,1.6a3.578,3.578,0,0,1-1.5,1.2,5.263,5.263,0,0,1-2.1.451Zm.7-7.576a1.487,1.487,0,0,0-1.068.385,3.229,3.229,0,0,0-.787,1.347h2.892l.053-.254a1.929,1.929,0,0,0,.018-.577A1.017,1.017,0,0,0,83.821-7.4Zm8.455-2.118-.2,1.143a3.38,3.38,0,0,1,2.751-1.318,2.27,2.27,0,0,1,1.964.98,4.1,4.1,0,0,1,.47,2.729L96.258,0h-2.9l1.011-6.01a3.108,3.108,0,0,0,.018-.563q-.062-.836-.984-.836a1.807,1.807,0,0,0-1.4.678L90.817,0H87.926l1.652-9.51Zm11.065-2.355-.413,2.364h1.521l-.36,2.057h-1.521l-.738,4.368a1.164,1.164,0,0,0,.057.677q.119.229.593.246a6.873,6.873,0,0,0,.756-.044l-.211,2.145a4.673,4.673,0,0,1-1.556.22,2.563,2.563,0,0,1-2.013-.791,2.7,2.7,0,0,1-.545-2.1l.773-4.72H98.508l.352-2.057h1.178l.413-2.364ZM109.415-5a14.98,14.98,0,0,1-1.1,4A10.938,10.938,0,0,1,106.3,2.167a6.909,6.909,0,0,1-2.632,1.806l-.448-1.494a8.651,8.651,0,0,0,2.659-3.542,18.733,18.733,0,0,0,1.244-5.845l.053-.861q.088-3.612-1.556-4.887l.642-1.459a5.14,5.14,0,0,1,2.373,2.492,10.339,10.339,0,0,1,.914,4.232l.009.554a14.818,14.818,0,0,1-.114,1.591Z" transform="translate(443 1300)" fill="#12263f"/>
    <path id="Trazado_119026" data-name="Trazado 119026" d="M-109.305-4.359a4.614,4.614,0,0,1-.883,2.391A5,5,0,0,1-112.21-.36a6.259,6.259,0,0,1-2.711.536,4.215,4.215,0,0,1-3.155-1.292A5.193,5.193,0,0,1-119.333-4.5a11.02,11.02,0,0,1,.312-3.1,8.2,8.2,0,0,1,1.274-2.922,5.855,5.855,0,0,1,2.083-1.863,5.407,5.407,0,0,1,2.624-.593,4.577,4.577,0,0,1,3.309,1.257,4.92,4.92,0,0,1,1.323,3.366l-3-.009a2.465,2.465,0,0,0-.422-1.67,1.852,1.852,0,0,0-1.389-.536q-2.373-.079-2.892,3.691a20.283,20.283,0,0,0-.237,2.435q-.044,2.162,1.6,2.224a2.348,2.348,0,0,0,1.7-.523,2.615,2.615,0,0,0,.809-1.578Zm6.24-5.326a3.994,3.994,0,0,1,2.206.637,3.59,3.59,0,0,1,1.367,1.727A5.33,5.33,0,0,1-99.18-4.86l-.018.193a5.636,5.636,0,0,1-1.626,3.533,4.575,4.575,0,0,1-3.41,1.31,3.977,3.977,0,0,1-2.188-.628,3.612,3.612,0,0,1-1.367-1.709,5.179,5.179,0,0,1-.321-2.443,5.863,5.863,0,0,1,1.6-3.727A4.547,4.547,0,0,1-103.065-9.686ZM-105.218-4.6l-.026.518q-.123,1.957,1.2,1.992,1.705.053,1.978-2.764l.035-.8a2.155,2.155,0,0,0-.294-1.259,1.073,1.073,0,0,0-.918-.487,1.512,1.512,0,0,0-1.314.654A4.278,4.278,0,0,0-105.218-4.6Zm10.793-4.917-.2,1.143a3.38,3.38,0,0,1,2.751-1.318,2.27,2.27,0,0,1,1.964.98,4.1,4.1,0,0,1,.47,2.729l-1,5.985h-2.9l1.011-6.01a3.108,3.108,0,0,0,.018-.563q-.062-.836-.984-.836a1.807,1.807,0,0,0-1.4.678L-95.884,0h-2.892l1.652-9.51Zm11.065-2.355-.413,2.364h1.521l-.36,2.057h-1.521l-.738,4.368a1.164,1.164,0,0,0,.057.677q.119.229.593.246a6.873,6.873,0,0,0,.756-.044l-.211,2.145a4.673,4.673,0,0,1-1.556.22,2.563,2.563,0,0,1-2.013-.791,2.7,2.7,0,0,1-.545-2.1l.773-4.72h-1.178l.352-2.057h1.178l.413-2.364ZM-77.972.176a4.421,4.421,0,0,1-2.272-.6,3.793,3.793,0,0,1-1.507-1.652,4.44,4.44,0,0,1-.4-2.333l.026-.246A5.829,5.829,0,0,1-80.5-8.372a4.51,4.51,0,0,1,3.415-1.314,3.678,3.678,0,0,1,2.092.621A3.468,3.468,0,0,1-73.718-7.4a5.1,5.1,0,0,1,.264,2.381l-.167,1.206h-5.66A1.854,1.854,0,0,0-78.86-2.6a1.549,1.549,0,0,0,1.178.492,2.993,2.993,0,0,0,2.259-.967l1.213,1.6a3.578,3.578,0,0,1-1.5,1.2,5.263,5.263,0,0,1-2.1.451Zm.7-7.576a1.487,1.487,0,0,0-1.068.385,3.229,3.229,0,0,0-.787,1.347h2.892l.053-.254a1.929,1.929,0,0,0,.018-.577A1.017,1.017,0,0,0-77.269-7.4Zm9.009.492,1.749-2.6h3.129l-3.243,4.764L-64.885,0h-2.883l-1-2.795L-70.625,0h-3.164l3.41-5.01-1.661-4.5h2.909Zm9.65-4.966-.413,2.364H-57.5l-.36,2.057h-1.521l-.738,4.368a1.164,1.164,0,0,0,.057.677q.119.229.593.246a6.873,6.873,0,0,0,.756-.044l-.211,2.145a4.673,4.673,0,0,1-1.556.22,2.563,2.563,0,0,1-2.013-.791,2.7,2.7,0,0,1-.545-2.1l.773-4.72h-1.178l.352-2.057h1.178l.413-2.364Zm10.459,9.149q.114-.58-.9-.87l-.624-.158a4.806,4.806,0,0,1-2.241-1.134,2.244,2.244,0,0,1-.668-1.731,2.758,2.758,0,0,1,1.217-2.228A4.633,4.633,0,0,1-48.5-9.686a4.292,4.292,0,0,1,2.72.853,2.781,2.781,0,0,1,1.059,2.25l-2.883-.009q.035-1.125-.993-1.125a1.417,1.417,0,0,0-.817.259,1.007,1.007,0,0,0-.448.69q-.149.712,1.257.976a7.3,7.3,0,0,1,1.89.672,2.821,2.821,0,0,1,1.02.945,2.35,2.35,0,0,1,.325,1.354,2.541,2.541,0,0,1-.562,1.538A3.642,3.642,0,0,1-47.487-.2a5.557,5.557,0,0,1-2.2.378A4.469,4.469,0,0,1-51.6-.255,3.408,3.408,0,0,1-52.98-1.4a2.979,2.979,0,0,1-.514-1.666l2.689.018A1.111,1.111,0,0,0-49.54-1.8a1.661,1.661,0,0,0,.914-.242A1.045,1.045,0,0,0-48.151-2.725Zm13.069-2.021a7.9,7.9,0,0,1-.782,2.659A4.348,4.348,0,0,1-37.345-.356a3.417,3.417,0,0,1-1.973.541A2.584,2.584,0,0,1-41.339-.8L-42.2,3.656h-2.892L-42.807-9.51l2.672-.009-.149.905a2.8,2.8,0,0,1,2.259-1.072,2.662,2.662,0,0,1,2.167.993,4.388,4.388,0,0,1,.831,2.663A10.274,10.274,0,0,1-35.082-4.746Zm-2.812-1.178q-.044-1.45-.984-1.477a1.7,1.7,0,0,0-1.521.747l-.677,3.771a1.173,1.173,0,0,0,1.213.782q1.538.026,1.89-2.646Q-37.894-5.59-37.894-5.924Zm8.06,6.1a4.421,4.421,0,0,1-2.272-.6,3.793,3.793,0,0,1-1.507-1.652,4.44,4.44,0,0,1-.4-2.333l.026-.246a5.829,5.829,0,0,1,1.63-3.713,4.51,4.51,0,0,1,3.415-1.314,3.678,3.678,0,0,1,2.092.621A3.468,3.468,0,0,1-25.581-7.4a5.1,5.1,0,0,1,.264,2.381l-.167,1.206h-5.66A1.854,1.854,0,0,0-30.722-2.6a1.549,1.549,0,0,0,1.178.492,2.993,2.993,0,0,0,2.259-.967l1.213,1.6a3.578,3.578,0,0,1-1.5,1.2,5.263,5.263,0,0,1-2.1.451Zm.7-7.576a1.487,1.487,0,0,0-1.068.385,3.229,3.229,0,0,0-.787,1.347h2.892l.053-.254a1.929,1.929,0,0,0,.018-.577A1.017,1.017,0,0,0-29.131-7.4Zm8.569,5.291a1.244,1.244,0,0,0,.976-.345,1.717,1.717,0,0,0,.448-.938l2.707-.009a3.559,3.559,0,0,1-.62,1.872A3.745,3.745,0,0,1-18.58-.25a4.521,4.521,0,0,1-2.061.426,3.57,3.57,0,0,1-2.927-1.367A4.726,4.726,0,0,1-24.4-4.632l.026-.211A6.371,6.371,0,0,1-23.568-7.4a4.626,4.626,0,0,1,1.709-1.718,4.433,4.433,0,0,1,2.369-.571,3.536,3.536,0,0,1,2.624,1.059,3.755,3.755,0,0,1,.927,2.764l-2.707-.009q.044-1.5-1.081-1.529-1.529-.053-1.758,2.567l-.079.893-.009.333Q-21.573-2.136-20.562-2.109ZM-12.757,0h-2.9l1.652-9.51h2.9Zm-.993-11.909a1.341,1.341,0,0,1,.453-1.072,1.625,1.625,0,0,1,1.138-.431,1.678,1.678,0,0,1,1.129.387,1.318,1.318,0,0,1,.47,1.011,1.344,1.344,0,0,1-.448,1.077,1.63,1.63,0,0,1-1.143.426,1.7,1.7,0,0,1-1.121-.382A1.3,1.3,0,0,1-13.75-11.909ZM-10.252,0-8.96-7.453H-10.3l.36-2.057,1.248.009.07-.36a4.662,4.662,0,0,1,1.639-2.856A5.076,5.076,0,0,1-3.7-13.693a13.29,13.29,0,0,1,3.023.5l-.615,2.355a7.643,7.643,0,0,0-2.391-.413,2.326,2.326,0,0,0-1.31.365,1.816,1.816,0,0,0-.747,1.121L-5.8-9.5l1.907-.009-.369,2.057h-1.8L-7.352,0ZM-1.56,0h-2.9l1.644-9.51H.092ZM4.671-2.109a1.244,1.244,0,0,0,.976-.345A1.717,1.717,0,0,0,6.1-3.393L8.8-3.4a3.559,3.559,0,0,1-.62,1.872A3.745,3.745,0,0,1,6.653-.25,4.521,4.521,0,0,1,4.592.176,3.57,3.57,0,0,1,1.666-1.191,4.726,4.726,0,0,1,.831-4.632l.026-.211A6.371,6.371,0,0,1,1.666-7.4,4.626,4.626,0,0,1,3.375-9.114a4.433,4.433,0,0,1,2.369-.571A3.536,3.536,0,0,1,8.367-8.626a3.755,3.755,0,0,1,.927,2.764L6.587-5.871q.044-1.5-1.081-1.529Q3.977-7.453,3.749-4.834l-.079.893-.009.333Q3.661-2.136,4.671-2.109ZM19.226,0A2.578,2.578,0,0,1,19.1-.861,2.933,2.933,0,0,1,16.774.176,2.866,2.866,0,0,1,14.717-.65a2.483,2.483,0,0,1-.765-1.96,2.79,2.79,0,0,1,1.292-2.377,6.091,6.091,0,0,1,3.41-.831l.967.018.105-.536.035-.466a.755.755,0,0,0-.8-.826,1.111,1.111,0,0,0-1.169,1.046l-2.9.009a2.754,2.754,0,0,1,.624-1.666,3.7,3.7,0,0,1,1.578-1.09,5.512,5.512,0,0,1,2.123-.356,4.251,4.251,0,0,1,1.894.453,2.82,2.82,0,0,1,1.217,1.187,3.031,3.031,0,0,1,.308,1.753l-.712,4.474-.044.545a2.4,2.4,0,0,0,.167,1.107L22.039,0ZM17.574-1.916A1.865,1.865,0,0,0,19.129-2.7l.29-1.529-.747-.009a1.969,1.969,0,0,0-1.2.409,1.55,1.55,0,0,0-.589,1.068.778.778,0,0,0,.136.593A.7.7,0,0,0,17.574-1.916ZM30.081-6.829a8.273,8.273,0,0,0-.9-.088,2.233,2.233,0,0,0-1.986.9L26.125,0H23.234l1.652-9.51,2.7-.009-.22,1.248a2.64,2.64,0,0,1,2.2-1.441,4.144,4.144,0,0,1,.9.123Zm4.078,4.72a1.244,1.244,0,0,0,.976-.345,1.717,1.717,0,0,0,.448-.938L38.29-3.4a3.559,3.559,0,0,1-.62,1.872A3.745,3.745,0,0,1,36.141-.25,4.521,4.521,0,0,1,34.08.176a3.57,3.57,0,0,1-2.927-1.367,4.726,4.726,0,0,1-.835-3.441l.026-.211A6.371,6.371,0,0,1,31.153-7.4a4.626,4.626,0,0,1,1.709-1.718,4.433,4.433,0,0,1,2.369-.571,3.536,3.536,0,0,1,2.624,1.059,3.755,3.755,0,0,1,.927,2.764l-2.707-.009q.044-1.5-1.081-1.529-1.529-.053-1.758,2.567l-.079.893-.009.333Q33.148-2.136,34.159-2.109ZM43.1-8.473a3.107,3.107,0,0,1,2.452-1.222,2.472,2.472,0,0,1,2.123,1.046,3.981,3.981,0,0,1,.5,2.742L47.184,0H44.292l.993-5.948a3.079,3.079,0,0,0,.018-.563.878.878,0,0,0-.967-.9,1.873,1.873,0,0,0-1.389.572L41.735,0H38.843L41.19-13.5h2.892ZM51.9,0H49l1.652-9.51h2.9Zm-.993-11.909a1.341,1.341,0,0,1,.453-1.072,1.625,1.625,0,0,1,1.138-.431,1.678,1.678,0,0,1,1.129.387,1.318,1.318,0,0,1,.47,1.011,1.344,1.344,0,0,1-.448,1.077,1.63,1.63,0,0,1-1.143.426,1.7,1.7,0,0,1-1.121-.382A1.3,1.3,0,0,1,50.911-11.909Zm8.253.035L58.75-9.51h1.521l-.36,2.057H58.39l-.738,4.368a1.164,1.164,0,0,0,.057.677q.119.229.593.246a6.873,6.873,0,0,0,.756-.044L58.847-.062a4.673,4.673,0,0,1-1.556.22,2.563,2.563,0,0,1-2.013-.791,2.7,2.7,0,0,1-.545-2.1l.773-4.72H54.33l.352-2.057h1.178l.413-2.364ZM64.551.176a4.421,4.421,0,0,1-2.272-.6,3.793,3.793,0,0,1-1.507-1.652,4.44,4.44,0,0,1-.4-2.333l.026-.246a5.829,5.829,0,0,1,1.63-3.713,4.51,4.51,0,0,1,3.415-1.314,3.678,3.678,0,0,1,2.092.621A3.468,3.468,0,0,1,68.805-7.4a5.1,5.1,0,0,1,.264,2.381L68.9-3.814h-5.66A1.854,1.854,0,0,0,63.664-2.6a1.549,1.549,0,0,0,1.178.492A2.993,2.993,0,0,0,67.1-3.076l1.213,1.6a3.578,3.578,0,0,1-1.5,1.2,5.263,5.263,0,0,1-2.1.451Zm.7-7.576a1.487,1.487,0,0,0-1.068.385A3.229,3.229,0,0,0,63.4-5.669h2.892l.053-.254a1.929,1.929,0,0,0,.018-.577A1.017,1.017,0,0,0,65.254-7.4Zm8.569,5.291a1.244,1.244,0,0,0,.976-.345,1.717,1.717,0,0,0,.448-.938L77.955-3.4a3.559,3.559,0,0,1-.62,1.872A3.745,3.745,0,0,1,75.806-.25a4.521,4.521,0,0,1-2.061.426,3.57,3.57,0,0,1-2.927-1.367,4.726,4.726,0,0,1-.835-3.441l.026-.211A6.371,6.371,0,0,1,70.818-7.4a4.626,4.626,0,0,1,1.709-1.718A4.433,4.433,0,0,1,74.9-9.686,3.536,3.536,0,0,1,77.52-8.626a3.755,3.755,0,0,1,.927,2.764L75.74-5.871q.044-1.5-1.081-1.529Q73.129-7.453,72.9-4.834l-.079.893-.009.333Q72.813-2.136,73.824-2.109ZM84-11.874,83.588-9.51h1.521l-.36,2.057H83.228L82.49-3.085a1.164,1.164,0,0,0,.057.677q.119.229.593.246a6.873,6.873,0,0,0,.756-.044L83.685-.062a4.673,4.673,0,0,1-1.556.22,2.563,2.563,0,0,1-2.013-.791,2.7,2.7,0,0,1-.545-2.1l.773-4.72H79.167l.352-2.057H80.7l.413-2.364ZM90.541-1.037A3.148,3.148,0,0,1,87.974.185a2.492,2.492,0,0,1-2.1-.976,3.6,3.6,0,0,1-.549-2.566L86.348-9.51H89.24L88.194-3.315a2.064,2.064,0,0,0,0,.466.766.766,0,0,0,.853.748A1.868,1.868,0,0,0,90.6-2.822L91.78-9.51h2.909L93.037,0H90.347Zm10.916-5.792a8.273,8.273,0,0,0-.9-.088,2.233,2.233,0,0,0-1.986.9L97.5,0H94.61l1.652-9.51,2.7-.009-.22,1.248a2.64,2.64,0,0,1,2.2-1.441,4.144,4.144,0,0,1,.9.123Zm4.57,7a4.421,4.421,0,0,1-2.272-.6,3.793,3.793,0,0,1-1.507-1.652,4.44,4.44,0,0,1-.4-2.333l.026-.246a5.829,5.829,0,0,1,1.63-3.713,4.51,4.51,0,0,1,3.415-1.314,3.678,3.678,0,0,1,2.092.621A3.468,3.468,0,0,1,110.281-7.4a5.1,5.1,0,0,1,.264,2.381l-.167,1.206h-5.66a1.854,1.854,0,0,0,.422,1.213,1.549,1.549,0,0,0,1.178.492,2.993,2.993,0,0,0,2.259-.967l1.213,1.6a3.578,3.578,0,0,1-1.5,1.2,5.263,5.263,0,0,1-2.1.451Zm.7-7.576a1.487,1.487,0,0,0-1.068.385,3.229,3.229,0,0,0-.787,1.347h2.892l.053-.254a1.929,1.929,0,0,0,.018-.577A1.017,1.017,0,0,0,106.73-7.4Zm9.527,4.676q.114-.58-.9-.87l-.624-.158A4.806,4.806,0,0,1,112.5-4.887a2.244,2.244,0,0,1-.668-1.731,2.758,2.758,0,0,1,1.217-2.228,4.633,4.633,0,0,1,2.861-.839,4.292,4.292,0,0,1,2.72.853,2.781,2.781,0,0,1,1.059,2.25L116.8-6.592q.035-1.125-.993-1.125a1.417,1.417,0,0,0-.817.259,1.007,1.007,0,0,0-.448.69q-.149.712,1.257.976a7.3,7.3,0,0,1,1.89.672,2.821,2.821,0,0,1,1.02.945,2.35,2.35,0,0,1,.325,1.354,2.541,2.541,0,0,1-.562,1.538A3.642,3.642,0,0,1,116.921-.2a5.557,5.557,0,0,1-2.2.378,4.469,4.469,0,0,1-1.912-.431,3.408,3.408,0,0,1-1.38-1.147,2.979,2.979,0,0,1-.514-1.666l2.689.018A1.111,1.111,0,0,0,114.869-1.8a1.661,1.661,0,0,0,.914-.242A1.045,1.045,0,0,0,116.257-2.725Z" transform="translate(800 1300)" fill="#12263f"/>
    <path id="Trazado_119027" data-name="Trazado 119027" d="M-85.074,0H-88.08l2.224-12.8h3ZM-78.7-9.519-78.9-8.376a3.414,3.414,0,0,1,2.777-1.31,2.509,2.509,0,0,1,1.415.4,1.843,1.843,0,0,1,.738,1.028,3.619,3.619,0,0,1,2.892-1.433,2.241,2.241,0,0,1,1.956.989,4.117,4.117,0,0,1,.461,2.711L-69.649,0h-2.9l1.011-5.987.035-.518q0-.869-.817-.9a1.872,1.872,0,0,0-1.424.781L-74.9,0h-2.9l1-5.969.035-.527q0-.9-.817-.9a1.86,1.86,0,0,0-1.406.781L-80.152,0h-2.892l1.652-9.51ZM-58.54-4.746a7.9,7.9,0,0,1-.782,2.659A4.348,4.348,0,0,1-60.8-.356a3.417,3.417,0,0,1-1.973.541A2.584,2.584,0,0,1-64.8-.8l-.861,4.456H-68.55L-66.265-9.51l2.672-.009-.149.905a2.8,2.8,0,0,1,2.259-1.072,2.662,2.662,0,0,1,2.167.993,4.388,4.388,0,0,1,.831,2.663A10.274,10.274,0,0,1-58.54-4.746Zm-2.812-1.178q-.044-1.45-.984-1.477a1.7,1.7,0,0,0-1.521.747l-.677,3.771a1.173,1.173,0,0,0,1.213.782q1.538.026,1.89-2.646Q-61.352-5.59-61.352-5.924ZM-54.971,0h-2.9l2.338-13.5h2.9Zm6.565.176a4.421,4.421,0,0,1-2.272-.6,3.793,3.793,0,0,1-1.507-1.652,4.44,4.44,0,0,1-.4-2.333l.026-.246a5.829,5.829,0,0,1,1.63-3.713,4.51,4.51,0,0,1,3.415-1.314,3.678,3.678,0,0,1,2.092.621A3.468,3.468,0,0,1-44.152-7.4a5.1,5.1,0,0,1,.264,2.381l-.167,1.206h-5.66A1.854,1.854,0,0,0-49.293-2.6a1.549,1.549,0,0,0,1.178.492,2.993,2.993,0,0,0,2.259-.967l1.213,1.6a3.578,3.578,0,0,1-1.5,1.2,5.263,5.263,0,0,1-2.1.451Zm.7-7.576a1.487,1.487,0,0,0-1.068.385,3.229,3.229,0,0,0-.787,1.347h2.892l.053-.254A1.929,1.929,0,0,0-46.6-6.5,1.017,1.017,0,0,0-47.7-7.4Zm8.525-2.118-.193,1.143a3.414,3.414,0,0,1,2.777-1.31,2.509,2.509,0,0,1,1.415.4,1.843,1.843,0,0,1,.738,1.028,3.619,3.619,0,0,1,2.892-1.433,2.241,2.241,0,0,1,1.956.989,4.117,4.117,0,0,1,.461,2.711L-30.125,0h-2.9l1.011-5.987.035-.518q0-.869-.817-.9a1.872,1.872,0,0,0-1.424.781L-35.372,0h-2.9l1-5.969.035-.527q0-.9-.817-.9a1.86,1.86,0,0,0-1.406.781L-40.627,0h-2.892l1.652-9.51Zm15.5,9.694a4.421,4.421,0,0,1-2.272-.6,3.793,3.793,0,0,1-1.507-1.652,4.44,4.44,0,0,1-.4-2.333l.026-.246a5.829,5.829,0,0,1,1.63-3.713,4.51,4.51,0,0,1,3.415-1.314,3.678,3.678,0,0,1,2.092.621A3.468,3.468,0,0,1-19.428-7.4a5.1,5.1,0,0,1,.264,2.381l-.167,1.206h-5.66A1.854,1.854,0,0,0-24.57-2.6a1.549,1.549,0,0,0,1.178.492,2.993,2.993,0,0,0,2.259-.967l1.213,1.6a3.578,3.578,0,0,1-1.5,1.2,5.263,5.263,0,0,1-2.1.451Zm.7-7.576a1.487,1.487,0,0,0-1.068.385,3.229,3.229,0,0,0-.787,1.347h2.892l.053-.254a1.929,1.929,0,0,0,.018-.577A1.017,1.017,0,0,0-22.979-7.4Zm8.455-2.118-.2,1.143a3.38,3.38,0,0,1,2.751-1.318,2.27,2.27,0,0,1,1.964.98,4.1,4.1,0,0,1,.47,2.729l-1,5.985h-2.9l1.011-6.01a3.108,3.108,0,0,0,.018-.563q-.062-.836-.984-.836a1.807,1.807,0,0,0-1.4.678L-15.983,0h-2.892l1.652-9.51Zm11.065-2.355L-3.872-9.51h1.521l-.36,2.057H-4.232L-4.97-3.085a1.164,1.164,0,0,0,.057.677q.119.229.593.246a6.873,6.873,0,0,0,.756-.044L-3.775-.062a4.673,4.673,0,0,1-1.556.22A2.563,2.563,0,0,1-7.343-.633a2.7,2.7,0,0,1-.545-2.1l.773-4.72H-8.292l.352-2.057h1.178l.413-2.364ZM1.929.176a4.421,4.421,0,0,1-2.272-.6A3.793,3.793,0,0,1-1.85-2.079a4.44,4.44,0,0,1-.4-2.333l.026-.246A5.829,5.829,0,0,1-.6-8.372,4.51,4.51,0,0,1,2.817-9.686a3.678,3.678,0,0,1,2.092.621A3.468,3.468,0,0,1,6.183-7.4,5.1,5.1,0,0,1,6.447-5.02L6.28-3.814H.62A1.854,1.854,0,0,0,1.042-2.6a1.549,1.549,0,0,0,1.178.492,2.993,2.993,0,0,0,2.259-.967l1.213,1.6a3.578,3.578,0,0,1-1.5,1.2,5.263,5.263,0,0,1-2.1.451Zm.7-7.576a1.487,1.487,0,0,0-1.068.385A3.229,3.229,0,0,0,.778-5.669H3.669l.053-.254A1.929,1.929,0,0,0,3.74-6.5,1.017,1.017,0,0,0,2.632-7.4ZM7.273-4.772a6.917,6.917,0,0,1,1.371-3.6,3.4,3.4,0,0,1,2.865-1.31,2.592,2.592,0,0,1,2.013,1.02l.923-4.834h2.9L15.007,0H12.432l.123-1.028A2.968,2.968,0,0,1,10.191.185,2.62,2.62,0,0,1,8.042-.831a4.476,4.476,0,0,1-.831-2.676,8.231,8.231,0,0,1,.035-1.081Zm2.883.2a6.9,6.9,0,0,0-.062.984q0,1.459.984,1.485A1.844,1.844,0,0,0,12.6-2.918l.65-3.647a1.171,1.171,0,0,0-1.16-.835,1.478,1.478,0,0,0-1.305.7A4.507,4.507,0,0,0,10.156-4.57ZM26.5-2.725q.114-.58-.9-.87l-.624-.158a4.806,4.806,0,0,1-2.241-1.134,2.244,2.244,0,0,1-.668-1.731,2.758,2.758,0,0,1,1.217-2.228,4.633,4.633,0,0,1,2.861-.839,4.292,4.292,0,0,1,2.72.853,2.781,2.781,0,0,1,1.059,2.25l-2.883-.009q.035-1.125-.993-1.125a1.417,1.417,0,0,0-.817.259,1.007,1.007,0,0,0-.448.69q-.149.712,1.257.976a7.3,7.3,0,0,1,1.89.672,2.821,2.821,0,0,1,1.02.945,2.35,2.35,0,0,1,.325,1.354,2.541,2.541,0,0,1-.562,1.538A3.642,3.642,0,0,1,27.167-.2a5.557,5.557,0,0,1-2.2.378,4.469,4.469,0,0,1-1.912-.431A3.408,3.408,0,0,1,21.674-1.4a2.979,2.979,0,0,1-.514-1.666l2.689.018A1.111,1.111,0,0,0,25.115-1.8a1.661,1.661,0,0,0,.914-.242A1.045,1.045,0,0,0,26.5-2.725Zm8.042-1.459L37.006-9.51H40.2L34.625,1.424a4.765,4.765,0,0,1-1.437,1.868,3.266,3.266,0,0,1-1.938.576,5.473,5.473,0,0,1-1.274-.193l.22-2.118h.334a2.394,2.394,0,0,0,.94-.171,1.432,1.432,0,0,0,.677-.664l.413-.791L31.039-9.51h2.988ZM44.67-2.725q.114-.58-.9-.87l-.624-.158a4.806,4.806,0,0,1-2.241-1.134,2.244,2.244,0,0,1-.668-1.731,2.758,2.758,0,0,1,1.217-2.228,4.633,4.633,0,0,1,2.861-.839,4.292,4.292,0,0,1,2.72.853A2.781,2.781,0,0,1,48.1-6.583l-2.883-.009q.035-1.125-.993-1.125a1.417,1.417,0,0,0-.817.259,1.007,1.007,0,0,0-.448.69q-.149.712,1.257.976a7.3,7.3,0,0,1,1.89.672,2.821,2.821,0,0,1,1.02.945,2.35,2.35,0,0,1,.325,1.354,2.541,2.541,0,0,1-.562,1.538A3.642,3.642,0,0,1,45.334-.2a5.557,5.557,0,0,1-2.2.378,4.469,4.469,0,0,1-1.912-.431A3.408,3.408,0,0,1,39.841-1.4a2.979,2.979,0,0,1-.514-1.666l2.689.018A1.111,1.111,0,0,0,43.282-1.8a1.661,1.661,0,0,0,.914-.242A1.045,1.045,0,0,0,44.67-2.725Zm9.1-9.149L53.354-9.51h1.521l-.36,2.057H52.994l-.738,4.368a1.164,1.164,0,0,0,.057.677q.119.229.593.246a6.873,6.873,0,0,0,.756-.044L53.451-.062A4.673,4.673,0,0,1,51.9.158a2.563,2.563,0,0,1-2.013-.791,2.7,2.7,0,0,1-.545-2.1l.773-4.72H48.933l.352-2.057h1.178l.413-2.364ZM59.155.176a4.421,4.421,0,0,1-2.272-.6,3.793,3.793,0,0,1-1.507-1.652,4.44,4.44,0,0,1-.4-2.333L55-4.658a5.829,5.829,0,0,1,1.63-3.713,4.51,4.51,0,0,1,3.415-1.314,3.678,3.678,0,0,1,2.092.621A3.468,3.468,0,0,1,63.409-7.4a5.1,5.1,0,0,1,.264,2.381l-.167,1.206h-5.66A1.854,1.854,0,0,0,58.267-2.6a1.549,1.549,0,0,0,1.178.492A2.993,2.993,0,0,0,61.7-3.076l1.213,1.6a3.578,3.578,0,0,1-1.5,1.2,5.263,5.263,0,0,1-2.1.451Zm.7-7.576a1.487,1.487,0,0,0-1.068.385A3.229,3.229,0,0,0,58-5.669H60.9l.053-.254a1.929,1.929,0,0,0,.018-.577A1.017,1.017,0,0,0,59.858-7.4Zm8.525-2.118L68.19-8.376a3.414,3.414,0,0,1,2.777-1.31,2.509,2.509,0,0,1,1.415.4,1.843,1.843,0,0,1,.738,1.028,3.619,3.619,0,0,1,2.892-1.433,2.241,2.241,0,0,1,1.956.989,4.117,4.117,0,0,1,.461,2.711L77.436,0h-2.9l1.011-5.987.035-.518q0-.869-.817-.9a1.872,1.872,0,0,0-1.424.781L72.189,0h-2.9l1-5.969.035-.527q0-.9-.817-.9a1.86,1.86,0,0,0-1.406.781L66.933,0H64.042l1.652-9.51ZM84.511-2.725q.114-.58-.9-.87l-.624-.158A4.806,4.806,0,0,1,80.75-4.887a2.244,2.244,0,0,1-.668-1.731A2.758,2.758,0,0,1,81.3-8.846a4.633,4.633,0,0,1,2.861-.839,4.292,4.292,0,0,1,2.72.853,2.781,2.781,0,0,1,1.059,2.25l-2.883-.009q.035-1.125-.993-1.125a1.417,1.417,0,0,0-.817.259,1.007,1.007,0,0,0-.448.69q-.149.712,1.257.976a7.3,7.3,0,0,1,1.89.672,2.821,2.821,0,0,1,1.02.945,2.35,2.35,0,0,1,.325,1.354,2.541,2.541,0,0,1-.562,1.538A3.642,3.642,0,0,1,85.175-.2a5.557,5.557,0,0,1-2.2.378,4.469,4.469,0,0,1-1.912-.431A3.408,3.408,0,0,1,79.682-1.4a2.979,2.979,0,0,1-.514-1.666l2.689.018A1.111,1.111,0,0,0,83.123-1.8a1.661,1.661,0,0,0,.914-.242A1.045,1.045,0,0,0,84.511-2.725Z" transform="translate(1099 1300)" fill="#12263f"/>
    <path id="Trazado_119020" data-name="Trazado 119020" d="M-34.941-3.463q.193-.993-1.072-1.538l-1.441-.6q-3.032-1.362-2.883-3.709a3.274,3.274,0,0,1,.738-1.912,4.385,4.385,0,0,1,1.872-1.305,6.889,6.889,0,0,1,2.61-.448,4.439,4.439,0,0,1,3.054,1.107,3.679,3.679,0,0,1,1.138,2.874h-2.988a1.79,1.79,0,0,0-.312-1.182,1.351,1.351,0,0,0-1.112-.461,2.33,2.33,0,0,0-1.336.352,1.426,1.426,0,0,0-.686.993q-.167.879,1.305,1.441a14.352,14.352,0,0,1,2.14.967,3.534,3.534,0,0,1,1.969,3.393,3.474,3.474,0,0,1-.712,1.942,4.115,4.115,0,0,1-1.78,1.292,6.576,6.576,0,0,1-2.553.439,6.164,6.164,0,0,1-1.925-.325,4.235,4.235,0,0,1-1.521-.9,3.9,3.9,0,0,1-1.23-3.12l3.015.009a2.064,2.064,0,0,0,.378,1.49,1.816,1.816,0,0,0,1.45.505A2.176,2.176,0,0,0-35.561-2.5,1.441,1.441,0,0,0-34.941-3.463Zm8.227-.721,2.461-5.326h3.19L-26.635,1.424a4.765,4.765,0,0,1-1.437,1.868,3.266,3.266,0,0,1-1.938.576,5.473,5.473,0,0,1-1.274-.193l.22-2.118h.334a2.394,2.394,0,0,0,.94-.171,1.432,1.432,0,0,0,.677-.664L-28.7-.07-30.221-9.51h2.988Zm10.125,1.459q.114-.58-.9-.87l-.624-.158a4.806,4.806,0,0,1-2.241-1.134,2.244,2.244,0,0,1-.668-1.731A2.758,2.758,0,0,1-19.8-8.846a4.633,4.633,0,0,1,2.861-.839,4.292,4.292,0,0,1,2.72.853,2.781,2.781,0,0,1,1.059,2.25l-2.883-.009q.035-1.125-.993-1.125a1.417,1.417,0,0,0-.817.259,1.007,1.007,0,0,0-.448.69q-.149.712,1.257.976a7.3,7.3,0,0,1,1.89.672,2.821,2.821,0,0,1,1.02.945,2.35,2.35,0,0,1,.325,1.354,2.541,2.541,0,0,1-.562,1.538A3.642,3.642,0,0,1-15.926-.2a5.557,5.557,0,0,1-2.2.378,4.469,4.469,0,0,1-1.912-.431A3.408,3.408,0,0,1-21.419-1.4a2.979,2.979,0,0,1-.514-1.666l2.689.018A1.111,1.111,0,0,0-17.978-1.8a1.661,1.661,0,0,0,.914-.242A1.045,1.045,0,0,0-16.589-2.725Zm9.1-9.149L-7.906-9.51h1.521l-.36,2.057H-8.266L-9-3.085a1.164,1.164,0,0,0,.057.677q.119.229.593.246A6.873,6.873,0,0,0-7.6-2.206L-7.809-.062a4.673,4.673,0,0,1-1.556.22,2.563,2.563,0,0,1-2.013-.791,2.7,2.7,0,0,1-.545-2.1l.773-4.72h-1.178l.352-2.057H-10.8l.413-2.364ZM-2.1.176a4.421,4.421,0,0,1-2.272-.6A3.793,3.793,0,0,1-5.884-2.079a4.44,4.44,0,0,1-.4-2.333l.026-.246a5.829,5.829,0,0,1,1.63-3.713A4.51,4.51,0,0,1-1.217-9.686a3.678,3.678,0,0,1,2.092.621A3.468,3.468,0,0,1,2.149-7.4,5.1,5.1,0,0,1,2.413-5.02L2.246-3.814h-5.66A1.854,1.854,0,0,0-2.993-2.6a1.549,1.549,0,0,0,1.178.492A2.993,2.993,0,0,0,.444-3.076l1.213,1.6a3.578,3.578,0,0,1-1.5,1.2,5.263,5.263,0,0,1-2.1.451ZM-1.4-7.4a1.487,1.487,0,0,0-1.068.385,3.229,3.229,0,0,0-.787,1.347H-.365l.053-.254A1.929,1.929,0,0,0-.294-6.5,1.017,1.017,0,0,0-1.4-7.4ZM7.124-9.519,6.93-8.376a3.414,3.414,0,0,1,2.777-1.31,2.509,2.509,0,0,1,1.415.4,1.843,1.843,0,0,1,.738,1.028,3.619,3.619,0,0,1,2.892-1.433,2.241,2.241,0,0,1,1.956.989,4.117,4.117,0,0,1,.461,2.711L16.176,0h-2.9l1.011-5.987.035-.518q0-.869-.817-.9a1.872,1.872,0,0,0-1.424.781L10.929,0h-2.9l1-5.969L9.066-6.5q0-.9-.817-.9a1.86,1.86,0,0,0-1.406.781L5.673,0H2.782L4.434-9.51ZM28.666,0h-2.9L27.4-9.4l-2.979.844.4-2.347,5.66-1.89.325-.009Zm9.22,0a2.578,2.578,0,0,1-.123-.861A2.933,2.933,0,0,1,35.433.176,2.866,2.866,0,0,1,33.376-.65a2.483,2.483,0,0,1-.765-1.96A2.79,2.79,0,0,1,33.9-4.988a6.091,6.091,0,0,1,3.41-.831l.967.018.105-.536.035-.466a.755.755,0,0,0-.8-.826,1.111,1.111,0,0,0-1.169,1.046l-2.9.009a2.754,2.754,0,0,1,.624-1.666,3.7,3.7,0,0,1,1.578-1.09,5.512,5.512,0,0,1,2.123-.356,4.251,4.251,0,0,1,1.894.453,2.82,2.82,0,0,1,1.217,1.187A3.031,3.031,0,0,1,41.3-6.293l-.712,4.474-.044.545a2.4,2.4,0,0,0,.167,1.107L40.7,0ZM36.233-1.916A1.865,1.865,0,0,0,37.789-2.7l.29-1.529-.747-.009a1.969,1.969,0,0,0-1.2.409,1.55,1.55,0,0,0-.589,1.068.778.778,0,0,0,.136.593A.7.7,0,0,0,36.233-1.916Z" transform="translate(1105 958)" fill="#12263f"/>
    <path id="Trazado_119022" data-name="Trazado 119022" d="M-34.941-3.463q.193-.993-1.072-1.538l-1.441-.6q-3.032-1.362-2.883-3.709a3.274,3.274,0,0,1,.738-1.912,4.385,4.385,0,0,1,1.872-1.305,6.889,6.889,0,0,1,2.61-.448,4.439,4.439,0,0,1,3.054,1.107,3.679,3.679,0,0,1,1.138,2.874h-2.988a1.79,1.79,0,0,0-.312-1.182,1.351,1.351,0,0,0-1.112-.461,2.33,2.33,0,0,0-1.336.352,1.426,1.426,0,0,0-.686.993q-.167.879,1.305,1.441a14.352,14.352,0,0,1,2.14.967,3.534,3.534,0,0,1,1.969,3.393,3.474,3.474,0,0,1-.712,1.942,4.115,4.115,0,0,1-1.78,1.292,6.576,6.576,0,0,1-2.553.439,6.164,6.164,0,0,1-1.925-.325,4.235,4.235,0,0,1-1.521-.9,3.9,3.9,0,0,1-1.23-3.12l3.015.009a2.064,2.064,0,0,0,.378,1.49,1.816,1.816,0,0,0,1.45.505A2.176,2.176,0,0,0-35.561-2.5,1.441,1.441,0,0,0-34.941-3.463Zm8.227-.721,2.461-5.326h3.19L-26.635,1.424a4.765,4.765,0,0,1-1.437,1.868,3.266,3.266,0,0,1-1.938.576,5.473,5.473,0,0,1-1.274-.193l.22-2.118h.334a2.394,2.394,0,0,0,.94-.171,1.432,1.432,0,0,0,.677-.664L-28.7-.07-30.221-9.51h2.988Zm10.125,1.459q.114-.58-.9-.87l-.624-.158a4.806,4.806,0,0,1-2.241-1.134,2.244,2.244,0,0,1-.668-1.731A2.758,2.758,0,0,1-19.8-8.846a4.633,4.633,0,0,1,2.861-.839,4.292,4.292,0,0,1,2.72.853,2.781,2.781,0,0,1,1.059,2.25l-2.883-.009q.035-1.125-.993-1.125a1.417,1.417,0,0,0-.817.259,1.007,1.007,0,0,0-.448.69q-.149.712,1.257.976a7.3,7.3,0,0,1,1.89.672,2.821,2.821,0,0,1,1.02.945,2.35,2.35,0,0,1,.325,1.354,2.541,2.541,0,0,1-.562,1.538A3.642,3.642,0,0,1-15.926-.2a5.557,5.557,0,0,1-2.2.378,4.469,4.469,0,0,1-1.912-.431A3.408,3.408,0,0,1-21.419-1.4a2.979,2.979,0,0,1-.514-1.666l2.689.018A1.111,1.111,0,0,0-17.978-1.8a1.661,1.661,0,0,0,.914-.242A1.045,1.045,0,0,0-16.589-2.725Zm9.1-9.149L-7.906-9.51h1.521l-.36,2.057H-8.266L-9-3.085a1.164,1.164,0,0,0,.057.677q.119.229.593.246A6.873,6.873,0,0,0-7.6-2.206L-7.809-.062a4.673,4.673,0,0,1-1.556.22,2.563,2.563,0,0,1-2.013-.791,2.7,2.7,0,0,1-.545-2.1l.773-4.72h-1.178l.352-2.057H-10.8l.413-2.364ZM-2.1.176a4.421,4.421,0,0,1-2.272-.6A3.793,3.793,0,0,1-5.884-2.079a4.44,4.44,0,0,1-.4-2.333l.026-.246a5.829,5.829,0,0,1,1.63-3.713A4.51,4.51,0,0,1-1.217-9.686a3.678,3.678,0,0,1,2.092.621A3.468,3.468,0,0,1,2.149-7.4,5.1,5.1,0,0,1,2.413-5.02L2.246-3.814h-5.66A1.854,1.854,0,0,0-2.993-2.6a1.549,1.549,0,0,0,1.178.492A2.993,2.993,0,0,0,.444-3.076l1.213,1.6a3.578,3.578,0,0,1-1.5,1.2,5.263,5.263,0,0,1-2.1.451ZM-1.4-7.4a1.487,1.487,0,0,0-1.068.385,3.229,3.229,0,0,0-.787,1.347H-.365l.053-.254A1.929,1.929,0,0,0-.294-6.5,1.017,1.017,0,0,0-1.4-7.4ZM7.124-9.519,6.93-8.376a3.414,3.414,0,0,1,2.777-1.31,2.509,2.509,0,0,1,1.415.4,1.843,1.843,0,0,1,.738,1.028,3.619,3.619,0,0,1,2.892-1.433,2.241,2.241,0,0,1,1.956.989,4.117,4.117,0,0,1,.461,2.711L16.176,0h-2.9l1.011-5.987.035-.518q0-.869-.817-.9a1.872,1.872,0,0,0-1.424.781L10.929,0h-2.9l1-5.969L9.066-6.5q0-.9-.817-.9a1.86,1.86,0,0,0-1.406.781L5.673,0H2.782L4.434-9.51ZM31.047,0H22.373l.316-2.039,4.553-4.228.624-.624A3.629,3.629,0,0,0,29.21-9.677a1,1,0,0,0-1.055-1.046,1.388,1.388,0,0,0-1.147.549,2.812,2.812,0,0,0-.584,1.481l-2.874.018a4.389,4.389,0,0,1,.729-2.2,4.544,4.544,0,0,1,1.762-1.56,5.024,5.024,0,0,1,2.351-.554,4.157,4.157,0,0,1,2.9,1.015,3.122,3.122,0,0,1,.9,2.65,4.324,4.324,0,0,1-.646,1.916A9.876,9.876,0,0,1,29.9-5.449L28.56-4.219,26.574-2.3l4.834.018Zm6.838,0a2.578,2.578,0,0,1-.123-.861A2.933,2.933,0,0,1,35.433.176,2.866,2.866,0,0,1,33.376-.65a2.483,2.483,0,0,1-.765-1.96A2.79,2.79,0,0,1,33.9-4.988a6.091,6.091,0,0,1,3.41-.831l.967.018.105-.536.035-.466a.755.755,0,0,0-.8-.826,1.111,1.111,0,0,0-1.169,1.046l-2.9.009a2.754,2.754,0,0,1,.624-1.666,3.7,3.7,0,0,1,1.578-1.09,5.512,5.512,0,0,1,2.123-.356,4.251,4.251,0,0,1,1.894.453,2.82,2.82,0,0,1,1.217,1.187A3.031,3.031,0,0,1,41.3-6.293l-.712,4.474-.044.545a2.4,2.4,0,0,0,.167,1.107L40.7,0ZM36.233-1.916A1.865,1.865,0,0,0,37.789-2.7l.29-1.529-.747-.009a1.969,1.969,0,0,0-1.2.409,1.55,1.55,0,0,0-.589,1.068.778.778,0,0,0,.136.593A.7.7,0,0,0,36.233-1.916Z" transform="translate(1105 1081)" fill="#12263f"/>
    <path id="Trazado_119024" data-name="Trazado 119024" d="M-34.809-3.463q.193-.993-1.072-1.538l-1.441-.6q-3.032-1.362-2.883-3.709a3.274,3.274,0,0,1,.738-1.912A4.385,4.385,0,0,1-37.6-12.524a6.889,6.889,0,0,1,2.61-.448,4.439,4.439,0,0,1,3.054,1.107,3.679,3.679,0,0,1,1.138,2.874h-2.988a1.79,1.79,0,0,0-.312-1.182,1.351,1.351,0,0,0-1.112-.461,2.33,2.33,0,0,0-1.336.352,1.426,1.426,0,0,0-.686.993q-.167.879,1.305,1.441a14.352,14.352,0,0,1,2.14.967,3.534,3.534,0,0,1,1.969,3.393,3.474,3.474,0,0,1-.712,1.942A4.115,4.115,0,0,1-34.3-.255a6.576,6.576,0,0,1-2.553.439,6.164,6.164,0,0,1-1.925-.325,4.235,4.235,0,0,1-1.521-.9,3.9,3.9,0,0,1-1.23-3.12l3.015.009a2.064,2.064,0,0,0,.378,1.49,1.816,1.816,0,0,0,1.45.505A2.176,2.176,0,0,0-35.429-2.5,1.441,1.441,0,0,0-34.809-3.463Zm8.227-.721,2.461-5.326h3.19L-26.5,1.424A4.765,4.765,0,0,1-27.94,3.292a3.266,3.266,0,0,1-1.938.576,5.473,5.473,0,0,1-1.274-.193l.22-2.118h.334a2.394,2.394,0,0,0,.94-.171,1.432,1.432,0,0,0,.677-.664l.413-.791L-30.089-9.51H-27.1Zm10.125,1.459q.114-.58-.9-.87l-.624-.158a4.806,4.806,0,0,1-2.241-1.134,2.244,2.244,0,0,1-.668-1.731A2.758,2.758,0,0,1-19.67-8.846a4.633,4.633,0,0,1,2.861-.839,4.292,4.292,0,0,1,2.72.853,2.781,2.781,0,0,1,1.059,2.25l-2.883-.009q.035-1.125-.993-1.125a1.417,1.417,0,0,0-.817.259,1.007,1.007,0,0,0-.448.69q-.149.712,1.257.976a7.3,7.3,0,0,1,1.89.672,2.821,2.821,0,0,1,1.02.945,2.35,2.35,0,0,1,.325,1.354,2.541,2.541,0,0,1-.562,1.538A3.642,3.642,0,0,1-15.794-.2,5.557,5.557,0,0,1-18,.176a4.469,4.469,0,0,1-1.912-.431A3.408,3.408,0,0,1-21.287-1.4,2.979,2.979,0,0,1-21.8-3.067l2.689.018A1.111,1.111,0,0,0-17.846-1.8a1.661,1.661,0,0,0,.914-.242A1.045,1.045,0,0,0-16.458-2.725Zm9.1-9.149L-7.774-9.51h1.521l-.36,2.057H-8.134l-.738,4.368a1.164,1.164,0,0,0,.057.677q.119.229.593.246a6.873,6.873,0,0,0,.756-.044L-7.677-.062a4.673,4.673,0,0,1-1.556.22,2.563,2.563,0,0,1-2.013-.791,2.7,2.7,0,0,1-.545-2.1l.773-4.72h-1.178l.352-2.057h1.178l.413-2.364ZM-1.973.176a4.421,4.421,0,0,1-2.272-.6A3.793,3.793,0,0,1-5.752-2.079a4.44,4.44,0,0,1-.4-2.333l.026-.246A5.829,5.829,0,0,1-4.5-8.372,4.51,4.51,0,0,1-1.085-9.686a3.678,3.678,0,0,1,2.092.621A3.468,3.468,0,0,1,2.281-7.4,5.1,5.1,0,0,1,2.544-5.02L2.377-3.814h-5.66A1.854,1.854,0,0,0-2.861-2.6a1.549,1.549,0,0,0,1.178.492A2.993,2.993,0,0,0,.576-3.076l1.213,1.6a3.578,3.578,0,0,1-1.5,1.2,5.263,5.263,0,0,1-2.1.451Zm.7-7.576a1.487,1.487,0,0,0-1.068.385,3.229,3.229,0,0,0-.787,1.347H-.233l.053-.254A1.929,1.929,0,0,0-.163-6.5,1.017,1.017,0,0,0-1.27-7.4ZM7.255-9.519,7.062-8.376a3.414,3.414,0,0,1,2.777-1.31,2.509,2.509,0,0,1,1.415.4,1.843,1.843,0,0,1,.738,1.028,3.619,3.619,0,0,1,2.892-1.433A2.241,2.241,0,0,1,16.84-8.7,4.117,4.117,0,0,1,17.3-5.985L16.308,0h-2.9l1.011-5.987.035-.518q0-.869-.817-.9a1.872,1.872,0,0,0-1.424.781L11.061,0h-2.9l1-5.969L9.2-6.5q0-.9-.817-.9a1.86,1.86,0,0,0-1.406.781L5.805,0H2.914L4.566-9.51Zm19.494,0-.2,1.143A3.38,3.38,0,0,1,29.3-9.694a2.27,2.27,0,0,1,1.964.98,4.1,4.1,0,0,1,.47,2.729L30.731,0h-2.9l1.011-6.01a3.108,3.108,0,0,0,.018-.563q-.062-.836-.984-.836a1.807,1.807,0,0,0-1.4.678L25.291,0H22.4l1.652-9.51ZM37.753,0a2.578,2.578,0,0,1-.123-.861A2.933,2.933,0,0,1,35.3.176,2.866,2.866,0,0,1,33.245-.65a2.483,2.483,0,0,1-.765-1.96,2.79,2.79,0,0,1,1.292-2.377,6.091,6.091,0,0,1,3.41-.831l.967.018.105-.536L38.29-6.8a.755.755,0,0,0-.8-.826,1.111,1.111,0,0,0-1.169,1.046l-2.9.009a2.754,2.754,0,0,1,.624-1.666,3.7,3.7,0,0,1,1.578-1.09,5.512,5.512,0,0,1,2.123-.356,4.251,4.251,0,0,1,1.894.453,2.82,2.82,0,0,1,1.217,1.187,3.031,3.031,0,0,1,.308,1.753l-.712,4.474-.044.545a2.4,2.4,0,0,0,.167,1.107L40.566,0ZM36.1-1.916A1.865,1.865,0,0,0,37.657-2.7l.29-1.529L37.2-4.236a1.969,1.969,0,0,0-1.2.409,1.55,1.55,0,0,0-.589,1.068.778.778,0,0,0,.136.593A.7.7,0,0,0,36.1-1.916Z" transform="translate(1105 1198)" fill="#12263f"/>
    <path id="Trazado_119019" data-name="Trazado 119019" d="M39.954,14.641a4.614,4.614,0,0,1-.883,2.391,5,5,0,0,1-2.021,1.608,6.259,6.259,0,0,1-2.711.536,4.215,4.215,0,0,1-3.155-1.292A5.193,5.193,0,0,1,29.926,14.5a11.02,11.02,0,0,1,.312-3.1,8.2,8.2,0,0,1,1.274-2.922A5.855,5.855,0,0,1,33.6,6.612a5.407,5.407,0,0,1,2.624-.593,4.577,4.577,0,0,1,3.309,1.257,4.92,4.92,0,0,1,1.323,3.366l-3-.009a2.465,2.465,0,0,0-.422-1.67,1.852,1.852,0,0,0-1.389-.536q-2.373-.079-2.892,3.691a20.283,20.283,0,0,0-.237,2.435q-.044,2.162,1.6,2.224a2.348,2.348,0,0,0,1.7-.523,2.615,2.615,0,0,0,.809-1.578Zm6.24-5.326a3.994,3.994,0,0,1,2.206.637,3.59,3.59,0,0,1,1.367,1.727,5.33,5.33,0,0,1,.312,2.461l-.018.193a5.636,5.636,0,0,1-1.626,3.533,4.575,4.575,0,0,1-3.41,1.31,3.977,3.977,0,0,1-2.188-.628,3.612,3.612,0,0,1-1.367-1.709,5.179,5.179,0,0,1-.321-2.443,5.863,5.863,0,0,1,1.6-3.727A4.547,4.547,0,0,1,46.194,9.314ZM44.041,14.4l-.026.518q-.123,1.957,1.2,1.992,1.705.053,1.978-2.764l.035-.8a2.155,2.155,0,0,0-.294-1.259,1.073,1.073,0,0,0-.918-.487,1.512,1.512,0,0,0-1.314.654A4.278,4.278,0,0,0,44.041,14.4ZM54.834,9.481l-.2,1.143a3.38,3.38,0,0,1,2.751-1.318,2.27,2.27,0,0,1,1.964.98,4.1,4.1,0,0,1,.47,2.729l-1,5.985h-2.9l1.011-6.01a3.108,3.108,0,0,0,.018-.563q-.062-.836-.984-.836a1.807,1.807,0,0,0-1.4.678L53.375,19H50.483l1.652-9.51ZM65.9,7.126,65.486,9.49h1.521l-.36,2.057H65.126l-.738,4.368a1.164,1.164,0,0,0,.057.677q.119.229.593.246a6.873,6.873,0,0,0,.756-.044l-.211,2.145a4.673,4.673,0,0,1-1.556.22,2.563,2.563,0,0,1-2.013-.791,2.7,2.7,0,0,1-.545-2.1l.773-4.72H61.065l.352-2.057h1.178l.413-2.364Zm5.388,12.05a4.421,4.421,0,0,1-2.272-.6,3.793,3.793,0,0,1-1.507-1.652,4.44,4.44,0,0,1-.4-2.333l.026-.246a5.829,5.829,0,0,1,1.63-3.713,4.51,4.51,0,0,1,3.415-1.314,3.678,3.678,0,0,1,2.092.621A3.468,3.468,0,0,1,75.541,11.6,5.1,5.1,0,0,1,75.8,13.98l-.167,1.206h-5.66A1.854,1.854,0,0,0,70.4,16.4a1.549,1.549,0,0,0,1.178.492,2.993,2.993,0,0,0,2.259-.967l1.213,1.6a3.578,3.578,0,0,1-1.5,1.2,5.263,5.263,0,0,1-2.1.451Zm.7-7.576a1.487,1.487,0,0,0-1.068.385,3.229,3.229,0,0,0-.787,1.347h2.892l.053-.254A1.929,1.929,0,0,0,73.1,12.5,1.017,1.017,0,0,0,71.99,11.6ZM81,12.092l1.749-2.6h3.129l-3.243,4.764L84.374,19H81.491l-1-2.795L78.635,19H75.471l3.41-5.01L77.22,9.49h2.909Zm9.65-4.966L90.236,9.49h1.521l-.36,2.057H89.876l-.738,4.368a1.164,1.164,0,0,0,.057.677q.119.229.593.246a6.873,6.873,0,0,0,.756-.044l-.211,2.145a4.673,4.673,0,0,1-1.556.22,2.563,2.563,0,0,1-2.013-.791,2.7,2.7,0,0,1-.545-2.1l.773-4.72H85.815l.352-2.057h1.178l.413-2.364Zm12.261,8.411q.193-.993-1.072-1.538l-1.441-.6q-3.032-1.362-2.883-3.709a3.274,3.274,0,0,1,.738-1.912,4.385,4.385,0,0,1,1.872-1.305,6.889,6.889,0,0,1,2.61-.448,4.439,4.439,0,0,1,3.054,1.107,3.679,3.679,0,0,1,1.138,2.874h-2.988a1.79,1.79,0,0,0-.312-1.182,1.351,1.351,0,0,0-1.112-.461,2.33,2.33,0,0,0-1.336.352,1.426,1.426,0,0,0-.686.993q-.167.879,1.305,1.441a14.352,14.352,0,0,1,2.14.967,3.534,3.534,0,0,1,1.969,3.393,3.474,3.474,0,0,1-.712,1.942,4.115,4.115,0,0,1-1.78,1.292,6.576,6.576,0,0,1-2.553.439,6.164,6.164,0,0,1-1.925-.325,4.235,4.235,0,0,1-1.521-.9,3.9,3.9,0,0,1-1.23-3.12l3.015.009a2.064,2.064,0,0,0,.378,1.49,1.816,1.816,0,0,0,1.45.505,2.176,2.176,0,0,0,1.261-.347A1.441,1.441,0,0,0,102.91,15.537Zm13.254-1.283a7.9,7.9,0,0,1-.782,2.659,4.348,4.348,0,0,1-1.481,1.731,3.417,3.417,0,0,1-1.973.541,2.584,2.584,0,0,1-2.021-.984l-.861,4.456h-2.892L108.438,9.49l2.672-.009-.149.905a2.8,2.8,0,0,1,2.259-1.072,2.662,2.662,0,0,1,2.167.993,4.388,4.388,0,0,1,.831,2.663A10.274,10.274,0,0,1,116.164,14.254Zm-2.812-1.178q-.044-1.45-.984-1.477a1.7,1.7,0,0,0-1.521.747l-.677,3.771a1.173,1.173,0,0,0,1.213.782q1.538.026,1.89-2.646Q113.352,13.41,113.352,13.076Zm8.06,6.1a4.421,4.421,0,0,1-2.272-.6,3.793,3.793,0,0,1-1.507-1.652,4.44,4.44,0,0,1-.4-2.333l.026-.246a5.829,5.829,0,0,1,1.63-3.713A4.51,4.51,0,0,1,122.3,9.314a3.678,3.678,0,0,1,2.092.621,3.468,3.468,0,0,1,1.274,1.664,5.1,5.1,0,0,1,.264,2.381l-.167,1.206H120.1a1.854,1.854,0,0,0,.422,1.213,1.549,1.549,0,0,0,1.178.492,2.993,2.993,0,0,0,2.259-.967l1.213,1.6a3.578,3.578,0,0,1-1.5,1.2,5.263,5.263,0,0,1-2.1.451Zm.7-7.576a1.487,1.487,0,0,0-1.068.385,3.229,3.229,0,0,0-.787,1.347h2.892l.053-.254a1.929,1.929,0,0,0,.018-.577A1.017,1.017,0,0,0,122.114,11.6Zm8.569,5.291a1.244,1.244,0,0,0,.976-.345,1.717,1.717,0,0,0,.448-.938l2.707-.009a3.559,3.559,0,0,1-.62,1.872,3.745,3.745,0,0,1-1.529,1.279,4.521,4.521,0,0,1-2.061.426,3.57,3.57,0,0,1-2.927-1.367,4.726,4.726,0,0,1-.835-3.441l.026-.211a6.371,6.371,0,0,1,.809-2.553,4.626,4.626,0,0,1,1.709-1.718,4.433,4.433,0,0,1,2.369-.571,3.536,3.536,0,0,1,2.624,1.059,3.755,3.755,0,0,1,.927,2.764l-2.707-.009q.044-1.5-1.081-1.529-1.529-.053-1.758,2.567l-.079.893-.009.333Q129.673,16.864,130.684,16.891Zm7.8,2.109h-2.9l1.652-9.51h2.9ZM137.5,7.091a1.341,1.341,0,0,1,.453-1.072,1.625,1.625,0,0,1,1.138-.431,1.678,1.678,0,0,1,1.129.387,1.318,1.318,0,0,1,.47,1.011,1.344,1.344,0,0,1-.448,1.077,1.63,1.63,0,0,1-1.143.426,1.7,1.7,0,0,1-1.121-.382A1.3,1.3,0,0,1,137.5,7.091ZM140.993,19l1.292-7.453h-1.336l.36-2.057,1.248.009.07-.36a4.662,4.662,0,0,1,1.639-2.856,5.076,5.076,0,0,1,3.283-.976,13.29,13.29,0,0,1,3.023.5l-.615,2.355a7.643,7.643,0,0,0-2.391-.413,2.326,2.326,0,0,0-1.31.365,1.816,1.816,0,0,0-.747,1.121l-.062.264,1.907-.009-.369,2.057h-1.8L143.894,19Zm8.692,0h-2.9l1.644-9.51h2.909Zm6.231-2.109a1.244,1.244,0,0,0,.976-.345,1.717,1.717,0,0,0,.448-.938l2.707-.009a3.559,3.559,0,0,1-.62,1.872A3.745,3.745,0,0,1,157.9,18.75a4.521,4.521,0,0,1-2.061.426,3.57,3.57,0,0,1-2.927-1.367,4.726,4.726,0,0,1-.835-3.441l.026-.211a6.371,6.371,0,0,1,.809-2.553,4.626,4.626,0,0,1,1.709-1.718,4.433,4.433,0,0,1,2.369-.571,3.536,3.536,0,0,1,2.624,1.059,3.755,3.755,0,0,1,.927,2.764l-2.707-.009q.044-1.5-1.081-1.529-1.529-.053-1.758,2.567l-.079.893-.009.333Q154.906,16.864,155.917,16.891ZM44.415,39a2.578,2.578,0,0,1-.123-.861,2.933,2.933,0,0,1-2.329,1.037,2.866,2.866,0,0,1-2.057-.826,2.483,2.483,0,0,1-.765-1.96,2.79,2.79,0,0,1,1.292-2.377,6.091,6.091,0,0,1,3.41-.831l.967.018.105-.536.035-.466a.755.755,0,0,0-.8-.826,1.111,1.111,0,0,0-1.169,1.046l-2.9.009a2.754,2.754,0,0,1,.624-1.666,3.7,3.7,0,0,1,1.578-1.09,5.512,5.512,0,0,1,2.123-.356,4.251,4.251,0,0,1,1.894.453,2.82,2.82,0,0,1,1.217,1.187,3.031,3.031,0,0,1,.308,1.753l-.712,4.474-.044.545a2.4,2.4,0,0,0,.167,1.107L47.227,39Zm-1.652-1.916a1.865,1.865,0,0,0,1.556-.782l.29-1.529-.747-.009a1.969,1.969,0,0,0-1.2.409,1.55,1.55,0,0,0-.589,1.068.778.778,0,0,0,.136.593A.7.7,0,0,0,42.762,37.084Zm12.507-4.913a8.273,8.273,0,0,0-.9-.088,2.233,2.233,0,0,0-1.986.9L51.314,39H48.422l1.652-9.51,2.7-.009-.22,1.248a2.64,2.64,0,0,1,2.2-1.441,4.144,4.144,0,0,1,.9.123Zm4.078,4.72a1.244,1.244,0,0,0,.976-.345,1.717,1.717,0,0,0,.448-.938l2.707-.009a3.559,3.559,0,0,1-.62,1.872,3.745,3.745,0,0,1-1.529,1.279,4.521,4.521,0,0,1-2.061.426,3.57,3.57,0,0,1-2.927-1.367,4.726,4.726,0,0,1-.835-3.441l.026-.211a6.371,6.371,0,0,1,.809-2.553,4.626,4.626,0,0,1,1.709-1.718,4.433,4.433,0,0,1,2.369-.571,3.536,3.536,0,0,1,2.624,1.059,3.755,3.755,0,0,1,.927,2.764l-2.707-.009q.044-1.5-1.081-1.529-1.529-.053-1.758,2.567l-.079.893-.009.333Q58.336,36.864,59.347,36.891Zm8.938-6.363a3.107,3.107,0,0,1,2.452-1.222,2.472,2.472,0,0,1,2.123,1.046,3.981,3.981,0,0,1,.5,2.742L72.373,39H69.481l.993-5.948a3.079,3.079,0,0,0,.018-.563.878.878,0,0,0-.967-.9,1.873,1.873,0,0,0-1.389.572L66.923,39H64.032l2.347-13.5H69.27ZM77.092,39h-2.9l1.652-9.51h2.9ZM76.1,27.091a1.341,1.341,0,0,1,.453-1.072,1.625,1.625,0,0,1,1.138-.431,1.678,1.678,0,0,1,1.129.387,1.318,1.318,0,0,1,.47,1.011,1.344,1.344,0,0,1-.448,1.077,1.63,1.63,0,0,1-1.143.426,1.7,1.7,0,0,1-1.121-.382A1.3,1.3,0,0,1,76.1,27.091Zm8.253.035-.413,2.364h1.521l-.36,2.057H83.579l-.738,4.368a1.164,1.164,0,0,0,.057.677q.119.229.593.246a6.873,6.873,0,0,0,.756-.044l-.211,2.145a4.673,4.673,0,0,1-1.556.22,2.563,2.563,0,0,1-2.013-.791,2.7,2.7,0,0,1-.545-2.1l.773-4.72H79.518l.352-2.057h1.178l.413-2.364Zm5.388,12.05a4.421,4.421,0,0,1-2.272-.6,3.793,3.793,0,0,1-1.507-1.652,4.44,4.44,0,0,1-.4-2.333l.026-.246a5.829,5.829,0,0,1,1.63-3.713,4.51,4.51,0,0,1,3.415-1.314,3.678,3.678,0,0,1,2.092.621A3.468,3.468,0,0,1,93.994,31.6a5.1,5.1,0,0,1,.264,2.381l-.167,1.206H88.43a1.854,1.854,0,0,0,.422,1.213,1.549,1.549,0,0,0,1.178.492,2.993,2.993,0,0,0,2.259-.967l1.213,1.6a3.578,3.578,0,0,1-1.5,1.2,5.263,5.263,0,0,1-2.1.451Zm.7-7.576a1.487,1.487,0,0,0-1.068.385,3.229,3.229,0,0,0-.787,1.347H91.48l.053-.254a1.929,1.929,0,0,0,.018-.577A1.017,1.017,0,0,0,90.443,31.6Zm8.569,5.291a1.244,1.244,0,0,0,.976-.345,1.717,1.717,0,0,0,.448-.938l2.707-.009a3.559,3.559,0,0,1-.62,1.872,3.745,3.745,0,0,1-1.529,1.279,4.521,4.521,0,0,1-2.061.426,3.57,3.57,0,0,1-2.927-1.367,4.726,4.726,0,0,1-.835-3.441l.026-.211a6.371,6.371,0,0,1,.809-2.553,4.626,4.626,0,0,1,1.709-1.718,4.433,4.433,0,0,1,2.369-.571,3.536,3.536,0,0,1,2.624,1.059,3.755,3.755,0,0,1,.927,2.764l-2.707-.009q.044-1.5-1.081-1.529-1.529-.053-1.758,2.567l-.079.893L98,35.393Q98,36.864,99.012,36.891Zm10.178-9.765-.413,2.364H110.3l-.36,2.057h-1.521l-.738,4.368a1.164,1.164,0,0,0,.057.677q.119.229.593.246a6.873,6.873,0,0,0,.756-.044l-.211,2.145a4.673,4.673,0,0,1-1.556.22,2.563,2.563,0,0,1-2.013-.791,2.7,2.7,0,0,1-.545-2.1l.773-4.72h-1.178l.352-2.057h1.178l.413-2.364Zm6.539,10.837a3.148,3.148,0,0,1-2.566,1.222,2.492,2.492,0,0,1-2.1-.976,3.6,3.6,0,0,1-.549-2.566l1.028-6.152h2.892l-1.046,6.195a2.064,2.064,0,0,0,0,.466.766.766,0,0,0,.853.748,1.868,1.868,0,0,0,1.556-.722l1.178-6.688h2.909L118.225,39h-2.689Zm10.916-5.792a8.273,8.273,0,0,0-.9-.088,2.233,2.233,0,0,0-1.986.9L122.69,39H119.8l1.652-9.51,2.7-.009-.22,1.248a2.64,2.64,0,0,1,2.2-1.441,4.144,4.144,0,0,1,.9.123Zm4.57,7a4.421,4.421,0,0,1-2.272-.6,3.793,3.793,0,0,1-1.507-1.652,4.44,4.44,0,0,1-.4-2.333l.026-.246a5.829,5.829,0,0,1,1.63-3.713,4.51,4.51,0,0,1,3.415-1.314,3.678,3.678,0,0,1,2.092.621,3.468,3.468,0,0,1,1.274,1.664,5.1,5.1,0,0,1,.264,2.381l-.167,1.206h-5.66a1.854,1.854,0,0,0,.422,1.213,1.549,1.549,0,0,0,1.178.492,2.993,2.993,0,0,0,2.259-.967l1.213,1.6a3.578,3.578,0,0,1-1.5,1.2,5.263,5.263,0,0,1-2.1.451Zm.7-7.576a1.487,1.487,0,0,0-1.068.385,3.229,3.229,0,0,0-.787,1.347h2.892l.053-.254a1.929,1.929,0,0,0,.018-.577A1.017,1.017,0,0,0,131.918,31.6ZM146.86,39h-2.9l1.635-9.4-2.979.844.4-2.347,5.66-1.89.325-.009Z" transform="translate(705 911)" fill="#1b59ed"/>
    <path id="Trazado_119021" data-name="Trazado 119021" d="M39.954,14.641a4.614,4.614,0,0,1-.883,2.391,5,5,0,0,1-2.021,1.608,6.259,6.259,0,0,1-2.711.536,4.215,4.215,0,0,1-3.155-1.292A5.193,5.193,0,0,1,29.926,14.5a11.02,11.02,0,0,1,.312-3.1,8.2,8.2,0,0,1,1.274-2.922A5.855,5.855,0,0,1,33.6,6.612a5.407,5.407,0,0,1,2.624-.593,4.577,4.577,0,0,1,3.309,1.257,4.92,4.92,0,0,1,1.323,3.366l-3-.009a2.465,2.465,0,0,0-.422-1.67,1.852,1.852,0,0,0-1.389-.536q-2.373-.079-2.892,3.691a20.283,20.283,0,0,0-.237,2.435q-.044,2.162,1.6,2.224a2.348,2.348,0,0,0,1.7-.523,2.615,2.615,0,0,0,.809-1.578Zm6.24-5.326a3.994,3.994,0,0,1,2.206.637,3.59,3.59,0,0,1,1.367,1.727,5.33,5.33,0,0,1,.312,2.461l-.018.193a5.636,5.636,0,0,1-1.626,3.533,4.575,4.575,0,0,1-3.41,1.31,3.977,3.977,0,0,1-2.188-.628,3.612,3.612,0,0,1-1.367-1.709,5.179,5.179,0,0,1-.321-2.443,5.863,5.863,0,0,1,1.6-3.727A4.547,4.547,0,0,1,46.194,9.314ZM44.041,14.4l-.026.518q-.123,1.957,1.2,1.992,1.705.053,1.978-2.764l.035-.8a2.155,2.155,0,0,0-.294-1.259,1.073,1.073,0,0,0-.918-.487,1.512,1.512,0,0,0-1.314.654A4.278,4.278,0,0,0,44.041,14.4ZM54.834,9.481l-.2,1.143a3.38,3.38,0,0,1,2.751-1.318,2.27,2.27,0,0,1,1.964.98,4.1,4.1,0,0,1,.47,2.729l-1,5.985h-2.9l1.011-6.01a3.108,3.108,0,0,0,.018-.563q-.062-.836-.984-.836a1.807,1.807,0,0,0-1.4.678L53.375,19H50.483l1.652-9.51ZM65.9,7.126,65.486,9.49h1.521l-.36,2.057H65.126l-.738,4.368a1.164,1.164,0,0,0,.057.677q.119.229.593.246a6.873,6.873,0,0,0,.756-.044l-.211,2.145a4.673,4.673,0,0,1-1.556.22,2.563,2.563,0,0,1-2.013-.791,2.7,2.7,0,0,1-.545-2.1l.773-4.72H61.065l.352-2.057h1.178l.413-2.364Zm5.388,12.05a4.421,4.421,0,0,1-2.272-.6,3.793,3.793,0,0,1-1.507-1.652,4.44,4.44,0,0,1-.4-2.333l.026-.246a5.829,5.829,0,0,1,1.63-3.713,4.51,4.51,0,0,1,3.415-1.314,3.678,3.678,0,0,1,2.092.621A3.468,3.468,0,0,1,75.541,11.6,5.1,5.1,0,0,1,75.8,13.98l-.167,1.206h-5.66A1.854,1.854,0,0,0,70.4,16.4a1.549,1.549,0,0,0,1.178.492,2.993,2.993,0,0,0,2.259-.967l1.213,1.6a3.578,3.578,0,0,1-1.5,1.2,5.263,5.263,0,0,1-2.1.451Zm.7-7.576a1.487,1.487,0,0,0-1.068.385,3.229,3.229,0,0,0-.787,1.347h2.892l.053-.254A1.929,1.929,0,0,0,73.1,12.5,1.017,1.017,0,0,0,71.99,11.6ZM81,12.092l1.749-2.6h3.129l-3.243,4.764L84.374,19H81.491l-1-2.795L78.635,19H75.471l3.41-5.01L77.22,9.49h2.909Zm9.65-4.966L90.236,9.49h1.521l-.36,2.057H89.876l-.738,4.368a1.164,1.164,0,0,0,.057.677q.119.229.593.246a6.873,6.873,0,0,0,.756-.044l-.211,2.145a4.673,4.673,0,0,1-1.556.22,2.563,2.563,0,0,1-2.013-.791,2.7,2.7,0,0,1-.545-2.1l.773-4.72H85.815l.352-2.057h1.178l.413-2.364Zm12.261,8.411q.193-.993-1.072-1.538l-1.441-.6q-3.032-1.362-2.883-3.709a3.274,3.274,0,0,1,.738-1.912,4.385,4.385,0,0,1,1.872-1.305,6.889,6.889,0,0,1,2.61-.448,4.439,4.439,0,0,1,3.054,1.107,3.679,3.679,0,0,1,1.138,2.874h-2.988a1.79,1.79,0,0,0-.312-1.182,1.351,1.351,0,0,0-1.112-.461,2.33,2.33,0,0,0-1.336.352,1.426,1.426,0,0,0-.686.993q-.167.879,1.305,1.441a14.352,14.352,0,0,1,2.14.967,3.534,3.534,0,0,1,1.969,3.393,3.474,3.474,0,0,1-.712,1.942,4.115,4.115,0,0,1-1.78,1.292,6.576,6.576,0,0,1-2.553.439,6.164,6.164,0,0,1-1.925-.325,4.235,4.235,0,0,1-1.521-.9,3.9,3.9,0,0,1-1.23-3.12l3.015.009a2.064,2.064,0,0,0,.378,1.49,1.816,1.816,0,0,0,1.45.505,2.176,2.176,0,0,0,1.261-.347A1.441,1.441,0,0,0,102.91,15.537Zm13.254-1.283a7.9,7.9,0,0,1-.782,2.659,4.348,4.348,0,0,1-1.481,1.731,3.417,3.417,0,0,1-1.973.541,2.584,2.584,0,0,1-2.021-.984l-.861,4.456h-2.892L108.438,9.49l2.672-.009-.149.905a2.8,2.8,0,0,1,2.259-1.072,2.662,2.662,0,0,1,2.167.993,4.388,4.388,0,0,1,.831,2.663A10.274,10.274,0,0,1,116.164,14.254Zm-2.812-1.178q-.044-1.45-.984-1.477a1.7,1.7,0,0,0-1.521.747l-.677,3.771a1.173,1.173,0,0,0,1.213.782q1.538.026,1.89-2.646Q113.352,13.41,113.352,13.076Zm8.06,6.1a4.421,4.421,0,0,1-2.272-.6,3.793,3.793,0,0,1-1.507-1.652,4.44,4.44,0,0,1-.4-2.333l.026-.246a5.829,5.829,0,0,1,1.63-3.713A4.51,4.51,0,0,1,122.3,9.314a3.678,3.678,0,0,1,2.092.621,3.468,3.468,0,0,1,1.274,1.664,5.1,5.1,0,0,1,.264,2.381l-.167,1.206H120.1a1.854,1.854,0,0,0,.422,1.213,1.549,1.549,0,0,0,1.178.492,2.993,2.993,0,0,0,2.259-.967l1.213,1.6a3.578,3.578,0,0,1-1.5,1.2,5.263,5.263,0,0,1-2.1.451Zm.7-7.576a1.487,1.487,0,0,0-1.068.385,3.229,3.229,0,0,0-.787,1.347h2.892l.053-.254a1.929,1.929,0,0,0,.018-.577A1.017,1.017,0,0,0,122.114,11.6Zm8.569,5.291a1.244,1.244,0,0,0,.976-.345,1.717,1.717,0,0,0,.448-.938l2.707-.009a3.559,3.559,0,0,1-.62,1.872,3.745,3.745,0,0,1-1.529,1.279,4.521,4.521,0,0,1-2.061.426,3.57,3.57,0,0,1-2.927-1.367,4.726,4.726,0,0,1-.835-3.441l.026-.211a6.371,6.371,0,0,1,.809-2.553,4.626,4.626,0,0,1,1.709-1.718,4.433,4.433,0,0,1,2.369-.571,3.536,3.536,0,0,1,2.624,1.059,3.755,3.755,0,0,1,.927,2.764l-2.707-.009q.044-1.5-1.081-1.529-1.529-.053-1.758,2.567l-.079.893-.009.333Q129.673,16.864,130.684,16.891Zm7.8,2.109h-2.9l1.652-9.51h2.9ZM137.5,7.091a1.341,1.341,0,0,1,.453-1.072,1.625,1.625,0,0,1,1.138-.431,1.678,1.678,0,0,1,1.129.387,1.318,1.318,0,0,1,.47,1.011,1.344,1.344,0,0,1-.448,1.077,1.63,1.63,0,0,1-1.143.426,1.7,1.7,0,0,1-1.121-.382A1.3,1.3,0,0,1,137.5,7.091ZM140.993,19l1.292-7.453h-1.336l.36-2.057,1.248.009.07-.36a4.662,4.662,0,0,1,1.639-2.856,5.076,5.076,0,0,1,3.283-.976,13.29,13.29,0,0,1,3.023.5l-.615,2.355a7.643,7.643,0,0,0-2.391-.413,2.326,2.326,0,0,0-1.31.365,1.816,1.816,0,0,0-.747,1.121l-.062.264,1.907-.009-.369,2.057h-1.8L143.894,19Zm8.692,0h-2.9l1.644-9.51h2.909Zm6.231-2.109a1.244,1.244,0,0,0,.976-.345,1.717,1.717,0,0,0,.448-.938l2.707-.009a3.559,3.559,0,0,1-.62,1.872A3.745,3.745,0,0,1,157.9,18.75a4.521,4.521,0,0,1-2.061.426,3.57,3.57,0,0,1-2.927-1.367,4.726,4.726,0,0,1-.835-3.441l.026-.211a6.371,6.371,0,0,1,.809-2.553,4.626,4.626,0,0,1,1.709-1.718,4.433,4.433,0,0,1,2.369-.571,3.536,3.536,0,0,1,2.624,1.059,3.755,3.755,0,0,1,.927,2.764l-2.707-.009q.044-1.5-1.081-1.529-1.529-.053-1.758,2.567l-.079.893-.009.333Q154.906,16.864,155.917,16.891ZM44.415,39a2.578,2.578,0,0,1-.123-.861,2.933,2.933,0,0,1-2.329,1.037,2.866,2.866,0,0,1-2.057-.826,2.483,2.483,0,0,1-.765-1.96,2.79,2.79,0,0,1,1.292-2.377,6.091,6.091,0,0,1,3.41-.831l.967.018.105-.536.035-.466a.755.755,0,0,0-.8-.826,1.111,1.111,0,0,0-1.169,1.046l-2.9.009a2.754,2.754,0,0,1,.624-1.666,3.7,3.7,0,0,1,1.578-1.09,5.512,5.512,0,0,1,2.123-.356,4.251,4.251,0,0,1,1.894.453,2.82,2.82,0,0,1,1.217,1.187,3.031,3.031,0,0,1,.308,1.753l-.712,4.474-.044.545a2.4,2.4,0,0,0,.167,1.107L47.227,39Zm-1.652-1.916a1.865,1.865,0,0,0,1.556-.782l.29-1.529-.747-.009a1.969,1.969,0,0,0-1.2.409,1.55,1.55,0,0,0-.589,1.068.778.778,0,0,0,.136.593A.7.7,0,0,0,42.762,37.084Zm12.507-4.913a8.273,8.273,0,0,0-.9-.088,2.233,2.233,0,0,0-1.986.9L51.314,39H48.422l1.652-9.51,2.7-.009-.22,1.248a2.64,2.64,0,0,1,2.2-1.441,4.144,4.144,0,0,1,.9.123Zm4.078,4.72a1.244,1.244,0,0,0,.976-.345,1.717,1.717,0,0,0,.448-.938l2.707-.009a3.559,3.559,0,0,1-.62,1.872,3.745,3.745,0,0,1-1.529,1.279,4.521,4.521,0,0,1-2.061.426,3.57,3.57,0,0,1-2.927-1.367,4.726,4.726,0,0,1-.835-3.441l.026-.211a6.371,6.371,0,0,1,.809-2.553,4.626,4.626,0,0,1,1.709-1.718,4.433,4.433,0,0,1,2.369-.571,3.536,3.536,0,0,1,2.624,1.059,3.755,3.755,0,0,1,.927,2.764l-2.707-.009q.044-1.5-1.081-1.529-1.529-.053-1.758,2.567l-.079.893-.009.333Q58.336,36.864,59.347,36.891Zm8.938-6.363a3.107,3.107,0,0,1,2.452-1.222,2.472,2.472,0,0,1,2.123,1.046,3.981,3.981,0,0,1,.5,2.742L72.373,39H69.481l.993-5.948a3.079,3.079,0,0,0,.018-.563.878.878,0,0,0-.967-.9,1.873,1.873,0,0,0-1.389.572L66.923,39H64.032l2.347-13.5H69.27ZM77.092,39h-2.9l1.652-9.51h2.9ZM76.1,27.091a1.341,1.341,0,0,1,.453-1.072,1.625,1.625,0,0,1,1.138-.431,1.678,1.678,0,0,1,1.129.387,1.318,1.318,0,0,1,.47,1.011,1.344,1.344,0,0,1-.448,1.077,1.63,1.63,0,0,1-1.143.426,1.7,1.7,0,0,1-1.121-.382A1.3,1.3,0,0,1,76.1,27.091Zm8.253.035-.413,2.364h1.521l-.36,2.057H83.579l-.738,4.368a1.164,1.164,0,0,0,.057.677q.119.229.593.246a6.873,6.873,0,0,0,.756-.044l-.211,2.145a4.673,4.673,0,0,1-1.556.22,2.563,2.563,0,0,1-2.013-.791,2.7,2.7,0,0,1-.545-2.1l.773-4.72H79.518l.352-2.057h1.178l.413-2.364Zm5.388,12.05a4.421,4.421,0,0,1-2.272-.6,3.793,3.793,0,0,1-1.507-1.652,4.44,4.44,0,0,1-.4-2.333l.026-.246a5.829,5.829,0,0,1,1.63-3.713,4.51,4.51,0,0,1,3.415-1.314,3.678,3.678,0,0,1,2.092.621A3.468,3.468,0,0,1,93.994,31.6a5.1,5.1,0,0,1,.264,2.381l-.167,1.206H88.43a1.854,1.854,0,0,0,.422,1.213,1.549,1.549,0,0,0,1.178.492,2.993,2.993,0,0,0,2.259-.967l1.213,1.6a3.578,3.578,0,0,1-1.5,1.2,5.263,5.263,0,0,1-2.1.451Zm.7-7.576a1.487,1.487,0,0,0-1.068.385,3.229,3.229,0,0,0-.787,1.347H91.48l.053-.254a1.929,1.929,0,0,0,.018-.577A1.017,1.017,0,0,0,90.443,31.6Zm8.569,5.291a1.244,1.244,0,0,0,.976-.345,1.717,1.717,0,0,0,.448-.938l2.707-.009a3.559,3.559,0,0,1-.62,1.872,3.745,3.745,0,0,1-1.529,1.279,4.521,4.521,0,0,1-2.061.426,3.57,3.57,0,0,1-2.927-1.367,4.726,4.726,0,0,1-.835-3.441l.026-.211a6.371,6.371,0,0,1,.809-2.553,4.626,4.626,0,0,1,1.709-1.718,4.433,4.433,0,0,1,2.369-.571,3.536,3.536,0,0,1,2.624,1.059,3.755,3.755,0,0,1,.927,2.764l-2.707-.009q.044-1.5-1.081-1.529-1.529-.053-1.758,2.567l-.079.893L98,35.393Q98,36.864,99.012,36.891Zm10.178-9.765-.413,2.364H110.3l-.36,2.057h-1.521l-.738,4.368a1.164,1.164,0,0,0,.057.677q.119.229.593.246a6.873,6.873,0,0,0,.756-.044l-.211,2.145a4.673,4.673,0,0,1-1.556.22,2.563,2.563,0,0,1-2.013-.791,2.7,2.7,0,0,1-.545-2.1l.773-4.72h-1.178l.352-2.057h1.178l.413-2.364Zm6.539,10.837a3.148,3.148,0,0,1-2.566,1.222,2.492,2.492,0,0,1-2.1-.976,3.6,3.6,0,0,1-.549-2.566l1.028-6.152h2.892l-1.046,6.195a2.064,2.064,0,0,0,0,.466.766.766,0,0,0,.853.748,1.868,1.868,0,0,0,1.556-.722l1.178-6.688h2.909L118.225,39h-2.689Zm10.916-5.792a8.273,8.273,0,0,0-.9-.088,2.233,2.233,0,0,0-1.986.9L122.69,39H119.8l1.652-9.51,2.7-.009-.22,1.248a2.64,2.64,0,0,1,2.2-1.441,4.144,4.144,0,0,1,.9.123Zm4.57,7a4.421,4.421,0,0,1-2.272-.6,3.793,3.793,0,0,1-1.507-1.652,4.44,4.44,0,0,1-.4-2.333l.026-.246a5.829,5.829,0,0,1,1.63-3.713,4.51,4.51,0,0,1,3.415-1.314,3.678,3.678,0,0,1,2.092.621,3.468,3.468,0,0,1,1.274,1.664,5.1,5.1,0,0,1,.264,2.381l-.167,1.206h-5.66a1.854,1.854,0,0,0,.422,1.213,1.549,1.549,0,0,0,1.178.492,2.993,2.993,0,0,0,2.259-.967l1.213,1.6a3.578,3.578,0,0,1-1.5,1.2,5.263,5.263,0,0,1-2.1.451Zm.7-7.576a1.487,1.487,0,0,0-1.068.385,3.229,3.229,0,0,0-.787,1.347h2.892l.053-.254a1.929,1.929,0,0,0,.018-.577A1.017,1.017,0,0,0,131.918,31.6ZM149.242,39h-8.675l.316-2.039,4.553-4.228.624-.624a3.629,3.629,0,0,0,1.345-2.786,1,1,0,0,0-1.055-1.046,1.388,1.388,0,0,0-1.147.549,2.812,2.812,0,0,0-.584,1.481l-2.874.018a4.389,4.389,0,0,1,.729-2.2,4.544,4.544,0,0,1,1.762-1.56,5.024,5.024,0,0,1,2.351-.554,4.157,4.157,0,0,1,2.9,1.015,3.122,3.122,0,0,1,.9,2.65,4.324,4.324,0,0,1-.646,1.916,9.876,9.876,0,0,1-1.648,1.96l-1.336,1.23L144.768,36.7l4.834.018Z" transform="translate(705 1033)" fill="#1b59ed"/>
    <path id="Trazado_119023" data-name="Trazado 119023" d="M39.954,14.641a4.614,4.614,0,0,1-.883,2.391,5,5,0,0,1-2.021,1.608,6.259,6.259,0,0,1-2.711.536,4.215,4.215,0,0,1-3.155-1.292A5.193,5.193,0,0,1,29.926,14.5a11.02,11.02,0,0,1,.312-3.1,8.2,8.2,0,0,1,1.274-2.922A5.855,5.855,0,0,1,33.6,6.612a5.407,5.407,0,0,1,2.624-.593,4.577,4.577,0,0,1,3.309,1.257,4.92,4.92,0,0,1,1.323,3.366l-3-.009a2.465,2.465,0,0,0-.422-1.67,1.852,1.852,0,0,0-1.389-.536q-2.373-.079-2.892,3.691a20.283,20.283,0,0,0-.237,2.435q-.044,2.162,1.6,2.224a2.348,2.348,0,0,0,1.7-.523,2.615,2.615,0,0,0,.809-1.578Zm6.24-5.326a3.994,3.994,0,0,1,2.206.637,3.59,3.59,0,0,1,1.367,1.727,5.33,5.33,0,0,1,.312,2.461l-.018.193a5.636,5.636,0,0,1-1.626,3.533,4.575,4.575,0,0,1-3.41,1.31,3.977,3.977,0,0,1-2.188-.628,3.612,3.612,0,0,1-1.367-1.709,5.179,5.179,0,0,1-.321-2.443,5.863,5.863,0,0,1,1.6-3.727A4.547,4.547,0,0,1,46.194,9.314ZM44.041,14.4l-.026.518q-.123,1.957,1.2,1.992,1.705.053,1.978-2.764l.035-.8a2.155,2.155,0,0,0-.294-1.259,1.073,1.073,0,0,0-.918-.487,1.512,1.512,0,0,0-1.314.654A4.278,4.278,0,0,0,44.041,14.4ZM54.834,9.481l-.2,1.143a3.38,3.38,0,0,1,2.751-1.318,2.27,2.27,0,0,1,1.964.98,4.1,4.1,0,0,1,.47,2.729l-1,5.985h-2.9l1.011-6.01a3.108,3.108,0,0,0,.018-.563q-.062-.836-.984-.836a1.807,1.807,0,0,0-1.4.678L53.375,19H50.483l1.652-9.51ZM65.9,7.126,65.486,9.49h1.521l-.36,2.057H65.126l-.738,4.368a1.164,1.164,0,0,0,.057.677q.119.229.593.246a6.873,6.873,0,0,0,.756-.044l-.211,2.145a4.673,4.673,0,0,1-1.556.22,2.563,2.563,0,0,1-2.013-.791,2.7,2.7,0,0,1-.545-2.1l.773-4.72H61.065l.352-2.057h1.178l.413-2.364Zm5.388,12.05a4.421,4.421,0,0,1-2.272-.6,3.793,3.793,0,0,1-1.507-1.652,4.44,4.44,0,0,1-.4-2.333l.026-.246a5.829,5.829,0,0,1,1.63-3.713,4.51,4.51,0,0,1,3.415-1.314,3.678,3.678,0,0,1,2.092.621A3.468,3.468,0,0,1,75.541,11.6,5.1,5.1,0,0,1,75.8,13.98l-.167,1.206h-5.66A1.854,1.854,0,0,0,70.4,16.4a1.549,1.549,0,0,0,1.178.492,2.993,2.993,0,0,0,2.259-.967l1.213,1.6a3.578,3.578,0,0,1-1.5,1.2,5.263,5.263,0,0,1-2.1.451Zm.7-7.576a1.487,1.487,0,0,0-1.068.385,3.229,3.229,0,0,0-.787,1.347h2.892l.053-.254A1.929,1.929,0,0,0,73.1,12.5,1.017,1.017,0,0,0,71.99,11.6ZM81,12.092l1.749-2.6h3.129l-3.243,4.764L84.374,19H81.491l-1-2.795L78.635,19H75.471l3.41-5.01L77.22,9.49h2.909Zm9.65-4.966L90.236,9.49h1.521l-.36,2.057H89.876l-.738,4.368a1.164,1.164,0,0,0,.057.677q.119.229.593.246a6.873,6.873,0,0,0,.756-.044l-.211,2.145a4.673,4.673,0,0,1-1.556.22,2.563,2.563,0,0,1-2.013-.791,2.7,2.7,0,0,1-.545-2.1l.773-4.72H85.815l.352-2.057h1.178l.413-2.364Zm12.261,8.411q.193-.993-1.072-1.538l-1.441-.6q-3.032-1.362-2.883-3.709a3.274,3.274,0,0,1,.738-1.912,4.385,4.385,0,0,1,1.872-1.305,6.889,6.889,0,0,1,2.61-.448,4.439,4.439,0,0,1,3.054,1.107,3.679,3.679,0,0,1,1.138,2.874h-2.988a1.79,1.79,0,0,0-.312-1.182,1.351,1.351,0,0,0-1.112-.461,2.33,2.33,0,0,0-1.336.352,1.426,1.426,0,0,0-.686.993q-.167.879,1.305,1.441a14.352,14.352,0,0,1,2.14.967,3.534,3.534,0,0,1,1.969,3.393,3.474,3.474,0,0,1-.712,1.942,4.115,4.115,0,0,1-1.78,1.292,6.576,6.576,0,0,1-2.553.439,6.164,6.164,0,0,1-1.925-.325,4.235,4.235,0,0,1-1.521-.9,3.9,3.9,0,0,1-1.23-3.12l3.015.009a2.064,2.064,0,0,0,.378,1.49,1.816,1.816,0,0,0,1.45.505,2.176,2.176,0,0,0,1.261-.347A1.441,1.441,0,0,0,102.91,15.537Zm13.254-1.283a7.9,7.9,0,0,1-.782,2.659,4.348,4.348,0,0,1-1.481,1.731,3.417,3.417,0,0,1-1.973.541,2.584,2.584,0,0,1-2.021-.984l-.861,4.456h-2.892L108.438,9.49l2.672-.009-.149.905a2.8,2.8,0,0,1,2.259-1.072,2.662,2.662,0,0,1,2.167.993,4.388,4.388,0,0,1,.831,2.663A10.274,10.274,0,0,1,116.164,14.254Zm-2.812-1.178q-.044-1.45-.984-1.477a1.7,1.7,0,0,0-1.521.747l-.677,3.771a1.173,1.173,0,0,0,1.213.782q1.538.026,1.89-2.646Q113.352,13.41,113.352,13.076Zm8.06,6.1a4.421,4.421,0,0,1-2.272-.6,3.793,3.793,0,0,1-1.507-1.652,4.44,4.44,0,0,1-.4-2.333l.026-.246a5.829,5.829,0,0,1,1.63-3.713A4.51,4.51,0,0,1,122.3,9.314a3.678,3.678,0,0,1,2.092.621,3.468,3.468,0,0,1,1.274,1.664,5.1,5.1,0,0,1,.264,2.381l-.167,1.206H120.1a1.854,1.854,0,0,0,.422,1.213,1.549,1.549,0,0,0,1.178.492,2.993,2.993,0,0,0,2.259-.967l1.213,1.6a3.578,3.578,0,0,1-1.5,1.2,5.263,5.263,0,0,1-2.1.451Zm.7-7.576a1.487,1.487,0,0,0-1.068.385,3.229,3.229,0,0,0-.787,1.347h2.892l.053-.254a1.929,1.929,0,0,0,.018-.577A1.017,1.017,0,0,0,122.114,11.6Zm8.569,5.291a1.244,1.244,0,0,0,.976-.345,1.717,1.717,0,0,0,.448-.938l2.707-.009a3.559,3.559,0,0,1-.62,1.872,3.745,3.745,0,0,1-1.529,1.279,4.521,4.521,0,0,1-2.061.426,3.57,3.57,0,0,1-2.927-1.367,4.726,4.726,0,0,1-.835-3.441l.026-.211a6.371,6.371,0,0,1,.809-2.553,4.626,4.626,0,0,1,1.709-1.718,4.433,4.433,0,0,1,2.369-.571,3.536,3.536,0,0,1,2.624,1.059,3.755,3.755,0,0,1,.927,2.764l-2.707-.009q.044-1.5-1.081-1.529-1.529-.053-1.758,2.567l-.079.893-.009.333Q129.673,16.864,130.684,16.891Zm7.8,2.109h-2.9l1.652-9.51h2.9ZM137.5,7.091a1.341,1.341,0,0,1,.453-1.072,1.625,1.625,0,0,1,1.138-.431,1.678,1.678,0,0,1,1.129.387,1.318,1.318,0,0,1,.47,1.011,1.344,1.344,0,0,1-.448,1.077,1.63,1.63,0,0,1-1.143.426,1.7,1.7,0,0,1-1.121-.382A1.3,1.3,0,0,1,137.5,7.091ZM140.993,19l1.292-7.453h-1.336l.36-2.057,1.248.009.07-.36a4.662,4.662,0,0,1,1.639-2.856,5.076,5.076,0,0,1,3.283-.976,13.29,13.29,0,0,1,3.023.5l-.615,2.355a7.643,7.643,0,0,0-2.391-.413,2.326,2.326,0,0,0-1.31.365,1.816,1.816,0,0,0-.747,1.121l-.062.264,1.907-.009-.369,2.057h-1.8L143.894,19Zm8.692,0h-2.9l1.644-9.51h2.909Zm6.231-2.109a1.244,1.244,0,0,0,.976-.345,1.717,1.717,0,0,0,.448-.938l2.707-.009a3.559,3.559,0,0,1-.62,1.872A3.745,3.745,0,0,1,157.9,18.75a4.521,4.521,0,0,1-2.061.426,3.57,3.57,0,0,1-2.927-1.367,4.726,4.726,0,0,1-.835-3.441l.026-.211a6.371,6.371,0,0,1,.809-2.553,4.626,4.626,0,0,1,1.709-1.718,4.433,4.433,0,0,1,2.369-.571,3.536,3.536,0,0,1,2.624,1.059,3.755,3.755,0,0,1,.927,2.764l-2.707-.009q.044-1.5-1.081-1.529-1.529-.053-1.758,2.567l-.079.893-.009.333Q154.906,16.864,155.917,16.891ZM44.546,39a2.578,2.578,0,0,1-.123-.861,2.933,2.933,0,0,1-2.329,1.037,2.866,2.866,0,0,1-2.057-.826,2.483,2.483,0,0,1-.765-1.96,2.79,2.79,0,0,1,1.292-2.377,6.091,6.091,0,0,1,3.41-.831l.967.018.105-.536.035-.466a.755.755,0,0,0-.8-.826,1.111,1.111,0,0,0-1.169,1.046l-2.9.009a2.754,2.754,0,0,1,.624-1.666,3.7,3.7,0,0,1,1.578-1.09,5.512,5.512,0,0,1,2.123-.356,4.251,4.251,0,0,1,1.894.453,2.82,2.82,0,0,1,1.217,1.187,3.031,3.031,0,0,1,.308,1.753l-.712,4.474-.044.545a2.4,2.4,0,0,0,.167,1.107L47.359,39Zm-1.652-1.916A1.865,1.865,0,0,0,44.45,36.3l.29-1.529-.747-.009a1.969,1.969,0,0,0-1.2.409,1.55,1.55,0,0,0-.589,1.068.778.778,0,0,0,.136.593A.7.7,0,0,0,42.894,37.084ZM55.4,32.171a8.273,8.273,0,0,0-.9-.088,2.233,2.233,0,0,0-1.986.9L51.446,39H48.554l1.652-9.51,2.7-.009-.22,1.248a2.64,2.64,0,0,1,2.2-1.441,4.144,4.144,0,0,1,.9.123Zm4.078,4.72a1.244,1.244,0,0,0,.976-.345,1.717,1.717,0,0,0,.448-.938L63.61,35.6a3.559,3.559,0,0,1-.62,1.872,3.745,3.745,0,0,1-1.529,1.279,4.521,4.521,0,0,1-2.061.426,3.57,3.57,0,0,1-2.927-1.367,4.726,4.726,0,0,1-.835-3.441l.026-.211a6.371,6.371,0,0,1,.809-2.553,4.626,4.626,0,0,1,1.709-1.718,4.433,4.433,0,0,1,2.369-.571,3.536,3.536,0,0,1,2.624,1.059,3.755,3.755,0,0,1,.927,2.764L61.4,33.129q.044-1.5-1.081-1.529-1.529-.053-1.758,2.567l-.079.893-.009.333Q58.468,36.864,59.479,36.891Zm8.938-6.363a3.107,3.107,0,0,1,2.452-1.222,2.472,2.472,0,0,1,2.123,1.046,3.981,3.981,0,0,1,.5,2.742L72.5,39H69.613l.993-5.948a3.079,3.079,0,0,0,.018-.563.878.878,0,0,0-.967-.9,1.873,1.873,0,0,0-1.389.572L67.055,39H64.164L66.51,25.5H69.4ZM77.224,39h-2.9l1.652-9.51h2.9Zm-.993-11.909a1.341,1.341,0,0,1,.453-1.072,1.625,1.625,0,0,1,1.138-.431,1.678,1.678,0,0,1,1.129.387,1.318,1.318,0,0,1,.47,1.011,1.344,1.344,0,0,1-.448,1.077,1.63,1.63,0,0,1-1.143.426,1.7,1.7,0,0,1-1.121-.382A1.3,1.3,0,0,1,76.231,27.091Zm8.253.035-.413,2.364h1.521l-.36,2.057H83.71l-.738,4.368a1.164,1.164,0,0,0,.057.677q.119.229.593.246a6.873,6.873,0,0,0,.756-.044l-.211,2.145a4.673,4.673,0,0,1-1.556.22,2.563,2.563,0,0,1-2.013-.791,2.7,2.7,0,0,1-.545-2.1l.773-4.72H79.65L80,29.49h1.178l.413-2.364Zm5.388,12.05a4.421,4.421,0,0,1-2.272-.6,3.793,3.793,0,0,1-1.507-1.652,4.44,4.44,0,0,1-.4-2.333l.026-.246a5.829,5.829,0,0,1,1.63-3.713,4.51,4.51,0,0,1,3.415-1.314,3.678,3.678,0,0,1,2.092.621A3.468,3.468,0,0,1,94.125,31.6a5.1,5.1,0,0,1,.264,2.381l-.167,1.206h-5.66a1.854,1.854,0,0,0,.422,1.213,1.549,1.549,0,0,0,1.178.492,2.993,2.993,0,0,0,2.259-.967l1.213,1.6a3.578,3.578,0,0,1-1.5,1.2,5.263,5.263,0,0,1-2.1.451Zm.7-7.576a1.487,1.487,0,0,0-1.068.385,3.229,3.229,0,0,0-.787,1.347h2.892l.053-.254a1.929,1.929,0,0,0,.018-.577A1.017,1.017,0,0,0,90.575,31.6Zm8.569,5.291a1.244,1.244,0,0,0,.976-.345,1.717,1.717,0,0,0,.448-.938l2.707-.009a3.559,3.559,0,0,1-.62,1.872,3.745,3.745,0,0,1-1.529,1.279,4.521,4.521,0,0,1-2.061.426,3.57,3.57,0,0,1-2.927-1.367,4.726,4.726,0,0,1-.835-3.441l.026-.211a6.371,6.371,0,0,1,.809-2.553,4.626,4.626,0,0,1,1.709-1.718,4.433,4.433,0,0,1,2.369-.571,3.536,3.536,0,0,1,2.624,1.059,3.755,3.755,0,0,1,.927,2.764l-2.707-.009q.044-1.5-1.081-1.529-1.529-.053-1.758,2.567l-.079.893-.009.333Q98.133,36.864,99.144,36.891Zm10.178-9.765-.413,2.364h1.521l-.36,2.057h-1.521l-.738,4.368a1.164,1.164,0,0,0,.057.677q.119.229.593.246a6.873,6.873,0,0,0,.756-.044l-.211,2.145a4.673,4.673,0,0,1-1.556.22,2.563,2.563,0,0,1-2.013-.791,2.7,2.7,0,0,1-.545-2.1l.773-4.72h-1.178l.352-2.057h1.178l.413-2.364Zm6.539,10.837a3.148,3.148,0,0,1-2.566,1.222,2.492,2.492,0,0,1-2.1-.976,3.6,3.6,0,0,1-.549-2.566l1.028-6.152h2.892l-1.046,6.195a2.064,2.064,0,0,0,0,.466.766.766,0,0,0,.853.748,1.868,1.868,0,0,0,1.556-.722L117.1,29.49h2.909L118.357,39h-2.689Zm10.916-5.792a8.273,8.273,0,0,0-.9-.088,2.233,2.233,0,0,0-1.986.9L122.822,39H119.93l1.652-9.51,2.7-.009-.22,1.248a2.64,2.64,0,0,1,2.2-1.441,4.144,4.144,0,0,1,.9.123Zm4.57,7a4.421,4.421,0,0,1-2.272-.6,3.793,3.793,0,0,1-1.507-1.652,4.44,4.44,0,0,1-.4-2.333l.026-.246a5.829,5.829,0,0,1,1.63-3.713,4.51,4.51,0,0,1,3.415-1.314,3.678,3.678,0,0,1,2.092.621A3.468,3.468,0,0,1,135.6,31.6a5.1,5.1,0,0,1,.264,2.381l-.167,1.206h-5.66a1.854,1.854,0,0,0,.422,1.213,1.549,1.549,0,0,0,1.178.492,2.993,2.993,0,0,0,2.259-.967l1.213,1.6a3.578,3.578,0,0,1-1.5,1.2,5.263,5.263,0,0,1-2.1.451Zm.7-7.576a1.487,1.487,0,0,0-1.068.385,3.229,3.229,0,0,0-.787,1.347h2.892l.053-.254a1.929,1.929,0,0,0,.018-.577A1.017,1.017,0,0,0,132.05,31.6Zm12.894-2.118-.2,1.143a3.38,3.38,0,0,1,2.751-1.318,2.27,2.27,0,0,1,1.964.98,4.1,4.1,0,0,1,.47,2.729l-1,5.985h-2.9l1.011-6.01a3.108,3.108,0,0,0,.018-.563q-.062-.836-.984-.836a1.807,1.807,0,0,0-1.4.678L143.485,39h-2.892l1.652-9.51Z" transform="translate(705 1149)" fill="#1b59ed"/>
  </g>
</svg>
