<svg xmlns="http://www.w3.org/2000/svg" xmlns:xlink="http://www.w3.org/1999/xlink" width="118" height="118" viewBox="0 0 118 118">
  <defs>
    <clipPath id="clip-path">
      <rect id="Rectángulo_34332" data-name="Rectángulo 34332" width="85" height="85" transform="translate(1230 12343)" fill="#12263f"/>
    </clipPath>
  </defs>
  <g id="Grupo_83669" data-name="Grupo 83669" transform="translate(-1214 -12322)">
    <circle id="Elipse_5147" data-name="Elipse 5147" cx="59" cy="59" r="59" transform="translate(1214 12322)" fill="#fff"/>
    <g id="Enmascarar_grupo_76" data-name="Enmascarar grupo 76" transform="translate(0 -7)" clip-path="url(#clip-path)">
      <g id="acceso-remoto" transform="translate(1228.629 12341.629)">
        <path id="Trazado_118826" data-name="Trazado 118826" d="M24.677,21.935a17.7,17.7,0,0,1,12.6,5.221l1.939-1.939a20.561,20.561,0,0,0-29.081,0l1.939,1.939A17.7,17.7,0,0,1,24.677,21.935Z" fill="#12263f"/>
        <path id="Trazado_118827" data-name="Trazado 118827" d="M41.158,23.278,43.1,21.339a26.048,26.048,0,0,0-36.838,0L8.2,23.278a23.308,23.308,0,0,1,32.961,0Z" fill="#12263f"/>
        <path id="Trazado_118828" data-name="Trazado 118828" d="M14.014,29.095l1.939,1.939a12.339,12.339,0,0,1,17.45,0l1.939-1.939a15.079,15.079,0,0,0-21.327,0Z" fill="#12263f"/>
        <path id="Trazado_118829" data-name="Trazado 118829" d="M17.892,32.972l1.939,1.939a6.855,6.855,0,0,1,9.693,0l1.939-1.939a9.6,9.6,0,0,0-13.57,0Z" fill="#12263f"/>
        <circle id="Elipse_5139" data-name="Elipse 5139" cx="2.742" cy="2.742" r="2.742" transform="translate(21.935 35.645)" fill="#12263f"/>
        <path id="Trazado_118830" data-name="Trazado 118830" d="M24.677,47.984A23.306,23.306,0,1,0,1.371,24.677,23.333,23.333,0,0,0,24.677,47.984Zm0-43.871A20.565,20.565,0,1,1,4.113,24.677,20.588,20.588,0,0,1,24.677,4.113Z" fill="#12263f"/>
        <path id="Trazado_118831" data-name="Trazado 118831" d="M80.887,28.79H53.468a5.489,5.489,0,0,0-5.484,5.484V80.791a5.489,5.489,0,0,0,5.484,5.484H80.887a5.489,5.489,0,0,0,5.484-5.484V34.274A5.489,5.489,0,0,0,80.887,28.79Zm2.742,52a2.745,2.745,0,0,1-2.742,2.742H53.468a2.745,2.745,0,0,1-2.742-2.742V34.274a2.745,2.745,0,0,1,2.742-2.742H80.887a2.745,2.745,0,0,1,2.742,2.742Z" fill="#12263f"/>
        <path id="Trazado_118832" data-name="Trazado 118832" d="M79.516,34.274H72.661a1.365,1.365,0,0,0-.969.4l-2.34,2.34H65l-2.34-2.34a1.365,1.365,0,0,0-.969-.4H54.839a1.371,1.371,0,0,0-1.371,1.371V79.516a1.371,1.371,0,0,0,1.371,1.371H79.516a1.371,1.371,0,0,0,1.371-1.371V35.645a1.371,1.371,0,0,0-1.371-1.371ZM78.145,78.145H56.21V37.016h4.916l2.34,2.34a1.365,1.365,0,0,0,.969.4h5.484a1.365,1.365,0,0,0,.969-.4l2.34-2.34h4.916Z" fill="#12263f"/>
        <path id="Trazado_118833" data-name="Trazado 118833" d="M61.694,72.661H72.661V75.4H61.694Z" fill="#12263f"/>
        <path id="Trazado_118834" data-name="Trazado 118834" d="M28.276,60.623a1.371,1.371,0,0,0-2.228,1.071l0,5.444A16.58,16.58,0,0,1,10.529,50.726V49.355a1.371,1.371,0,0,0-2.582-.643,20.665,20.665,0,0,0,.546,20.5A21.162,21.162,0,0,0,26.05,79.5l0,5.5a1.369,1.369,0,0,0,.814,1.252,1.342,1.342,0,0,0,.557.119,1.371,1.371,0,0,0,.917-.352L42.046,73.68a1.369,1.369,0,0,0-.06-2.088Zm.517,21.3,0-3.777a1.371,1.371,0,0,0-1.371-1.371h-.6A18.464,18.464,0,0,1,10.843,67.8,17.953,17.953,0,0,1,8.452,55.713,19.438,19.438,0,0,0,27.229,69.919h.186a1.371,1.371,0,0,0,1.371-1.371l0-4,10.222,8.178Z" fill="#12263f"/>
        <path id="Trazado_118835" data-name="Trazado 118835" d="M59.03,50.272a1.367,1.367,0,0,0-.073.454h-.005V61.694a1.371,1.371,0,0,0,1.371,1.371h13.71A1.371,1.371,0,0,0,75.4,61.694V50.726H75.4a1.355,1.355,0,0,0-1.365-1.371H60.323a1.368,1.368,0,0,0-1.293.917Zm2.664,10.051V53.579l4.627,3.7a1.373,1.373,0,0,0,1.714,0l4.627-3.7v6.744Zm8.43-8.226-2.946,2.357L64.231,52.1Z" fill="#12263f"/>
      </g>
    </g>
  </g>
</svg>
