<svg xmlns="http://www.w3.org/2000/svg" xmlns:xlink="http://www.w3.org/1999/xlink" width="118" height="118" viewBox="0 0 118 118">
  <defs>
    <clipPath id="clip-path">
      <rect id="Rectángulo_34331" data-name="Rectángulo 34331" width="85" height="85" transform="translate(915 12343)" fill="#12263f"/>
    </clipPath>
  </defs>
  <g id="Grupo_83668" data-name="Grupo 83668" transform="translate(-899 -12322)">
    <circle id="Elipse_5146" data-name="Elipse 5146" cx="59" cy="59" r="59" transform="translate(899 12322)" fill="#fff"/>
    <g id="Enmascarar_grupo_75" data-name="Enmascarar grupo 75" transform="translate(0 -7)" clip-path="url(#clip-path)">
      <g id="seguro" transform="translate(915 12343)">
        <path id="Trazado_118821" data-name="Trazado 118821" d="M13.9,75.692a1.247,1.247,0,0,0,1.247-1.247V70.459L18.6,72.452a1.247,1.247,0,0,0,1.247-2.159L16.389,68.3l3.452-1.993A1.247,1.247,0,0,0,18.6,64.147L15.143,66.14V62.153a1.247,1.247,0,1,0-2.493,0V66.14L9.2,64.147A1.247,1.247,0,1,0,7.95,66.306L11.4,68.3,7.95,70.292A1.247,1.247,0,1,0,9.2,72.452l3.452-1.993v3.987A1.247,1.247,0,0,0,13.9,75.692Z" fill="#12263f"/>
        <path id="Trazado_118822" data-name="Trazado 118822" d="M45.633,72a1.246,1.246,0,0,0,1.7.456l3.452-1.993v3.987a1.247,1.247,0,1,0,2.493,0V70.459l3.452,1.993a1.247,1.247,0,0,0,1.247-2.159L54.528,68.3l3.452-1.993a1.247,1.247,0,0,0-1.247-2.159L53.281,66.14V62.153a1.247,1.247,0,1,0-2.493,0V66.14l-3.452-1.993a1.247,1.247,0,1,0-1.247,2.159L49.541,68.3l-3.452,1.993a1.247,1.247,0,0,0-.456,1.7Z" fill="#12263f"/>
        <path id="Trazado_118823" data-name="Trazado 118823" d="M26.563,72a1.246,1.246,0,0,0,1.7.456l3.452-1.993v3.987a1.247,1.247,0,0,0,2.493,0V70.459l3.452,1.993a1.247,1.247,0,1,0,1.247-2.159L35.459,68.3l3.452-1.993a1.247,1.247,0,1,0-1.247-2.159l-3.452,1.993V62.154a1.247,1.247,0,0,0-2.493,0v3.987l-3.452-1.993a1.247,1.247,0,0,0-1.247,2.159L30.472,68.3,27.02,70.293A1.246,1.246,0,0,0,26.563,72Z" fill="#12263f"/>
        <path id="Trazado_118824" data-name="Trazado 118824" d="M64.7,72a1.246,1.246,0,0,0,1.7.456l3.452-1.993v3.987a1.247,1.247,0,0,0,2.493,0V70.459L75.8,72.452a1.247,1.247,0,1,0,1.247-2.159L73.6,68.3l3.452-1.993A1.247,1.247,0,1,0,75.8,64.147L72.35,66.141V62.154a1.247,1.247,0,1,0-2.493,0v3.987L66.4,64.147a1.247,1.247,0,1,0-1.247,2.159L68.611,68.3l-3.452,1.993A1.246,1.246,0,0,0,64.7,72Z" fill="#12263f"/>
        <path id="Trazado_118825" data-name="Trazado 118825" d="M79.729,53.477H64.848V41.546a1.247,1.247,0,0,0-2.493,0V53.477H48.16L47.5,47.584a5.889,5.889,0,1,0-9.994,0l-.663,5.892H22.645V32.761a1.4,1.4,0,0,1,1.395-1.395H60.96a1.4,1.4,0,0,1,1.395,1.395v2.967a1.247,1.247,0,1,0,2.493,0V32.761a3.892,3.892,0,0,0-3.888-3.888h-.2v-7.33a18.264,18.264,0,1,0-36.528,0v7.33h-.2a3.892,3.892,0,0,0-3.888,3.888V53.477H5.271A5.277,5.277,0,0,0,0,58.748v17.7a5.277,5.277,0,0,0,5.271,5.271H13.9a1.247,1.247,0,1,0,0-2.493H5.271A2.781,2.781,0,0,1,2.493,76.45v-17.7A2.781,2.781,0,0,1,5.271,55.97H79.729a2.781,2.781,0,0,1,2.777,2.777v17.7a2.781,2.781,0,0,1-2.777,2.777H19.713a1.247,1.247,0,1,0,0,2.493H79.729A5.277,5.277,0,0,0,85,76.45v-17.7a5.277,5.277,0,0,0-5.271-5.271ZM50.1,28.874H34.9v-7.33a7.6,7.6,0,1,1,15.206,0Zm-23.373-7.33a15.771,15.771,0,1,1,31.541,0v7.33H52.6v-7.33a10.1,10.1,0,0,0-20.192,0v7.33H26.729ZM39.643,46.3a3.382,3.382,0,0,1-.532-2.044,3.431,3.431,0,0,1,3.17-3.18A3.395,3.395,0,0,1,45.358,46.3a2.274,2.274,0,0,0-.349,1.473l.642,5.7h-6.3l.642-5.709a2.256,2.256,0,0,0-.349-1.464Z" fill="#12263f"/>
      </g>
    </g>
  </g>
</svg>
