<svg xmlns="http://www.w3.org/2000/svg" xmlns:xlink="http://www.w3.org/1999/xlink" width="118" height="118" viewBox="0 0 118 118">
  <defs>
    <clipPath id="clip-path">
      <rect id="Rectángulo_34329" data-name="Rectángulo 34329" width="85" height="85" transform="translate(285 12343)" fill="#12263f"/>
    </clipPath>
  </defs>
  <g id="Grupo_83666" data-name="Grupo 83666" transform="translate(-269 -12322)">
    <circle id="Elipse_5144" data-name="Elipse 5144" cx="59" cy="59" r="59" transform="translate(269 12322)" fill="#fff"/>
    <g id="Enmascarar_grupo_73" data-name="Enmascarar grupo 73" transform="translate(0 1)" clip-path="url(#clip-path)">
      <g id="click" transform="translate(285 12343)">
        <path id="Trazado_118802" data-name="Trazado 118802" d="M22.535,46.522A22.186,22.186,0,0,1,2.5,23.8,22.318,22.318,0,0,1,40.13,8.644a1.246,1.246,0,0,0,1.71-1.81A24.808,24.808,0,0,0,.015,23.711,24.681,24.681,0,0,0,22.287,49,1.247,1.247,0,0,0,22.535,46.522Z" fill="#12263f"/>
        <path id="Trazado_118803" data-name="Trazado 118803" d="M25.4,6.905a1.246,1.246,0,0,0-.088,2.489,15.439,15.439,0,0,1,8.17,2.671,1.246,1.246,0,0,0,1.4-2.057A17.927,17.927,0,0,0,25.4,6.905Z" fill="#12263f"/>
        <path id="Trazado_118804" data-name="Trazado 118804" d="M19.283,10.377a1.246,1.246,0,0,0-.88-2.329,17.614,17.614,0,0,0-7.872,27.211,17.947,17.947,0,0,0,9.792,6.466,1.247,1.247,0,0,0,.614-2.413,15.448,15.448,0,0,1-8.427-5.565,15.123,15.123,0,0,1,6.774-23.369Z" fill="#12263f"/>
        <path id="Trazado_118805" data-name="Trazado 118805" d="M82.352,41.089q-.126-.051-.257-.1L28.041,22.51a4.6,4.6,0,0,0-5.8,5.784L40.824,82.048a4.389,4.389,0,0,0,8.268-.029L52.569,71.4a1.246,1.246,0,0,0-2.366-.775L46.726,81.244a1.871,1.871,0,0,1-3.548-.01L24.593,27.48a2.083,2.083,0,0,1,2.643-2.614L81.29,43.348a1.879,1.879,0,0,1-.1,3.542L55.872,54.981a1.245,1.245,0,0,0-.8.8L52.309,64.2a1.246,1.246,0,0,0,2.366.775l2.561-7.817,24.712-7.9c3.725-1.19,4.089-6.67.4-8.174Z" fill="#12263f"/>
        <path id="Trazado_118806" data-name="Trazado 118806" d="M51.953,23.611c.088.015,2.239.023,3.208.018a1.246,1.246,0,0,0-.014-2.49c-.593,0-1.219.006-1.739.007v-7.3a1.246,1.246,0,0,0-2.49,0v8.534a1.245,1.245,0,0,0,1.035,1.227Z" fill="#12263f"/>
        <path id="Trazado_118807" data-name="Trazado 118807" d="M74.165,23.636a1.245,1.245,0,0,0,1.245-1.245V20.6l2.788,2.69A1.246,1.246,0,0,0,79.928,21.5l-3.673-3.544L79.6,14.874a1.246,1.246,0,0,0-1.685-1.833l-2.507,2.3v-1.5a1.246,1.246,0,0,0-2.49,0v8.541a1.245,1.245,0,0,0,1.245,1.245Z" fill="#12263f"/>
        <path id="Trazado_118808" data-name="Trazado 118808" d="M59.171,23.636a1.245,1.245,0,0,0,1.245-1.245V13.85a1.246,1.246,0,0,0-2.49,0v8.541A1.245,1.245,0,0,0,59.171,23.636Z" fill="#12263f"/>
        <path id="Trazado_118809" data-name="Trazado 118809" d="M83.755,12.6A1.245,1.245,0,0,0,82.51,13.85v4.58a1.246,1.246,0,0,0,2.49,0V13.85A1.245,1.245,0,0,0,83.755,12.6Z" fill="#12263f"/>
        <path id="Trazado_118810" data-name="Trazado 118810" d="M39.941,18.121a5.522,5.522,0,0,0,5.516,5.516A4.72,4.72,0,0,0,49.1,21.985a1.246,1.246,0,0,0-1.909-1.6,2.32,2.32,0,0,1-1.736.76,3.026,3.026,0,1,1,1.691-5.535,1.246,1.246,0,0,0,1.394-2.064,5.516,5.516,0,0,0-8.6,4.573Z" fill="#12263f"/>
        <path id="Trazado_118811" data-name="Trazado 118811" d="M67.458,23.636a4.722,4.722,0,0,0,3.644-1.65,1.246,1.246,0,0,0-1.908-1.6,2.321,2.321,0,0,1-1.737.761,3.026,3.026,0,1,1,1.691-5.535,1.246,1.246,0,0,0,1.394-2.064,5.516,5.516,0,1,0-3.085,10.089Z" fill="#12263f"/>
        <path id="Trazado_118812" data-name="Trazado 118812" d="M83.755,20.968a1.246,1.246,0,0,0,0,2.49A1.246,1.246,0,0,0,83.755,20.968Z" fill="#12263f"/>
      </g>
    </g>
  </g>
</svg>
