<svg xmlns="http://www.w3.org/2000/svg" xmlns:xlink="http://www.w3.org/1999/xlink" width="118" height="118" viewBox="0 0 118 118">
  <defs>
    <clipPath id="clip-path">
      <rect id="Rectángulo_34330" data-name="Rectángulo 34330" width="85" height="85" transform="translate(600 12343)" fill="#12263f"/>
    </clipPath>
  </defs>
  <g id="Grupo_83667" data-name="Grupo 83667" transform="translate(-584 -12322)">
    <circle id="Elipse_5145" data-name="Elipse 5145" cx="59" cy="59" r="59" transform="translate(584 12322)" fill="#fff"/>
    <g id="Enmascarar_grupo_74" data-name="Enmascarar grupo 74" transform="translate(0 -7)" clip-path="url(#clip-path)">
      <g id="programacion-web" transform="translate(600 12348.003)">
        <path id="Trazado_118813" data-name="Trazado 118813" d="M33.537,54.555a1.4,1.4,0,0,1-.908-.335l-9.081-7.732a1.4,1.4,0,0,1,0-2.137l9.081-7.732a1.4,1.4,0,1,1,1.819,2.136l-7.825,6.664,7.825,6.664a1.4,1.4,0,0,1-.911,2.472Zm0,0" fill="#12263f"/>
        <path id="Trazado_118814" data-name="Trazado 118814" d="M51.463,54.555a1.4,1.4,0,0,1-.911-2.472l7.825-6.664-7.825-6.664a1.4,1.4,0,0,1,1.819-2.136l9.081,7.732a1.4,1.4,0,0,1,0,2.137L52.372,54.22a1.4,1.4,0,0,1-.908.335Zm0,0" fill="#12263f"/>
        <path id="Trazado_118815" data-name="Trazado 118815" d="M39.285,60.355a1.427,1.427,0,0,1-.291-.031,1.4,1.4,0,0,1-1.084-1.663l5.659-26.87a1.4,1.4,0,1,1,2.746.579L40.657,59.24A1.4,1.4,0,0,1,39.285,60.355Zm0,0" fill="#12263f"/>
        <path id="Trazado_118816" data-name="Trazado 118816" d="M75.578,74.994H9.422A9.433,9.433,0,0,1,0,65.571V9.422A9.433,9.433,0,0,1,9.422,0H75.578A9.433,9.433,0,0,1,85,9.422V65.571A9.433,9.433,0,0,1,75.578,74.994ZM9.422,2.807A6.623,6.623,0,0,0,2.807,9.422V65.571a6.623,6.623,0,0,0,6.616,6.616H75.578a6.623,6.623,0,0,0,6.616-6.616V9.422a6.623,6.623,0,0,0-6.616-6.616Zm0,0" fill="#12263f"/>
        <path id="Trazado_118817" data-name="Trazado 118817" d="M83.6,22.471H1.4a1.4,1.4,0,0,1,0-2.807H83.6a1.4,1.4,0,1,1,0,2.807Zm0,0" fill="#12263f"/>
        <path id="Trazado_118818" data-name="Trazado 118818" d="M23.977,15.756a4.441,4.441,0,1,1,4.441-4.441,4.447,4.447,0,0,1-4.441,4.441Zm0-6.075a1.634,1.634,0,1,0,1.634,1.634,1.636,1.636,0,0,0-1.634-1.634Zm0,0" fill="#12263f"/>
        <path id="Trazado_118819" data-name="Trazado 118819" d="M10.332,15.713a4.441,4.441,0,1,1,4.441-4.441A4.446,4.446,0,0,1,10.332,15.713Zm0-6.075a1.634,1.634,0,1,0,1.634,1.634A1.637,1.637,0,0,0,10.332,9.638Zm0,0" fill="#12263f"/>
        <path id="Trazado_118820" data-name="Trazado 118820" d="M37.621,15.8a4.441,4.441,0,1,1,4.441-4.441A4.446,4.446,0,0,1,37.621,15.8Zm0-6.075a1.634,1.634,0,1,0,1.634,1.634A1.636,1.636,0,0,0,37.621,9.723Zm0,0" fill="#12263f"/>
      </g>
    </g>
  </g>
</svg>
